STARTFONT 2.1
FONT -TakWolf-Fusion Pixel 8px Monospaced zh_hans-Regular-R-Normal-Sans Serif-8-80-75-75-M-79-ISO10646-1
SIZE 8 75 75
FONTBOUNDINGBOX 8 8 0 -1
STARTPROPERTIES 22
FOUNDRY "TakWolf"
FAMILY_NAME "Fusion Pixel 8px Monospaced zh_hans"
WEIGHT_NAME "Regular"
SLANT "R"
SETWIDTH_NAME "Normal"
ADD_STYLE_NAME "Sans Serif"
PIXEL_SIZE 8
POINT_SIZE 80
RESOLUTION_X 75
RESOLUTION_Y 75
SPACING "M"
AVERAGE_WIDTH 79
CHARSET_REGISTRY "ISO10646"
CHARSET_ENCODING "1"
DEFAULT_CHAR 65534
FONT_ASCENT 7
FONT_DESCENT 1
X_HEIGHT 4
CAP_HEIGHT 6
FONT_VERSION "2024.05.12"
COPYRIGHT "Copyright (c) 2022, TakWolf (https://takwolf.com), with Reserved Font Name 'Fusion Pixel'."
LICENSE "This Font Software is licensed under the SIL Open Font License, Version 1.1."
ENDPROPERTIES
CHARS 20602
STARTCHAR 0020
ENCODING 32
SWIDTH 500 0
DWIDTH 4 0
BBX 4 8 0 -1
BITMAP
00
00
00
00
00
00
00
00
ENDCHAR
STARTCHAR 0021
ENCODING 33
SWIDTH 500 0
DWIDTH 4 0
BBX 4 8 0 -1
BITMAP
00
40
40
40
40
00
40
00
ENDCHAR
STARTCHAR 0022
ENCODING 34
SWIDTH 500 0
DWIDTH 4 0
BBX 4 8 0 -1
BITMAP
00
A0
A0
00
00
00
00
00
ENDCHAR
STARTCHAR 0023
ENCODING 35
SWIDTH 500 0
DWIDTH 4 0
BBX 4 8 0 -1
BITMAP
00
A0
E0
A0
A0
E0
A0
00
ENDCHAR
STARTCHAR 0024
ENCODING 36
SWIDTH 500 0
DWIDTH 4 0
BBX 4 8 0 -1
BITMAP
00
40
E0
C0
60
60
C0
40
ENDCHAR
STARTCHAR 0025
ENCODING 37
SWIDTH 500 0
DWIDTH 4 0
BBX 4 8 0 -1
BITMAP
00
00
A0
20
40
80
A0
00
ENDCHAR
STARTCHAR 0026
ENCODING 38
SWIDTH 500 0
DWIDTH 4 0
BBX 4 8 0 -1
BITMAP
00
40
A0
40
A0
80
60
00
ENDCHAR
STARTCHAR 0027
ENCODING 39
SWIDTH 500 0
DWIDTH 4 0
BBX 4 8 0 -1
BITMAP
00
40
40
00
00
00
00
00
ENDCHAR
STARTCHAR 0028
ENCODING 40
SWIDTH 500 0
DWIDTH 4 0
BBX 4 8 0 -1
BITMAP
00
20
40
40
40
40
40
20
ENDCHAR
STARTCHAR 0029
ENCODING 41
SWIDTH 500 0
DWIDTH 4 0
BBX 4 8 0 -1
BITMAP
00
80
40
40
40
40
40
80
ENDCHAR
STARTCHAR 002A
ENCODING 42
SWIDTH 500 0
DWIDTH 4 0
BBX 4 8 0 -1
BITMAP
00
00
40
E0
40
A0
00
00
ENDCHAR
STARTCHAR 002B
ENCODING 43
SWIDTH 500 0
DWIDTH 4 0
BBX 4 8 0 -1
BITMAP
00
00
00
40
E0
40
00
00
ENDCHAR
STARTCHAR 002C
ENCODING 44
SWIDTH 500 0
DWIDTH 4 0
BBX 4 8 0 -1
BITMAP
00
00
00
00
00
00
40
80
ENDCHAR
STARTCHAR 002D
ENCODING 45
SWIDTH 500 0
DWIDTH 4 0
BBX 4 8 0 -1
BITMAP
00
00
00
00
E0
00
00
00
ENDCHAR
STARTCHAR 002E
ENCODING 46
SWIDTH 500 0
DWIDTH 4 0
BBX 4 8 0 -1
BITMAP
00
00
00
00
00
00
40
00
ENDCHAR
STARTCHAR 002F
ENCODING 47
SWIDTH 500 0
DWIDTH 4 0
BBX 4 8 0 -1
BITMAP
00
20
20
40
40
40
80
80
ENDCHAR
STARTCHAR 0030
ENCODING 48
SWIDTH 500 0
DWIDTH 4 0
BBX 4 8 0 -1
BITMAP
00
60
A0
A0
A0
A0
C0
00
ENDCHAR
STARTCHAR 0031
ENCODING 49
SWIDTH 500 0
DWIDTH 4 0
BBX 4 8 0 -1
BITMAP
00
40
C0
40
40
40
E0
00
ENDCHAR
STARTCHAR 0032
ENCODING 50
SWIDTH 500 0
DWIDTH 4 0
BBX 4 8 0 -1
BITMAP
00
C0
20
20
40
80
E0
00
ENDCHAR
STARTCHAR 0033
ENCODING 51
SWIDTH 500 0
DWIDTH 4 0
BBX 4 8 0 -1
BITMAP
00
C0
20
40
20
20
C0
00
ENDCHAR
STARTCHAR 0034
ENCODING 52
SWIDTH 500 0
DWIDTH 4 0
BBX 4 8 0 -1
BITMAP
00
20
60
A0
A0
E0
20
00
ENDCHAR
STARTCHAR 0035
ENCODING 53
SWIDTH 500 0
DWIDTH 4 0
BBX 4 8 0 -1
BITMAP
00
E0
80
C0
20
20
C0
00
ENDCHAR
STARTCHAR 0036
ENCODING 54
SWIDTH 500 0
DWIDTH 4 0
BBX 4 8 0 -1
BITMAP
00
60
80
E0
A0
A0
C0
00
ENDCHAR
STARTCHAR 0037
ENCODING 55
SWIDTH 500 0
DWIDTH 4 0
BBX 4 8 0 -1
BITMAP
00
E0
20
20
40
40
40
00
ENDCHAR
STARTCHAR 0038
ENCODING 56
SWIDTH 500 0
DWIDTH 4 0
BBX 4 8 0 -1
BITMAP
00
60
A0
40
A0
A0
C0
00
ENDCHAR
STARTCHAR 0039
ENCODING 57
SWIDTH 500 0
DWIDTH 4 0
BBX 4 8 0 -1
BITMAP
00
60
A0
A0
E0
20
C0
00
ENDCHAR
STARTCHAR 003A
ENCODING 58
SWIDTH 500 0
DWIDTH 4 0
BBX 4 8 0 -1
BITMAP
00
00
00
40
00
00
40
00
ENDCHAR
STARTCHAR 003B
ENCODING 59
SWIDTH 500 0
DWIDTH 4 0
BBX 4 8 0 -1
BITMAP
00
00
00
40
00
00
40
80
ENDCHAR
STARTCHAR 003C
ENCODING 60
SWIDTH 500 0
DWIDTH 4 0
BBX 4 8 0 -1
BITMAP
00
00
20
40
80
40
20
00
ENDCHAR
STARTCHAR 003D
ENCODING 61
SWIDTH 500 0
DWIDTH 4 0
BBX 4 8 0 -1
BITMAP
00
00
00
E0
00
E0
00
00
ENDCHAR
STARTCHAR 003E
ENCODING 62
SWIDTH 500 0
DWIDTH 4 0
BBX 4 8 0 -1
BITMAP
00
00
80
40
20
40
80
00
ENDCHAR
STARTCHAR 003F
ENCODING 63
SWIDTH 500 0
DWIDTH 4 0
BBX 4 8 0 -1
BITMAP
00
40
A0
20
40
00
40
00
ENDCHAR
STARTCHAR 0040
ENCODING 64
SWIDTH 500 0
DWIDTH 4 0
BBX 4 8 0 -1
BITMAP
00
40
A0
E0
E0
80
60
00
ENDCHAR
STARTCHAR 0041
ENCODING 65
SWIDTH 500 0
DWIDTH 4 0
BBX 4 8 0 -1
BITMAP
00
40
A0
A0
E0
A0
A0
00
ENDCHAR
STARTCHAR 0042
ENCODING 66
SWIDTH 500 0
DWIDTH 4 0
BBX 4 8 0 -1
BITMAP
00
C0
A0
C0
A0
A0
C0
00
ENDCHAR
STARTCHAR 0043
ENCODING 67
SWIDTH 500 0
DWIDTH 4 0
BBX 4 8 0 -1
BITMAP
00
60
80
80
80
80
60
00
ENDCHAR
STARTCHAR 0044
ENCODING 68
SWIDTH 500 0
DWIDTH 4 0
BBX 4 8 0 -1
BITMAP
00
C0
A0
A0
A0
A0
C0
00
ENDCHAR
STARTCHAR 0045
ENCODING 69
SWIDTH 500 0
DWIDTH 4 0
BBX 4 8 0 -1
BITMAP
00
E0
80
E0
80
80
E0
00
ENDCHAR
STARTCHAR 0046
ENCODING 70
SWIDTH 500 0
DWIDTH 4 0
BBX 4 8 0 -1
BITMAP
00
E0
80
E0
80
80
80
00
ENDCHAR
STARTCHAR 0047
ENCODING 71
SWIDTH 500 0
DWIDTH 4 0
BBX 4 8 0 -1
BITMAP
00
60
80
80
A0
A0
60
00
ENDCHAR
STARTCHAR 0048
ENCODING 72
SWIDTH 500 0
DWIDTH 4 0
BBX 4 8 0 -1
BITMAP
00
A0
A0
E0
A0
A0
A0
00
ENDCHAR
STARTCHAR 0049
ENCODING 73
SWIDTH 500 0
DWIDTH 4 0
BBX 4 8 0 -1
BITMAP
00
E0
40
40
40
40
E0
00
ENDCHAR
STARTCHAR 004A
ENCODING 74
SWIDTH 500 0
DWIDTH 4 0
BBX 4 8 0 -1
BITMAP
00
20
20
20
20
A0
40
00
ENDCHAR
STARTCHAR 004B
ENCODING 75
SWIDTH 500 0
DWIDTH 4 0
BBX 4 8 0 -1
BITMAP
00
A0
A0
C0
A0
A0
A0
00
ENDCHAR
STARTCHAR 004C
ENCODING 76
SWIDTH 500 0
DWIDTH 4 0
BBX 4 8 0 -1
BITMAP
00
80
80
80
80
80
E0
00
ENDCHAR
STARTCHAR 004D
ENCODING 77
SWIDTH 500 0
DWIDTH 4 0
BBX 4 8 0 -1
BITMAP
00
A0
E0
E0
A0
A0
A0
00
ENDCHAR
STARTCHAR 004E
ENCODING 78
SWIDTH 500 0
DWIDTH 4 0
BBX 4 8 0 -1
BITMAP
00
C0
A0
A0
A0
A0
A0
00
ENDCHAR
STARTCHAR 004F
ENCODING 79
SWIDTH 500 0
DWIDTH 4 0
BBX 4 8 0 -1
BITMAP
00
40
A0
A0
A0
A0
40
00
ENDCHAR
STARTCHAR 0050
ENCODING 80
SWIDTH 500 0
DWIDTH 4 0
BBX 4 8 0 -1
BITMAP
00
C0
A0
A0
C0
80
80
00
ENDCHAR
STARTCHAR 0051
ENCODING 81
SWIDTH 500 0
DWIDTH 4 0
BBX 4 8 0 -1
BITMAP
00
40
A0
A0
A0
A0
40
20
ENDCHAR
STARTCHAR 0052
ENCODING 82
SWIDTH 500 0
DWIDTH 4 0
BBX 4 8 0 -1
BITMAP
00
C0
A0
A0
C0
A0
A0
00
ENDCHAR
STARTCHAR 0053
ENCODING 83
SWIDTH 500 0
DWIDTH 4 0
BBX 4 8 0 -1
BITMAP
00
60
80
40
20
20
C0
00
ENDCHAR
STARTCHAR 0054
ENCODING 84
SWIDTH 500 0
DWIDTH 4 0
BBX 4 8 0 -1
BITMAP
00
E0
40
40
40
40
40
00
ENDCHAR
STARTCHAR 0055
ENCODING 85
SWIDTH 500 0
DWIDTH 4 0
BBX 4 8 0 -1
BITMAP
00
A0
A0
A0
A0
A0
E0
00
ENDCHAR
STARTCHAR 0056
ENCODING 86
SWIDTH 500 0
DWIDTH 4 0
BBX 4 8 0 -1
BITMAP
00
A0
A0
A0
A0
C0
80
00
ENDCHAR
STARTCHAR 0057
ENCODING 87
SWIDTH 500 0
DWIDTH 4 0
BBX 4 8 0 -1
BITMAP
00
A0
A0
A0
E0
E0
A0
00
ENDCHAR
STARTCHAR 0058
ENCODING 88
SWIDTH 500 0
DWIDTH 4 0
BBX 4 8 0 -1
BITMAP
00
A0
A0
40
40
A0
A0
00
ENDCHAR
STARTCHAR 0059
ENCODING 89
SWIDTH 500 0
DWIDTH 4 0
BBX 4 8 0 -1
BITMAP
00
A0
A0
A0
40
40
40
00
ENDCHAR
STARTCHAR 005A
ENCODING 90
SWIDTH 500 0
DWIDTH 4 0
BBX 4 8 0 -1
BITMAP
00
E0
20
40
40
80
E0
00
ENDCHAR
STARTCHAR 005B
ENCODING 91
SWIDTH 500 0
DWIDTH 4 0
BBX 4 8 0 -1
BITMAP
00
60
40
40
40
40
40
60
ENDCHAR
STARTCHAR 005C
ENCODING 92
SWIDTH 500 0
DWIDTH 4 0
BBX 4 8 0 -1
BITMAP
00
80
80
40
40
40
20
20
ENDCHAR
STARTCHAR 005D
ENCODING 93
SWIDTH 500 0
DWIDTH 4 0
BBX 4 8 0 -1
BITMAP
00
C0
40
40
40
40
40
C0
ENDCHAR
STARTCHAR 005E
ENCODING 94
SWIDTH 500 0
DWIDTH 4 0
BBX 4 8 0 -1
BITMAP
00
40
A0
00
00
00
00
00
ENDCHAR
STARTCHAR 005F
ENCODING 95
SWIDTH 500 0
DWIDTH 4 0
BBX 4 8 0 -1
BITMAP
00
00
00
00
00
00
00
E0
ENDCHAR
STARTCHAR 0060
ENCODING 96
SWIDTH 500 0
DWIDTH 4 0
BBX 4 8 0 -1
BITMAP
00
40
20
00
00
00
00
00
ENDCHAR
STARTCHAR 0061
ENCODING 97
SWIDTH 500 0
DWIDTH 4 0
BBX 4 8 0 -1
BITMAP
00
00
00
60
A0
A0
60
00
ENDCHAR
STARTCHAR 0062
ENCODING 98
SWIDTH 500 0
DWIDTH 4 0
BBX 4 8 0 -1
BITMAP
00
80
80
C0
A0
A0
C0
00
ENDCHAR
STARTCHAR 0063
ENCODING 99
SWIDTH 500 0
DWIDTH 4 0
BBX 4 8 0 -1
BITMAP
00
00
00
60
80
80
60
00
ENDCHAR
STARTCHAR 0064
ENCODING 100
SWIDTH 500 0
DWIDTH 4 0
BBX 4 8 0 -1
BITMAP
00
20
20
60
A0
A0
60
00
ENDCHAR
STARTCHAR 0065
ENCODING 101
SWIDTH 500 0
DWIDTH 4 0
BBX 4 8 0 -1
BITMAP
00
00
00
60
A0
C0
60
00
ENDCHAR
STARTCHAR 0066
ENCODING 102
SWIDTH 500 0
DWIDTH 4 0
BBX 4 8 0 -1
BITMAP
00
20
40
E0
40
40
40
00
ENDCHAR
STARTCHAR 0067
ENCODING 103
SWIDTH 500 0
DWIDTH 4 0
BBX 4 8 0 -1
BITMAP
00
00
00
60
A0
60
20
C0
ENDCHAR
STARTCHAR 0068
ENCODING 104
SWIDTH 500 0
DWIDTH 4 0
BBX 4 8 0 -1
BITMAP
00
80
80
C0
A0
A0
A0
00
ENDCHAR
STARTCHAR 0069
ENCODING 105
SWIDTH 500 0
DWIDTH 4 0
BBX 4 8 0 -1
BITMAP
00
40
00
C0
40
40
E0
00
ENDCHAR
STARTCHAR 006A
ENCODING 106
SWIDTH 500 0
DWIDTH 4 0
BBX 4 8 0 -1
BITMAP
00
20
00
E0
20
20
20
C0
ENDCHAR
STARTCHAR 006B
ENCODING 107
SWIDTH 500 0
DWIDTH 4 0
BBX 4 8 0 -1
BITMAP
00
80
80
A0
C0
A0
A0
00
ENDCHAR
STARTCHAR 006C
ENCODING 108
SWIDTH 500 0
DWIDTH 4 0
BBX 4 8 0 -1
BITMAP
00
C0
40
40
40
40
60
00
ENDCHAR
STARTCHAR 006D
ENCODING 109
SWIDTH 500 0
DWIDTH 4 0
BBX 4 8 0 -1
BITMAP
00
00
00
C0
E0
E0
A0
00
ENDCHAR
STARTCHAR 006E
ENCODING 110
SWIDTH 500 0
DWIDTH 4 0
BBX 4 8 0 -1
BITMAP
00
00
00
C0
A0
A0
A0
00
ENDCHAR
STARTCHAR 006F
ENCODING 111
SWIDTH 500 0
DWIDTH 4 0
BBX 4 8 0 -1
BITMAP
00
00
00
40
A0
A0
40
00
ENDCHAR
STARTCHAR 0070
ENCODING 112
SWIDTH 500 0
DWIDTH 4 0
BBX 4 8 0 -1
BITMAP
00
00
00
C0
A0
A0
C0
80
ENDCHAR
STARTCHAR 0071
ENCODING 113
SWIDTH 500 0
DWIDTH 4 0
BBX 4 8 0 -1
BITMAP
00
00
00
60
A0
A0
60
20
ENDCHAR
STARTCHAR 0072
ENCODING 114
SWIDTH 500 0
DWIDTH 4 0
BBX 4 8 0 -1
BITMAP
00
00
00
A0
C0
80
80
00
ENDCHAR
STARTCHAR 0073
ENCODING 115
SWIDTH 500 0
DWIDTH 4 0
BBX 4 8 0 -1
BITMAP
00
00
00
60
C0
60
C0
00
ENDCHAR
STARTCHAR 0074
ENCODING 116
SWIDTH 500 0
DWIDTH 4 0
BBX 4 8 0 -1
BITMAP
00
00
40
E0
40
40
20
00
ENDCHAR
STARTCHAR 0075
ENCODING 117
SWIDTH 500 0
DWIDTH 4 0
BBX 4 8 0 -1
BITMAP
00
00
00
A0
A0
A0
60
00
ENDCHAR
STARTCHAR 0076
ENCODING 118
SWIDTH 500 0
DWIDTH 4 0
BBX 4 8 0 -1
BITMAP
00
00
00
A0
A0
C0
80
00
ENDCHAR
STARTCHAR 0077
ENCODING 119
SWIDTH 500 0
DWIDTH 4 0
BBX 4 8 0 -1
BITMAP
00
00
00
A0
A0
E0
E0
00
ENDCHAR
STARTCHAR 0078
ENCODING 120
SWIDTH 500 0
DWIDTH 4 0
BBX 4 8 0 -1
BITMAP
00
00
00
A0
40
A0
A0
00
ENDCHAR
STARTCHAR 0079
ENCODING 121
SWIDTH 500 0
DWIDTH 4 0
BBX 4 8 0 -1
BITMAP
00
00
00
A0
A0
60
20
C0
ENDCHAR
STARTCHAR 007A
ENCODING 122
SWIDTH 500 0
DWIDTH 4 0
BBX 4 8 0 -1
BITMAP
00
00
00
E0
40
80
E0
00
ENDCHAR
STARTCHAR 007B
ENCODING 123
SWIDTH 500 0
DWIDTH 4 0
BBX 4 8 0 -1
BITMAP
00
20
40
40
80
40
40
20
ENDCHAR
STARTCHAR 007C
ENCODING 124
SWIDTH 500 0
DWIDTH 4 0
BBX 4 8 0 -1
BITMAP
00
40
40
40
40
40
40
40
ENDCHAR
STARTCHAR 007D
ENCODING 125
SWIDTH 500 0
DWIDTH 4 0
BBX 4 8 0 -1
BITMAP
00
80
40
40
20
40
40
80
ENDCHAR
STARTCHAR 007E
ENCODING 126
SWIDTH 500 0
DWIDTH 4 0
BBX 4 8 0 -1
BITMAP
00
00
00
C0
60
00
00
00
ENDCHAR
STARTCHAR 00A1
ENCODING 161
SWIDTH 500 0
DWIDTH 4 0
BBX 4 8 0 -1
BITMAP
00
00
40
00
40
40
40
40
ENDCHAR
STARTCHAR 00A2
ENCODING 162
SWIDTH 750 0
DWIDTH 6 0
BBX 6 8 0 -1
BITMAP
00
20
70
A8
A0
A8
70
20
ENDCHAR
STARTCHAR 00A3
ENCODING 163
SWIDTH 500 0
DWIDTH 4 0
BBX 4 8 0 -1
BITMAP
00
60
40
E0
40
C0
E0
00
ENDCHAR
STARTCHAR 00A4
ENCODING 164
SWIDTH 1000 0
DWIDTH 8 0
BBX 8 8 0 -1
BITMAP
00
00
44
38
28
38
44
00
ENDCHAR
STARTCHAR 00A5
ENCODING 165
SWIDTH 500 0
DWIDTH 4 0
BBX 4 8 0 -1
BITMAP
00
00
A0
A0
40
E0
40
00
ENDCHAR
STARTCHAR 00A6
ENCODING 166
SWIDTH 500 0
DWIDTH 4 0
BBX 4 8 0 -1
BITMAP
00
40
40
40
00
40
40
40
ENDCHAR
STARTCHAR 00A7
ENCODING 167
SWIDTH 750 0
DWIDTH 6 0
BBX 6 8 0 -1
BITMAP
00
38
40
30
48
30
08
70
ENDCHAR
STARTCHAR 00A8
ENCODING 168
SWIDTH 1000 0
DWIDTH 8 0
BBX 8 8 0 -1
BITMAP
00
28
00
00
00
00
00
00
ENDCHAR
STARTCHAR 00A9
ENCODING 169
SWIDTH 1000 0
DWIDTH 8 0
BBX 8 8 0 -1
BITMAP
00
38
44
9A
A2
9A
44
38
ENDCHAR
STARTCHAR 00AA
ENCODING 170
SWIDTH 500 0
DWIDTH 4 0
BBX 4 8 0 -1
BITMAP
00
60
A0
60
00
E0
00
00
ENDCHAR
STARTCHAR 00AB
ENCODING 171
SWIDTH 500 0
DWIDTH 4 0
BBX 4 8 0 -1
BITMAP
00
00
20
60
C0
60
20
00
ENDCHAR
STARTCHAR 00AC
ENCODING 172
SWIDTH 500 0
DWIDTH 4 0
BBX 4 8 0 -1
BITMAP
00
00
00
00
E0
20
00
00
ENDCHAR
STARTCHAR 00AE
ENCODING 174
SWIDTH 500 0
DWIDTH 4 0
BBX 4 8 0 -1
BITMAP
00
00
C0
A0
C0
A0
00
00
ENDCHAR
STARTCHAR 00AF
ENCODING 175
SWIDTH 500 0
DWIDTH 4 0
BBX 4 8 0 -1
BITMAP
00
00
E0
00
00
00
00
00
ENDCHAR
STARTCHAR 00B0
ENCODING 176
SWIDTH 500 0
DWIDTH 4 0
BBX 4 8 0 -1
BITMAP
00
40
A0
40
00
00
00
00
ENDCHAR
STARTCHAR 00B1
ENCODING 177
SWIDTH 1000 0
DWIDTH 8 0
BBX 8 8 0 -1
BITMAP
00
10
10
FE
10
10
00
FE
ENDCHAR
STARTCHAR 00B4
ENCODING 180
SWIDTH 1000 0
DWIDTH 8 0
BBX 8 8 0 -1
BITMAP
00
08
10
00
00
00
00
00
ENDCHAR
STARTCHAR 00B6
ENCODING 182
SWIDTH 1000 0
DWIDTH 8 0
BBX 8 8 0 -1
BITMAP
00
3C
74
74
34
14
14
14
ENDCHAR
STARTCHAR 00B7
ENCODING 183
SWIDTH 1000 0
DWIDTH 8 0
BBX 8 8 0 -1
BITMAP
00
00
00
00
10
00
00
00
ENDCHAR
STARTCHAR 00B8
ENCODING 184
SWIDTH 500 0
DWIDTH 4 0
BBX 4 8 0 -1
BITMAP
00
00
00
00
00
00
40
C0
ENDCHAR
STARTCHAR 00BA
ENCODING 186
SWIDTH 500 0
DWIDTH 4 0
BBX 4 8 0 -1
BITMAP
00
40
A0
40
00
E0
00
00
ENDCHAR
STARTCHAR 00BB
ENCODING 187
SWIDTH 500 0
DWIDTH 4 0
BBX 4 8 0 -1
BITMAP
00
00
80
C0
60
C0
80
00
ENDCHAR
STARTCHAR 00BC
ENCODING 188
SWIDTH 500 0
DWIDTH 4 0
BBX 4 8 0 -1
BITMAP
00
80
80
80
20
60
E0
20
ENDCHAR
STARTCHAR 00BD
ENCODING 189
SWIDTH 500 0
DWIDTH 4 0
BBX 4 8 0 -1
BITMAP
00
80
80
00
60
20
40
60
ENDCHAR
STARTCHAR 00BE
ENCODING 190
SWIDTH 500 0
DWIDTH 4 0
BBX 4 8 0 -1
BITMAP
00
C0
40
C0
20
60
E0
20
ENDCHAR
STARTCHAR 00BF
ENCODING 191
SWIDTH 500 0
DWIDTH 4 0
BBX 4 8 0 -1
BITMAP
00
00
40
00
40
80
A0
40
ENDCHAR
STARTCHAR 00C0
ENCODING 192
SWIDTH 625 0
DWIDTH 5 0
BBX 5 8 0 -1
BITMAP
00
40
20
20
50
F0
90
00
ENDCHAR
STARTCHAR 00C1
ENCODING 193
SWIDTH 625 0
DWIDTH 5 0
BBX 5 8 0 -1
BITMAP
00
20
40
20
50
F0
90
00
ENDCHAR
STARTCHAR 00C2
ENCODING 194
SWIDTH 625 0
DWIDTH 5 0
BBX 5 8 0 -1
BITMAP
00
20
50
20
50
F0
90
00
ENDCHAR
STARTCHAR 00C3
ENCODING 195
SWIDTH 625 0
DWIDTH 5 0
BBX 5 8 0 -1
BITMAP
00
50
A0
20
50
F0
90
00
ENDCHAR
STARTCHAR 00C4
ENCODING 196
SWIDTH 625 0
DWIDTH 5 0
BBX 5 8 0 -1
BITMAP
00
50
00
20
50
F0
90
00
ENDCHAR
STARTCHAR 00C5
ENCODING 197
SWIDTH 625 0
DWIDTH 5 0
BBX 5 8 0 -1
BITMAP
00
70
50
20
50
F0
90
00
ENDCHAR
STARTCHAR 00C6
ENCODING 198
SWIDTH 875 0
DWIDTH 7 0
BBX 7 8 0 -1
BITMAP
00
00
3C
50
9C
F0
9C
00
ENDCHAR
STARTCHAR 00C7
ENCODING 199
SWIDTH 625 0
DWIDTH 5 0
BBX 5 8 0 -1
BITMAP
00
00
60
90
80
90
60
20
ENDCHAR
STARTCHAR 00C8
ENCODING 200
SWIDTH 500 0
DWIDTH 4 0
BBX 4 8 0 -1
BITMAP
00
80
40
60
A0
C0
60
00
ENDCHAR
STARTCHAR 00C9
ENCODING 201
SWIDTH 500 0
DWIDTH 4 0
BBX 4 8 0 -1
BITMAP
00
20
40
60
A0
C0
60
00
ENDCHAR
STARTCHAR 00CA
ENCODING 202
SWIDTH 500 0
DWIDTH 4 0
BBX 4 8 0 -1
BITMAP
00
40
A0
60
A0
C0
60
00
ENDCHAR
STARTCHAR 00CB
ENCODING 203
SWIDTH 500 0
DWIDTH 4 0
BBX 4 8 0 -1
BITMAP
00
A0
00
60
A0
C0
60
00
ENDCHAR
STARTCHAR 00CC
ENCODING 204
SWIDTH 250 0
DWIDTH 2 0
BBX 2 8 0 -1
BITMAP
00
00
80
00
80
80
80
00
ENDCHAR
STARTCHAR 00CD
ENCODING 205
SWIDTH 250 0
DWIDTH 2 0
BBX 2 8 0 -1
BITMAP
00
40
80
00
80
80
80
00
ENDCHAR
STARTCHAR 00CE
ENCODING 206
SWIDTH 250 0
DWIDTH 2 0
BBX 2 8 0 -1
BITMAP
00
80
40
00
80
80
80
00
ENDCHAR
STARTCHAR 00CF
ENCODING 207
SWIDTH 250 0
DWIDTH 2 0
BBX 2 8 0 -1
BITMAP
00
00
40
00
80
80
80
00
ENDCHAR
STARTCHAR 00D0
ENCODING 208
SWIDTH 750 0
DWIDTH 6 0
BBX 6 8 0 -1
BITMAP
00
00
70
48
E8
50
60
00
ENDCHAR
STARTCHAR 00D1
ENCODING 209
SWIDTH 625 0
DWIDTH 5 0
BBX 5 8 0 -1
BITMAP
00
50
A0
00
D0
B0
90
00
ENDCHAR
STARTCHAR 00D2
ENCODING 210
SWIDTH 500 0
DWIDTH 4 0
BBX 4 8 0 -1
BITMAP
00
40
20
40
A0
A0
40
00
ENDCHAR
STARTCHAR 00D3
ENCODING 211
SWIDTH 500 0
DWIDTH 4 0
BBX 4 8 0 -1
BITMAP
00
20
40
40
A0
A0
40
00
ENDCHAR
STARTCHAR 00D4
ENCODING 212
SWIDTH 500 0
DWIDTH 4 0
BBX 4 8 0 -1
BITMAP
00
40
A0
40
A0
A0
40
00
ENDCHAR
STARTCHAR 00D5
ENCODING 213
SWIDTH 500 0
DWIDTH 4 0
BBX 4 8 0 -1
BITMAP
00
50
A0
40
A0
A0
40
00
ENDCHAR
STARTCHAR 00D6
ENCODING 214
SWIDTH 500 0
DWIDTH 4 0
BBX 4 8 0 -1
BITMAP
00
A0
00
40
A0
A0
40
00
ENDCHAR
STARTCHAR 00D7
ENCODING 215
SWIDTH 1000 0
DWIDTH 8 0
BBX 8 8 0 -1
BITMAP
00
82
44
28
10
28
44
82
ENDCHAR
STARTCHAR 00D8
ENCODING 216
SWIDTH 500 0
DWIDTH 4 0
BBX 4 8 0 -1
BITMAP
00
20
C0
A0
A0
60
80
00
ENDCHAR
STARTCHAR 00D9
ENCODING 217
SWIDTH 500 0
DWIDTH 4 0
BBX 4 8 0 -1
BITMAP
00
80
40
00
A0
A0
60
00
ENDCHAR
STARTCHAR 00DA
ENCODING 218
SWIDTH 500 0
DWIDTH 4 0
BBX 4 8 0 -1
BITMAP
00
20
40
00
A0
A0
60
00
ENDCHAR
STARTCHAR 00DB
ENCODING 219
SWIDTH 500 0
DWIDTH 4 0
BBX 4 8 0 -1
BITMAP
00
40
A0
00
A0
A0
60
00
ENDCHAR
STARTCHAR 00DC
ENCODING 220
SWIDTH 500 0
DWIDTH 4 0
BBX 4 8 0 -1
BITMAP
00
00
A0
00
A0
A0
60
00
ENDCHAR
STARTCHAR 00DD
ENCODING 221
SWIDTH 500 0
DWIDTH 4 0
BBX 4 8 0 -1
BITMAP
00
20
40
00
A0
A0
60
C0
ENDCHAR
STARTCHAR 00DE
ENCODING 222
SWIDTH 500 0
DWIDTH 4 0
BBX 4 8 0 -1
BITMAP
00
00
80
C0
A0
C0
80
00
ENDCHAR
STARTCHAR 00DF
ENCODING 223
SWIDTH 500 0
DWIDTH 4 0
BBX 4 8 0 -1
BITMAP
00
40
A0
C0
A0
A0
C0
00
ENDCHAR
STARTCHAR 00E0
ENCODING 224
SWIDTH 500 0
DWIDTH 4 0
BBX 4 8 0 -1
BITMAP
00
40
20
00
60
A0
60
00
ENDCHAR
STARTCHAR 00E1
ENCODING 225
SWIDTH 500 0
DWIDTH 4 0
BBX 4 8 0 -1
BITMAP
00
20
40
00
60
A0
60
00
ENDCHAR
STARTCHAR 00E2
ENCODING 226
SWIDTH 500 0
DWIDTH 4 0
BBX 4 8 0 -1
BITMAP
00
40
A0
00
60
A0
60
00
ENDCHAR
STARTCHAR 00E3
ENCODING 227
SWIDTH 500 0
DWIDTH 4 0
BBX 4 8 0 -1
BITMAP
00
C0
60
00
60
A0
60
00
ENDCHAR
STARTCHAR 00E4
ENCODING 228
SWIDTH 500 0
DWIDTH 4 0
BBX 4 8 0 -1
BITMAP
00
00
A0
00
60
A0
60
00
ENDCHAR
STARTCHAR 00E5
ENCODING 229
SWIDTH 500 0
DWIDTH 4 0
BBX 4 8 0 -1
BITMAP
00
40
A0
40
60
A0
60
00
ENDCHAR
STARTCHAR 00E6
ENCODING 230
SWIDTH 875 0
DWIDTH 7 0
BBX 7 8 0 -1
BITMAP
00
00
00
6C
B4
B8
6C
00
ENDCHAR
STARTCHAR 00E7
ENCODING 231
SWIDTH 500 0
DWIDTH 4 0
BBX 4 8 0 -1
BITMAP
00
00
00
60
80
80
60
C0
ENDCHAR
STARTCHAR 00E8
ENCODING 232
SWIDTH 500 0
DWIDTH 4 0
BBX 4 8 0 -1
BITMAP
00
40
20
40
A0
C0
60
00
ENDCHAR
STARTCHAR 00E9
ENCODING 233
SWIDTH 500 0
DWIDTH 4 0
BBX 4 8 0 -1
BITMAP
00
20
40
40
A0
C0
60
00
ENDCHAR
STARTCHAR 00EA
ENCODING 234
SWIDTH 500 0
DWIDTH 4 0
BBX 4 8 0 -1
BITMAP
00
40
A0
40
A0
C0
60
00
ENDCHAR
STARTCHAR 00EB
ENCODING 235
SWIDTH 500 0
DWIDTH 4 0
BBX 4 8 0 -1
BITMAP
00
A0
00
60
A0
C0
60
00
ENDCHAR
STARTCHAR 00EC
ENCODING 236
SWIDTH 250 0
DWIDTH 2 0
BBX 2 8 0 -1
BITMAP
00
00
80
00
80
80
80
00
ENDCHAR
STARTCHAR 00ED
ENCODING 237
SWIDTH 250 0
DWIDTH 2 0
BBX 2 8 0 -1
BITMAP
00
40
80
00
80
80
80
00
ENDCHAR
STARTCHAR 00EE
ENCODING 238
SWIDTH 250 0
DWIDTH 2 0
BBX 2 8 0 -1
BITMAP
00
80
40
00
80
80
80
00
ENDCHAR
STARTCHAR 00EF
ENCODING 239
SWIDTH 250 0
DWIDTH 2 0
BBX 2 8 0 -1
BITMAP
00
00
40
00
80
80
80
00
ENDCHAR
STARTCHAR 00F0
ENCODING 240
SWIDTH 500 0
DWIDTH 4 0
BBX 4 8 0 -1
BITMAP
00
A0
40
A0
60
A0
C0
00
ENDCHAR
STARTCHAR 00F1
ENCODING 241
SWIDTH 500 0
DWIDTH 4 0
BBX 4 8 0 -1
BITMAP
00
50
A0
00
C0
A0
A0
00
ENDCHAR
STARTCHAR 00F2
ENCODING 242
SWIDTH 500 0
DWIDTH 4 0
BBX 4 8 0 -1
BITMAP
00
80
40
00
60
A0
C0
00
ENDCHAR
STARTCHAR 00F3
ENCODING 243
SWIDTH 500 0
DWIDTH 4 0
BBX 4 8 0 -1
BITMAP
00
20
40
00
60
A0
C0
00
ENDCHAR
STARTCHAR 00F4
ENCODING 244
SWIDTH 500 0
DWIDTH 4 0
BBX 4 8 0 -1
BITMAP
00
40
A0
00
60
A0
C0
00
ENDCHAR
STARTCHAR 00F5
ENCODING 245
SWIDTH 500 0
DWIDTH 4 0
BBX 4 8 0 -1
BITMAP
00
50
A0
00
60
A0
C0
00
ENDCHAR
STARTCHAR 00F6
ENCODING 246
SWIDTH 500 0
DWIDTH 4 0
BBX 4 8 0 -1
BITMAP
00
00
A0
00
60
A0
C0
00
ENDCHAR
STARTCHAR 00F7
ENCODING 247
SWIDTH 750 0
DWIDTH 6 0
BBX 6 8 0 -1
BITMAP
00
00
20
00
F8
00
20
00
ENDCHAR
STARTCHAR 00F8
ENCODING 248
SWIDTH 500 0
DWIDTH 4 0
BBX 4 8 0 -1
BITMAP
00
00
20
40
A0
A0
40
80
ENDCHAR
STARTCHAR 00F9
ENCODING 249
SWIDTH 500 0
DWIDTH 4 0
BBX 4 8 0 -1
BITMAP
00
80
40
00
A0
A0
60
00
ENDCHAR
STARTCHAR 00FA
ENCODING 250
SWIDTH 500 0
DWIDTH 4 0
BBX 4 8 0 -1
BITMAP
00
20
40
00
A0
A0
60
00
ENDCHAR
STARTCHAR 00FB
ENCODING 251
SWIDTH 500 0
DWIDTH 4 0
BBX 4 8 0 -1
BITMAP
00
40
A0
00
A0
A0
60
00
ENDCHAR
STARTCHAR 00FC
ENCODING 252
SWIDTH 500 0
DWIDTH 4 0
BBX 4 8 0 -1
BITMAP
00
00
A0
00
A0
A0
60
00
ENDCHAR
STARTCHAR 00FD
ENCODING 253
SWIDTH 500 0
DWIDTH 4 0
BBX 4 8 0 -1
BITMAP
00
20
40
00
A0
60
20
C0
ENDCHAR
STARTCHAR 00FE
ENCODING 254
SWIDTH 500 0
DWIDTH 4 0
BBX 4 8 0 -1
BITMAP
00
80
80
C0
A0
C0
80
80
ENDCHAR
STARTCHAR 00FF
ENCODING 255
SWIDTH 500 0
DWIDTH 4 0
BBX 4 8 0 -1
BITMAP
00
00
A0
00
A0
60
20
C0
ENDCHAR
STARTCHAR 0100
ENCODING 256
SWIDTH 500 0
DWIDTH 4 0
BBX 4 8 0 -1
BITMAP
00
00
E0
00
60
A0
60
00
ENDCHAR
STARTCHAR 0101
ENCODING 257
SWIDTH 500 0
DWIDTH 4 0
BBX 4 8 0 -1
BITMAP
00
E0
00
60
A0
A0
60
00
ENDCHAR
STARTCHAR 0102
ENCODING 258
SWIDTH 625 0
DWIDTH 5 0
BBX 5 8 0 -1
BITMAP
00
50
20
20
50
F0
90
00
ENDCHAR
STARTCHAR 0103
ENCODING 259
SWIDTH 500 0
DWIDTH 4 0
BBX 4 8 0 -1
BITMAP
00
A0
40
00
60
A0
60
00
ENDCHAR
STARTCHAR 0104
ENCODING 260
SWIDTH 625 0
DWIDTH 5 0
BBX 5 8 0 -1
BITMAP
00
00
20
50
90
F0
90
40
ENDCHAR
STARTCHAR 0105
ENCODING 261
SWIDTH 500 0
DWIDTH 4 0
BBX 4 8 0 -1
BITMAP
00
00
00
60
A0
A0
60
40
ENDCHAR
STARTCHAR 0106
ENCODING 262
SWIDTH 625 0
DWIDTH 5 0
BBX 5 8 0 -1
BITMAP
00
20
40
60
90
80
60
00
ENDCHAR
STARTCHAR 0107
ENCODING 263
SWIDTH 500 0
DWIDTH 4 0
BBX 4 8 0 -1
BITMAP
00
20
40
60
80
80
60
00
ENDCHAR
STARTCHAR 0108
ENCODING 264
SWIDTH 625 0
DWIDTH 5 0
BBX 5 8 0 -1
BITMAP
00
40
A0
60
90
80
60
00
ENDCHAR
STARTCHAR 0109
ENCODING 265
SWIDTH 500 0
DWIDTH 4 0
BBX 4 8 0 -1
BITMAP
00
40
A0
60
80
80
60
00
ENDCHAR
STARTCHAR 010A
ENCODING 266
SWIDTH 625 0
DWIDTH 5 0
BBX 5 8 0 -1
BITMAP
00
00
60
90
80
90
60
00
ENDCHAR
STARTCHAR 010B
ENCODING 267
SWIDTH 500 0
DWIDTH 4 0
BBX 4 8 0 -1
BITMAP
00
00
40
60
80
80
60
00
ENDCHAR
STARTCHAR 010C
ENCODING 268
SWIDTH 625 0
DWIDTH 5 0
BBX 5 8 0 -1
BITMAP
00
A0
40
60
90
80
60
00
ENDCHAR
STARTCHAR 010D
ENCODING 269
SWIDTH 500 0
DWIDTH 4 0
BBX 4 8 0 -1
BITMAP
00
50
20
00
60
80
60
00
ENDCHAR
STARTCHAR 010E
ENCODING 270
SWIDTH 625 0
DWIDTH 5 0
BBX 5 8 0 -1
BITMAP
00
A0
40
E0
90
90
E0
00
ENDCHAR
STARTCHAR 010F
ENCODING 271
SWIDTH 500 0
DWIDTH 4 0
BBX 4 8 0 -1
BITMAP
00
A0
60
60
A0
A0
60
00
ENDCHAR
STARTCHAR 0110
ENCODING 272
SWIDTH 625 0
DWIDTH 5 0
BBX 5 8 0 -1
BITMAP
00
00
E0
90
D0
A0
C0
00
ENDCHAR
STARTCHAR 0111
ENCODING 273
SWIDTH 625 0
DWIDTH 5 0
BBX 5 8 0 -1
BITMAP
00
00
70
20
60
A0
60
00
ENDCHAR
STARTCHAR 0112
ENCODING 274
SWIDTH 500 0
DWIDTH 4 0
BBX 4 8 0 -1
BITMAP
00
E0
00
60
A0
C0
60
00
ENDCHAR
STARTCHAR 0113
ENCODING 275
SWIDTH 500 0
DWIDTH 4 0
BBX 4 8 0 -1
BITMAP
00
E0
00
60
A0
C0
60
00
ENDCHAR
STARTCHAR 0116
ENCODING 278
SWIDTH 500 0
DWIDTH 4 0
BBX 4 8 0 -1
BITMAP
00
00
E0
80
E0
80
E0
00
ENDCHAR
STARTCHAR 0117
ENCODING 279
SWIDTH 500 0
DWIDTH 4 0
BBX 4 8 0 -1
BITMAP
00
00
40
60
A0
C0
60
00
ENDCHAR
STARTCHAR 0118
ENCODING 280
SWIDTH 500 0
DWIDTH 4 0
BBX 4 8 0 -1
BITMAP
00
00
E0
80
E0
80
E0
40
ENDCHAR
STARTCHAR 0119
ENCODING 281
SWIDTH 500 0
DWIDTH 4 0
BBX 4 8 0 -1
BITMAP
00
00
00
60
A0
C0
60
40
ENDCHAR
STARTCHAR 011A
ENCODING 282
SWIDTH 500 0
DWIDTH 4 0
BBX 4 8 0 -1
BITMAP
00
A0
40
60
A0
C0
60
00
ENDCHAR
STARTCHAR 011B
ENCODING 283
SWIDTH 500 0
DWIDTH 4 0
BBX 4 8 0 -1
BITMAP
00
A0
40
60
E0
80
60
00
ENDCHAR
STARTCHAR 011C
ENCODING 284
SWIDTH 625 0
DWIDTH 5 0
BBX 5 8 0 -1
BITMAP
00
40
F0
80
B0
90
60
00
ENDCHAR
STARTCHAR 011D
ENCODING 285
SWIDTH 500 0
DWIDTH 4 0
BBX 4 8 0 -1
BITMAP
00
40
A0
60
A0
E0
20
C0
ENDCHAR
STARTCHAR 011E
ENCODING 286
SWIDTH 625 0
DWIDTH 5 0
BBX 5 8 0 -1
BITMAP
00
A0
70
80
B0
90
60
00
ENDCHAR
STARTCHAR 011F
ENCODING 287
SWIDTH 500 0
DWIDTH 4 0
BBX 4 8 0 -1
BITMAP
00
A0
40
60
A0
E0
20
C0
ENDCHAR
STARTCHAR 0120
ENCODING 288
SWIDTH 625 0
DWIDTH 5 0
BBX 5 8 0 -1
BITMAP
00
00
70
80
B0
90
60
00
ENDCHAR
STARTCHAR 0121
ENCODING 289
SWIDTH 500 0
DWIDTH 4 0
BBX 4 8 0 -1
BITMAP
00
00
40
60
A0
E0
20
C0
ENDCHAR
STARTCHAR 0122
ENCODING 290
SWIDTH 625 0
DWIDTH 5 0
BBX 5 8 0 -1
BITMAP
00
00
70
80
B0
90
60
40
ENDCHAR
STARTCHAR 0123
ENCODING 291
SWIDTH 500 0
DWIDTH 4 0
BBX 4 8 0 -1
BITMAP
00
80
C0
60
A0
E0
20
C0
ENDCHAR
STARTCHAR 0124
ENCODING 292
SWIDTH 625 0
DWIDTH 5 0
BBX 5 8 0 -1
BITMAP
00
40
B0
90
F0
90
90
00
ENDCHAR
STARTCHAR 0125
ENCODING 293
SWIDTH 500 0
DWIDTH 4 0
BBX 4 8 0 -1
BITMAP
00
C0
A0
C0
A0
A0
A0
00
ENDCHAR
STARTCHAR 0126
ENCODING 294
SWIDTH 625 0
DWIDTH 5 0
BBX 5 8 0 -1
BITMAP
00
00
50
F8
50
70
50
00
ENDCHAR
STARTCHAR 0127
ENCODING 295
SWIDTH 625 0
DWIDTH 5 0
BBX 5 8 0 -1
BITMAP
00
40
E0
40
60
50
50
00
ENDCHAR
STARTCHAR 0128
ENCODING 296
SWIDTH 250 0
DWIDTH 2 0
BBX 2 8 0 -1
BITMAP
00
80
40
00
80
80
80
00
ENDCHAR
STARTCHAR 0129
ENCODING 297
SWIDTH 500 0
DWIDTH 4 0
BBX 4 8 0 -1
BITMAP
00
A0
40
00
00
00
00
00
ENDCHAR
STARTCHAR 012A
ENCODING 298
SWIDTH 125 0
DWIDTH 1 0
BBX 1 8 0 -1
BITMAP
00
00
80
00
80
80
80
00
ENDCHAR
STARTCHAR 012B
ENCODING 299
SWIDTH 500 0
DWIDTH 4 0
BBX 4 8 0 -1
BITMAP
00
E0
00
40
40
40
40
00
ENDCHAR
STARTCHAR 012E
ENCODING 302
SWIDTH 250 0
DWIDTH 2 0
BBX 2 8 0 -1
BITMAP
00
00
80
80
80
80
80
80
ENDCHAR
STARTCHAR 012F
ENCODING 303
SWIDTH 625 0
DWIDTH 5 0
BBX 5 8 0 -1
BITMAP
00
00
40
80
80
80
80
40
ENDCHAR
STARTCHAR 0130
ENCODING 304
SWIDTH 250 0
DWIDTH 2 0
BBX 2 8 0 -1
BITMAP
00
00
80
00
80
80
80
00
ENDCHAR
STARTCHAR 0131
ENCODING 305
SWIDTH 250 0
DWIDTH 2 0
BBX 2 8 0 -1
BITMAP
00
00
00
80
80
80
80
00
ENDCHAR
STARTCHAR 0132
ENCODING 306
SWIDTH 500 0
DWIDTH 4 0
BBX 4 8 0 -1
BITMAP
00
00
B0
A0
A0
A0
40
00
ENDCHAR
STARTCHAR 0133
ENCODING 307
SWIDTH 500 0
DWIDTH 4 0
BBX 4 8 0 -1
BITMAP
00
A0
00
A0
A0
A0
20
40
ENDCHAR
STARTCHAR 0134
ENCODING 308
SWIDTH 375 0
DWIDTH 3 0
BBX 3 8 0 -1
BITMAP
00
40
A0
00
40
40
40
80
ENDCHAR
STARTCHAR 0135
ENCODING 309
SWIDTH 625 0
DWIDTH 5 0
BBX 5 8 0 -1
BITMAP
00
40
A0
20
20
20
A0
40
ENDCHAR
STARTCHAR 0136
ENCODING 310
SWIDTH 625 0
DWIDTH 5 0
BBX 5 8 0 -1
BITMAP
00
00
90
A0
C0
A0
90
40
ENDCHAR
STARTCHAR 0137
ENCODING 311
SWIDTH 500 0
DWIDTH 4 0
BBX 4 8 0 -1
BITMAP
00
80
80
A0
C0
A0
A0
40
ENDCHAR
STARTCHAR 0139
ENCODING 313
SWIDTH 375 0
DWIDTH 3 0
BBX 3 8 0 -1
BITMAP
00
40
80
00
80
80
C0
00
ENDCHAR
STARTCHAR 013A
ENCODING 314
SWIDTH 250 0
DWIDTH 2 0
BBX 2 8 0 -1
BITMAP
00
40
80
00
80
80
80
00
ENDCHAR
STARTCHAR 013B
ENCODING 315
SWIDTH 500 0
DWIDTH 4 0
BBX 4 8 0 -1
BITMAP
00
00
80
80
80
80
E0
40
ENDCHAR
STARTCHAR 013C
ENCODING 316
SWIDTH 250 0
DWIDTH 2 0
BBX 2 8 0 -1
BITMAP
00
80
80
80
80
80
80
40
ENDCHAR
STARTCHAR 013D
ENCODING 317
SWIDTH 375 0
DWIDTH 3 0
BBX 3 8 0 -1
BITMAP
00
40
80
00
80
80
C0
00
ENDCHAR
STARTCHAR 013E
ENCODING 318
SWIDTH 250 0
DWIDTH 2 0
BBX 2 8 0 -1
BITMAP
00
40
80
00
80
80
80
00
ENDCHAR
STARTCHAR 0141
ENCODING 321
SWIDTH 500 0
DWIDTH 4 0
BBX 4 8 0 -1
BITMAP
00
00
80
A0
C0
80
E0
00
ENDCHAR
STARTCHAR 0142
ENCODING 322
SWIDTH 625 0
DWIDTH 5 0
BBX 5 8 0 -1
BITMAP
00
00
40
60
C0
40
40
00
ENDCHAR
STARTCHAR 0143
ENCODING 323
SWIDTH 625 0
DWIDTH 5 0
BBX 5 8 0 -1
BITMAP
00
20
40
00
D0
B0
90
00
ENDCHAR
STARTCHAR 0144
ENCODING 324
SWIDTH 500 0
DWIDTH 4 0
BBX 4 8 0 -1
BITMAP
00
40
80
00
C0
A0
A0
00
ENDCHAR
STARTCHAR 0145
ENCODING 325
SWIDTH 625 0
DWIDTH 5 0
BBX 5 8 0 -1
BITMAP
00
00
90
D0
B0
90
90
40
ENDCHAR
STARTCHAR 0146
ENCODING 326
SWIDTH 500 0
DWIDTH 4 0
BBX 4 8 0 -1
BITMAP
00
00
00
C0
A0
A0
A0
40
ENDCHAR
STARTCHAR 0147
ENCODING 327
SWIDTH 625 0
DWIDTH 5 0
BBX 5 8 0 -1
BITMAP
00
A0
40
00
D0
B0
90
00
ENDCHAR
STARTCHAR 0148
ENCODING 328
SWIDTH 500 0
DWIDTH 4 0
BBX 4 8 0 -1
BITMAP
00
A0
40
00
C0
A0
A0
00
ENDCHAR
STARTCHAR 014A
ENCODING 330
SWIDTH 625 0
DWIDTH 5 0
BBX 5 8 0 -1
BITMAP
00
00
90
D0
B0
90
90
10
ENDCHAR
STARTCHAR 014B
ENCODING 331
SWIDTH 500 0
DWIDTH 4 0
BBX 4 8 0 -1
BITMAP
00
00
00
00
C0
A0
A0
20
ENDCHAR
STARTCHAR 014C
ENCODING 332
SWIDTH 500 0
DWIDTH 4 0
BBX 4 8 0 -1
BITMAP
00
E0
00
40
A0
A0
40
00
ENDCHAR
STARTCHAR 014D
ENCODING 333
SWIDTH 500 0
DWIDTH 4 0
BBX 4 8 0 -1
BITMAP
00
00
E0
00
60
A0
C0
00
ENDCHAR
STARTCHAR 0150
ENCODING 336
SWIDTH 500 0
DWIDTH 4 0
BBX 4 8 0 -1
BITMAP
00
50
A0
40
A0
A0
40
00
ENDCHAR
STARTCHAR 0151
ENCODING 337
SWIDTH 500 0
DWIDTH 4 0
BBX 4 8 0 -1
BITMAP
00
50
A0
00
60
A0
C0
00
ENDCHAR
STARTCHAR 0152
ENCODING 338
SWIDTH 750 0
DWIDTH 6 0
BBX 6 8 0 -1
BITMAP
00
00
58
A0
B8
A0
58
00
ENDCHAR
STARTCHAR 0153
ENCODING 339
SWIDTH 500 0
DWIDTH 4 0
BBX 4 8 0 -1
BITMAP
00
00
70
A0
B0
A0
70
00
ENDCHAR
STARTCHAR 0154
ENCODING 340
SWIDTH 625 0
DWIDTH 5 0
BBX 5 8 0 -1
BITMAP
00
20
40
E0
90
E0
90
00
ENDCHAR
STARTCHAR 0155
ENCODING 341
SWIDTH 250 0
DWIDTH 2 0
BBX 2 8 0 -1
BITMAP
00
40
80
40
80
80
80
00
ENDCHAR
STARTCHAR 0156
ENCODING 342
SWIDTH 625 0
DWIDTH 5 0
BBX 5 8 0 -1
BITMAP
00
00
E0
90
E0
A0
90
40
ENDCHAR
STARTCHAR 0157
ENCODING 343
SWIDTH 250 0
DWIDTH 2 0
BBX 2 8 0 -1
BITMAP
00
00
00
40
80
80
80
80
ENDCHAR
STARTCHAR 0158
ENCODING 344
SWIDTH 625 0
DWIDTH 5 0
BBX 5 8 0 -1
BITMAP
00
A0
40
E0
90
E0
90
00
ENDCHAR
STARTCHAR 0159
ENCODING 345
SWIDTH 250 0
DWIDTH 2 0
BBX 2 8 0 -1
BITMAP
00
40
80
40
80
80
80
00
ENDCHAR
STARTCHAR 015A
ENCODING 346
SWIDTH 500 0
DWIDTH 4 0
BBX 4 8 0 -1
BITMAP
00
20
40
60
C0
60
C0
00
ENDCHAR
STARTCHAR 015B
ENCODING 347
SWIDTH 500 0
DWIDTH 4 0
BBX 4 8 0 -1
BITMAP
00
20
40
60
C0
60
C0
00
ENDCHAR
STARTCHAR 015C
ENCODING 348
SWIDTH 625 0
DWIDTH 5 0
BBX 5 8 0 -1
BITMAP
00
40
A0
60
C0
60
C0
00
ENDCHAR
STARTCHAR 015D
ENCODING 349
SWIDTH 500 0
DWIDTH 4 0
BBX 4 8 0 -1
BITMAP
00
40
A0
60
C0
60
C0
00
ENDCHAR
STARTCHAR 015E
ENCODING 350
SWIDTH 625 0
DWIDTH 5 0
BBX 5 8 0 -1
BITMAP
00
00
70
80
60
10
E0
20
ENDCHAR
STARTCHAR 015F
ENCODING 351
SWIDTH 500 0
DWIDTH 4 0
BBX 4 8 0 -1
BITMAP
00
00
00
60
C0
60
C0
20
ENDCHAR
STARTCHAR 0160
ENCODING 352
SWIDTH 500 0
DWIDTH 4 0
BBX 4 8 0 -1
BITMAP
00
A0
40
60
C0
60
C0
00
ENDCHAR
STARTCHAR 0161
ENCODING 353
SWIDTH 500 0
DWIDTH 4 0
BBX 4 8 0 -1
BITMAP
00
A0
40
E0
80
40
C0
00
ENDCHAR
STARTCHAR 0162
ENCODING 354
SWIDTH 500 0
DWIDTH 4 0
BBX 4 8 0 -1
BITMAP
00
00
E0
40
40
40
40
20
ENDCHAR
STARTCHAR 0163
ENCODING 355
SWIDTH 375 0
DWIDTH 3 0
BBX 3 8 0 -1
BITMAP
00
00
80
C0
80
80
40
80
ENDCHAR
STARTCHAR 0164
ENCODING 356
SWIDTH 500 0
DWIDTH 4 0
BBX 4 8 0 -1
BITMAP
00
A0
40
00
E0
40
40
00
ENDCHAR
STARTCHAR 0165
ENCODING 357
SWIDTH 375 0
DWIDTH 3 0
BBX 3 8 0 -1
BITMAP
00
40
80
80
C0
80
40
00
ENDCHAR
STARTCHAR 0168
ENCODING 360
SWIDTH 500 0
DWIDTH 4 0
BBX 4 8 0 -1
BITMAP
00
50
A0
00
A0
A0
C0
00
ENDCHAR
STARTCHAR 0169
ENCODING 361
SWIDTH 500 0
DWIDTH 4 0
BBX 4 8 0 -1
BITMAP
00
50
A0
00
A0
A0
60
00
ENDCHAR
STARTCHAR 016A
ENCODING 362
SWIDTH 500 0
DWIDTH 4 0
BBX 4 8 0 -1
BITMAP
00
00
E0
00
A0
A0
60
00
ENDCHAR
STARTCHAR 016B
ENCODING 363
SWIDTH 500 0
DWIDTH 4 0
BBX 4 8 0 -1
BITMAP
00
00
E0
00
A0
A0
60
00
ENDCHAR
STARTCHAR 016C
ENCODING 364
SWIDTH 625 0
DWIDTH 5 0
BBX 5 8 0 -1
BITMAP
00
A0
D0
90
90
90
60
00
ENDCHAR
STARTCHAR 016D
ENCODING 365
SWIDTH 500 0
DWIDTH 4 0
BBX 4 8 0 -1
BITMAP
00
A0
40
A0
A0
A0
60
00
ENDCHAR
STARTCHAR 016E
ENCODING 366
SWIDTH 500 0
DWIDTH 4 0
BBX 4 8 0 -1
BITMAP
00
E0
A0
00
A0
A0
C0
00
ENDCHAR
STARTCHAR 016F
ENCODING 367
SWIDTH 500 0
DWIDTH 4 0
BBX 4 8 0 -1
BITMAP
00
E0
A0
00
A0
A0
60
00
ENDCHAR
STARTCHAR 0170
ENCODING 368
SWIDTH 500 0
DWIDTH 4 0
BBX 4 8 0 -1
BITMAP
00
50
A0
00
A0
A0
60
00
ENDCHAR
STARTCHAR 0171
ENCODING 369
SWIDTH 500 0
DWIDTH 4 0
BBX 4 8 0 -1
BITMAP
00
50
A0
00
A0
A0
60
00
ENDCHAR
STARTCHAR 0172
ENCODING 370
SWIDTH 625 0
DWIDTH 5 0
BBX 5 8 0 -1
BITMAP
00
00
90
90
90
90
60
40
ENDCHAR
STARTCHAR 0173
ENCODING 371
SWIDTH 500 0
DWIDTH 4 0
BBX 4 8 0 -1
BITMAP
00
00
00
A0
A0
A0
60
40
ENDCHAR
STARTCHAR 0174
ENCODING 372
SWIDTH 750 0
DWIDTH 6 0
BBX 6 8 0 -1
BITMAP
00
20
50
00
A8
A8
50
00
ENDCHAR
STARTCHAR 0175
ENCODING 373
SWIDTH 750 0
DWIDTH 6 0
BBX 6 8 0 -1
BITMAP
00
50
20
88
A8
F0
A0
00
ENDCHAR
STARTCHAR 0176
ENCODING 374
SWIDTH 500 0
DWIDTH 4 0
BBX 4 8 0 -1
BITMAP
00
A0
40
00
A0
A0
60
C0
ENDCHAR
STARTCHAR 0177
ENCODING 375
SWIDTH 500 0
DWIDTH 4 0
BBX 4 8 0 -1
BITMAP
00
A0
40
00
A0
60
20
C0
ENDCHAR
STARTCHAR 0178
ENCODING 376
SWIDTH 500 0
DWIDTH 4 0
BBX 4 8 0 -1
BITMAP
00
00
A0
00
A0
A0
60
C0
ENDCHAR
STARTCHAR 0179
ENCODING 377
SWIDTH 500 0
DWIDTH 4 0
BBX 4 8 0 -1
BITMAP
00
20
40
E0
20
40
E0
00
ENDCHAR
STARTCHAR 017A
ENCODING 378
SWIDTH 500 0
DWIDTH 4 0
BBX 4 8 0 -1
BITMAP
00
20
40
E0
20
40
E0
00
ENDCHAR
STARTCHAR 017B
ENCODING 379
SWIDTH 500 0
DWIDTH 4 0
BBX 4 8 0 -1
BITMAP
00
00
40
E0
20
40
E0
00
ENDCHAR
STARTCHAR 017C
ENCODING 380
SWIDTH 500 0
DWIDTH 4 0
BBX 4 8 0 -1
BITMAP
00
00
40
E0
20
40
E0
00
ENDCHAR
STARTCHAR 017D
ENCODING 381
SWIDTH 500 0
DWIDTH 4 0
BBX 4 8 0 -1
BITMAP
00
A0
40
E0
20
40
E0
00
ENDCHAR
STARTCHAR 017E
ENCODING 382
SWIDTH 500 0
DWIDTH 4 0
BBX 4 8 0 -1
BITMAP
00
A0
40
E0
20
40
E0
00
ENDCHAR
STARTCHAR 0181
ENCODING 385
SWIDTH 625 0
DWIDTH 5 0
BBX 5 8 0 -1
BITMAP
00
00
E0
90
E0
90
E0
00
ENDCHAR
STARTCHAR 0186
ENCODING 390
SWIDTH 625 0
DWIDTH 5 0
BBX 5 8 0 -1
BITMAP
00
00
60
90
10
90
60
00
ENDCHAR
STARTCHAR 0187
ENCODING 391
SWIDTH 625 0
DWIDTH 5 0
BBX 5 8 0 -1
BITMAP
00
00
68
90
80
90
60
00
ENDCHAR
STARTCHAR 0188
ENCODING 392
SWIDTH 625 0
DWIDTH 5 0
BBX 5 8 0 -1
BITMAP
00
00
10
20
60
80
60
00
ENDCHAR
STARTCHAR 0189
ENCODING 393
SWIDTH 625 0
DWIDTH 5 0
BBX 5 8 0 -1
BITMAP
00
00
E0
90
90
A0
C0
00
ENDCHAR
STARTCHAR 018A
ENCODING 394
SWIDTH 625 0
DWIDTH 5 0
BBX 5 8 0 -1
BITMAP
00
00
E0
90
90
A0
C0
00
ENDCHAR
STARTCHAR 018E
ENCODING 398
SWIDTH 500 0
DWIDTH 4 0
BBX 4 8 0 -1
BITMAP
00
00
E0
20
E0
20
E0
00
ENDCHAR
STARTCHAR 018F
ENCODING 399
SWIDTH 500 0
DWIDTH 4 0
BBX 4 8 0 -1
BITMAP
00
00
00
C0
60
A0
C0
00
ENDCHAR
STARTCHAR 0190
ENCODING 400
SWIDTH 625 0
DWIDTH 5 0
BBX 5 8 0 -1
BITMAP
00
00
70
80
60
80
70
00
ENDCHAR
STARTCHAR 0191
ENCODING 401
SWIDTH 500 0
DWIDTH 4 0
BBX 4 8 0 -1
BITMAP
00
00
E0
80
E0
80
80
00
ENDCHAR
STARTCHAR 0192
ENCODING 402
SWIDTH 500 0
DWIDTH 4 0
BBX 4 8 0 -1
BITMAP
00
00
60
40
E0
40
40
C0
ENDCHAR
STARTCHAR 0193
ENCODING 403
SWIDTH 625 0
DWIDTH 5 0
BBX 5 8 0 -1
BITMAP
00
08
70
80
B0
90
60
00
ENDCHAR
STARTCHAR 0194
ENCODING 404
SWIDTH 625 0
DWIDTH 5 0
BBX 5 8 0 -1
BITMAP
00
00
88
50
50
20
50
20
ENDCHAR
STARTCHAR 0196
ENCODING 406
SWIDTH 250 0
DWIDTH 2 0
BBX 2 8 0 -1
BITMAP
00
00
80
80
80
80
80
40
ENDCHAR
STARTCHAR 0197
ENCODING 407
SWIDTH 375 0
DWIDTH 3 0
BBX 3 8 0 -1
BITMAP
00
00
40
E0
40
40
40
00
ENDCHAR
STARTCHAR 0198
ENCODING 408
SWIDTH 625 0
DWIDTH 5 0
BBX 5 8 0 -1
BITMAP
00
00
98
A0
C0
A0
90
00
ENDCHAR
STARTCHAR 0199
ENCODING 409
SWIDTH 500 0
DWIDTH 4 0
BBX 4 8 0 -1
BITMAP
00
C0
80
A0
C0
A0
A0
00
ENDCHAR
STARTCHAR 019D
ENCODING 413
SWIDTH 625 0
DWIDTH 5 0
BBX 5 8 0 -1
BITMAP
00
00
90
D0
B0
90
90
80
ENDCHAR
STARTCHAR 01A4
ENCODING 420
SWIDTH 625 0
DWIDTH 5 0
BBX 5 8 0 -1
BITMAP
00
00
F0
48
78
40
40
00
ENDCHAR
STARTCHAR 01A5
ENCODING 421
SWIDTH 500 0
DWIDTH 4 0
BBX 4 8 0 -1
BITMAP
00
40
80
C0
A0
A0
C0
80
ENDCHAR
STARTCHAR 01A9
ENCODING 425
SWIDTH 625 0
DWIDTH 5 0
BBX 5 8 0 -1
BITMAP
00
00
F0
40
20
40
F0
00
ENDCHAR
STARTCHAR 01AA
ENCODING 426
SWIDTH 1000 0
DWIDTH 8 0
BBX 8 8 0 -1
BITMAP
00
20
50
30
10
10
10
08
ENDCHAR
STARTCHAR 01AC
ENCODING 428
SWIDTH 500 0
DWIDTH 4 0
BBX 4 8 0 -1
BITMAP
00
00
E0
40
40
40
40
00
ENDCHAR
STARTCHAR 01AD
ENCODING 429
SWIDTH 375 0
DWIDTH 3 0
BBX 3 8 0 -1
BITMAP
00
40
80
C0
80
80
40
00
ENDCHAR
STARTCHAR 01AE
ENCODING 430
SWIDTH 500 0
DWIDTH 4 0
BBX 4 8 0 -1
BITMAP
00
00
E0
40
40
40
40
20
ENDCHAR
STARTCHAR 01B1
ENCODING 433
SWIDTH 750 0
DWIDTH 6 0
BBX 6 8 0 -1
BITMAP
00
00
D8
50
88
88
70
00
ENDCHAR
STARTCHAR 01B2
ENCODING 434
SWIDTH 625 0
DWIDTH 5 0
BBX 5 8 0 -1
BITMAP
00
00
A0
90
90
90
60
00
ENDCHAR
STARTCHAR 01B3
ENCODING 435
SWIDTH 625 0
DWIDTH 5 0
BBX 5 8 0 -1
BITMAP
00
00
48
50
20
20
20
00
ENDCHAR
STARTCHAR 01B4
ENCODING 436
SWIDTH 625 0
DWIDTH 5 0
BBX 5 8 0 -1
BITMAP
00
00
00
10
A0
60
20
C0
ENDCHAR
STARTCHAR 01B7
ENCODING 439
SWIDTH 625 0
DWIDTH 5 0
BBX 5 8 0 -1
BITMAP
00
00
F0
20
40
20
90
60
ENDCHAR
STARTCHAR 01CD
ENCODING 461
SWIDTH 500 0
DWIDTH 4 0
BBX 4 8 0 -1
BITMAP
00
50
20
20
50
F0
90
00
ENDCHAR
STARTCHAR 01CE
ENCODING 462
SWIDTH 500 0
DWIDTH 4 0
BBX 4 8 0 -1
BITMAP
00
A0
40
60
A0
A0
60
00
ENDCHAR
STARTCHAR 01CF
ENCODING 463
SWIDTH 250 0
DWIDTH 2 0
BBX 2 8 0 -1
BITMAP
00
40
80
00
80
80
80
00
ENDCHAR
STARTCHAR 01D0
ENCODING 464
SWIDTH 500 0
DWIDTH 4 0
BBX 4 8 0 -1
BITMAP
00
A0
40
00
40
40
40
00
ENDCHAR
STARTCHAR 01D1
ENCODING 465
SWIDTH 500 0
DWIDTH 4 0
BBX 4 8 0 -1
BITMAP
00
A0
40
40
A0
A0
40
00
ENDCHAR
STARTCHAR 01D2
ENCODING 466
SWIDTH 500 0
DWIDTH 4 0
BBX 4 8 0 -1
BITMAP
00
A0
40
00
60
A0
C0
00
ENDCHAR
STARTCHAR 01D3
ENCODING 467
SWIDTH 500 0
DWIDTH 4 0
BBX 4 8 0 -1
BITMAP
00
A0
40
A0
A0
A0
60
00
ENDCHAR
STARTCHAR 01D4
ENCODING 468
SWIDTH 500 0
DWIDTH 4 0
BBX 4 8 0 -1
BITMAP
00
A0
40
00
A0
A0
60
00
ENDCHAR
STARTCHAR 01D5
ENCODING 469
SWIDTH 500 0
DWIDTH 4 0
BBX 4 8 0 -1
BITMAP
00
E0
00
A0
A0
A0
60
00
ENDCHAR
STARTCHAR 01D6
ENCODING 470
SWIDTH 500 0
DWIDTH 4 0
BBX 4 8 0 -1
BITMAP
00
E0
A0
00
A0
A0
60
00
ENDCHAR
STARTCHAR 01D7
ENCODING 471
SWIDTH 500 0
DWIDTH 4 0
BBX 4 8 0 -1
BITMAP
00
A0
40
A0
A0
A0
60
00
ENDCHAR
STARTCHAR 01D8
ENCODING 472
SWIDTH 500 0
DWIDTH 4 0
BBX 4 8 0 -1
BITMAP
00
A0
40
00
A0
A0
60
00
ENDCHAR
STARTCHAR 01D9
ENCODING 473
SWIDTH 500 0
DWIDTH 4 0
BBX 4 8 0 -1
BITMAP
00
A0
40
A0
A0
A0
60
00
ENDCHAR
STARTCHAR 01DA
ENCODING 474
SWIDTH 500 0
DWIDTH 4 0
BBX 4 8 0 -1
BITMAP
00
A0
40
00
A0
A0
60
00
ENDCHAR
STARTCHAR 01DB
ENCODING 475
SWIDTH 500 0
DWIDTH 4 0
BBX 4 8 0 -1
BITMAP
00
A0
40
A0
A0
A0
60
00
ENDCHAR
STARTCHAR 01DC
ENCODING 476
SWIDTH 500 0
DWIDTH 4 0
BBX 4 8 0 -1
BITMAP
00
40
A0
00
A0
A0
60
00
ENDCHAR
STARTCHAR 01DD
ENCODING 477
SWIDTH 500 0
DWIDTH 4 0
BBX 4 8 0 -1
BITMAP
00
00
00
C0
60
A0
C0
00
ENDCHAR
STARTCHAR 01DE
ENCODING 478
SWIDTH 625 0
DWIDTH 5 0
BBX 5 8 0 -1
BITMAP
00
70
50
20
50
F0
90
00
ENDCHAR
STARTCHAR 01DF
ENCODING 479
SWIDTH 500 0
DWIDTH 4 0
BBX 4 8 0 -1
BITMAP
00
C0
00
A0
60
A0
60
00
ENDCHAR
STARTCHAR 01E2
ENCODING 482
SWIDTH 875 0
DWIDTH 7 0
BBX 7 8 0 -1
BITMAP
00
38
00
3C
50
FC
9C
00
ENDCHAR
STARTCHAR 01E3
ENCODING 483
SWIDTH 875 0
DWIDTH 7 0
BBX 7 8 0 -1
BITMAP
00
38
00
6C
B4
B8
6C
00
ENDCHAR
STARTCHAR 01E6
ENCODING 486
SWIDTH 625 0
DWIDTH 5 0
BBX 5 8 0 -1
BITMAP
00
A0
70
80
B0
90
60
00
ENDCHAR
STARTCHAR 01E7
ENCODING 487
SWIDTH 500 0
DWIDTH 4 0
BBX 4 8 0 -1
BITMAP
00
A0
40
60
A0
E0
20
C0
ENDCHAR
STARTCHAR 01FE
ENCODING 510
SWIDTH 500 0
DWIDTH 4 0
BBX 4 8 0 -1
BITMAP
00
20
C0
A0
A0
60
80
00
ENDCHAR
STARTCHAR 01FF
ENCODING 511
SWIDTH 500 0
DWIDTH 4 0
BBX 4 8 0 -1
BITMAP
00
20
60
40
A0
A0
40
80
ENDCHAR
STARTCHAR 0218
ENCODING 536
SWIDTH 625 0
DWIDTH 5 0
BBX 5 8 0 -1
BITMAP
00
00
70
80
60
10
E0
40
ENDCHAR
STARTCHAR 0219
ENCODING 537
SWIDTH 500 0
DWIDTH 4 0
BBX 4 8 0 -1
BITMAP
00
00
00
60
C0
60
C0
40
ENDCHAR
STARTCHAR 021A
ENCODING 538
SWIDTH 500 0
DWIDTH 4 0
BBX 4 8 0 -1
BITMAP
00
00
E0
40
40
40
40
40
ENDCHAR
STARTCHAR 021B
ENCODING 539
SWIDTH 375 0
DWIDTH 3 0
BBX 3 8 0 -1
BITMAP
00
00
80
C0
80
80
40
80
ENDCHAR
STARTCHAR 0228
ENCODING 552
SWIDTH 500 0
DWIDTH 4 0
BBX 4 8 0 -1
BITMAP
00
00
E0
80
E0
80
E0
20
ENDCHAR
STARTCHAR 0229
ENCODING 553
SWIDTH 500 0
DWIDTH 4 0
BBX 4 8 0 -1
BITMAP
00
00
00
60
A0
C0
60
20
ENDCHAR
STARTCHAR 022A
ENCODING 554
SWIDTH 500 0
DWIDTH 4 0
BBX 4 8 0 -1
BITMAP
00
E0
00
40
A0
A0
40
00
ENDCHAR
STARTCHAR 022B
ENCODING 555
SWIDTH 500 0
DWIDTH 4 0
BBX 4 8 0 -1
BITMAP
00
E0
A0
00
60
A0
C0
00
ENDCHAR
STARTCHAR 0232
ENCODING 562
SWIDTH 500 0
DWIDTH 4 0
BBX 4 8 0 -1
BITMAP
00
00
E0
00
A0
A0
60
C0
ENDCHAR
STARTCHAR 0233
ENCODING 563
SWIDTH 500 0
DWIDTH 4 0
BBX 4 8 0 -1
BITMAP
00
00
E0
00
A0
60
20
C0
ENDCHAR
STARTCHAR 0237
ENCODING 567
SWIDTH 625 0
DWIDTH 5 0
BBX 5 8 0 -1
BITMAP
00
00
00
20
20
20
A0
40
ENDCHAR
STARTCHAR 0242
ENCODING 578
SWIDTH 625 0
DWIDTH 5 0
BBX 5 8 0 -1
BITMAP
00
00
20
50
10
20
20
00
ENDCHAR
STARTCHAR 0243
ENCODING 579
SWIDTH 625 0
DWIDTH 5 0
BBX 5 8 0 -1
BITMAP
00
00
E0
90
E0
90
E0
00
ENDCHAR
STARTCHAR 0244
ENCODING 580
SWIDTH 750 0
DWIDTH 6 0
BBX 6 8 0 -1
BITMAP
00
00
48
FC
48
48
30
00
ENDCHAR
STARTCHAR 0245
ENCODING 581
SWIDTH 625 0
DWIDTH 5 0
BBX 5 8 0 -1
BITMAP
00
00
20
50
50
88
88
00
ENDCHAR
STARTCHAR 024B
ENCODING 587
SWIDTH 500 0
DWIDTH 4 0
BBX 4 8 0 -1
BITMAP
00
00
00
60
A0
A0
60
20
ENDCHAR
STARTCHAR 024C
ENCODING 588
SWIDTH 625 0
DWIDTH 5 0
BBX 5 8 0 -1
BITMAP
00
00
E0
90
E0
A0
90
00
ENDCHAR
STARTCHAR 2010
ENCODING 8208
SWIDTH 1000 0
DWIDTH 8 0
BBX 8 8 0 -1
BITMAP
00
00
00
00
3C
00
00
00
ENDCHAR
STARTCHAR 2011
ENCODING 8209
SWIDTH 500 0
DWIDTH 4 0
BBX 4 8 0 -1
BITMAP
00
00
00
00
E0
00
00
00
ENDCHAR
STARTCHAR 2012
ENCODING 8210
SWIDTH 500 0
DWIDTH 4 0
BBX 4 8 0 -1
BITMAP
00
00
00
00
E0
00
00
00
ENDCHAR
STARTCHAR 2013
ENCODING 8211
SWIDTH 500 0
DWIDTH 4 0
BBX 4 8 0 -1
BITMAP
00
00
00
00
F0
00
00
00
ENDCHAR
STARTCHAR 2014
ENCODING 8212
SWIDTH 1000 0
DWIDTH 8 0
BBX 8 8 0 -1
BITMAP
00
00
00
00
FE
00
00
00
ENDCHAR
STARTCHAR 2015
ENCODING 8213
SWIDTH 1000 0
DWIDTH 8 0
BBX 8 8 0 -1
BITMAP
00
00
00
00
FF
00
00
00
ENDCHAR
STARTCHAR 2016
ENCODING 8214
SWIDTH 1000 0
DWIDTH 8 0
BBX 8 8 0 -1
BITMAP
00
28
28
28
28
28
28
28
ENDCHAR
STARTCHAR 2017
ENCODING 8215
SWIDTH 1000 0
DWIDTH 8 0
BBX 8 8 0 -1
BITMAP
00
00
00
00
00
FE
00
FE
ENDCHAR
STARTCHAR 2018
ENCODING 8216
SWIDTH 1000 0
DWIDTH 8 0
BBX 8 8 0 -1
BITMAP
00
04
08
0C
00
00
00
00
ENDCHAR
STARTCHAR 2019
ENCODING 8217
SWIDTH 1000 0
DWIDTH 8 0
BBX 8 8 0 -1
BITMAP
00
60
20
40
00
00
00
00
ENDCHAR
STARTCHAR 201A
ENCODING 8218
SWIDTH 1000 0
DWIDTH 8 0
BBX 8 8 0 -1
BITMAP
00
00
00
00
00
40
40
80
ENDCHAR
STARTCHAR 201C
ENCODING 8220
SWIDTH 1000 0
DWIDTH 8 0
BBX 8 8 0 -1
BITMAP
00
24
48
6C
00
00
00
00
ENDCHAR
STARTCHAR 201D
ENCODING 8221
SWIDTH 1000 0
DWIDTH 8 0
BBX 8 8 0 -1
BITMAP
00
6C
24
48
00
00
00
00
ENDCHAR
STARTCHAR 201E
ENCODING 8222
SWIDTH 1000 0
DWIDTH 8 0
BBX 8 8 0 -1
BITMAP
00
00
00
00
00
50
50
A0
ENDCHAR
STARTCHAR 2020
ENCODING 8224
SWIDTH 1000 0
DWIDTH 8 0
BBX 8 8 0 -1
BITMAP
00
10
10
7C
10
10
10
10
ENDCHAR
STARTCHAR 2021
ENCODING 8225
SWIDTH 1000 0
DWIDTH 8 0
BBX 8 8 0 -1
BITMAP
00
10
7C
10
10
10
7C
10
ENDCHAR
STARTCHAR 2022
ENCODING 8226
SWIDTH 1000 0
DWIDTH 8 0
BBX 8 8 0 -1
BITMAP
00
00
00
18
18
00
00
00
ENDCHAR
STARTCHAR 2023
ENCODING 8227
SWIDTH 1000 0
DWIDTH 8 0
BBX 8 8 0 -1
BITMAP
00
00
00
30
38
30
00
00
ENDCHAR
STARTCHAR 2025
ENCODING 8229
SWIDTH 1000 0
DWIDTH 8 0
BBX 8 8 0 -1
BITMAP
00
00
00
00
44
00
00
00
ENDCHAR
STARTCHAR 2026
ENCODING 8230
SWIDTH 1000 0
DWIDTH 8 0
BBX 8 8 0 -1
BITMAP
00
00
00
00
92
00
00
00
ENDCHAR
STARTCHAR 2027
ENCODING 8231
SWIDTH 1000 0
DWIDTH 8 0
BBX 8 8 0 -1
BITMAP
00
00
00
00
10
00
00
00
ENDCHAR
STARTCHAR 2030
ENCODING 8240
SWIDTH 1000 0
DWIDTH 8 0
BBX 8 8 0 -1
BITMAP
00
40
A8
50
20
54
AA
14
ENDCHAR
STARTCHAR 2031
ENCODING 8241
SWIDTH 1000 0
DWIDTH 8 0
BBX 8 8 0 -1
BITMAP
00
40
A8
50
20
54
AA
54
ENDCHAR
STARTCHAR 2032
ENCODING 8242
SWIDTH 1000 0
DWIDTH 8 0
BBX 8 8 0 -1
BITMAP
00
20
20
40
00
00
00
00
ENDCHAR
STARTCHAR 2033
ENCODING 8243
SWIDTH 1000 0
DWIDTH 8 0
BBX 8 8 0 -1
BITMAP
00
28
28
50
00
00
00
00
ENDCHAR
STARTCHAR 2034
ENCODING 8244
SWIDTH 1000 0
DWIDTH 8 0
BBX 8 8 0 -1
BITMAP
00
54
54
A8
00
00
00
00
ENDCHAR
STARTCHAR 2035
ENCODING 8245
SWIDTH 1000 0
DWIDTH 8 0
BBX 8 8 0 -1
BITMAP
00
10
08
00
00
00
00
00
ENDCHAR
STARTCHAR 2037
ENCODING 8247
SWIDTH 1000 0
DWIDTH 8 0
BBX 8 8 0 -1
BITMAP
00
54
54
2A
00
00
00
00
ENDCHAR
STARTCHAR 2038
ENCODING 8248
SWIDTH 1000 0
DWIDTH 8 0
BBX 8 8 0 -1
BITMAP
00
00
00
00
10
28
28
44
ENDCHAR
STARTCHAR 2039
ENCODING 8249
SWIDTH 500 0
DWIDTH 4 0
BBX 4 8 0 -1
BITMAP
00
00
20
40
40
20
00
00
ENDCHAR
STARTCHAR 203A
ENCODING 8250
SWIDTH 500 0
DWIDTH 4 0
BBX 4 8 0 -1
BITMAP
00
00
40
20
20
40
00
00
ENDCHAR
STARTCHAR 203B
ENCODING 8251
SWIDTH 1000 0
DWIDTH 8 0
BBX 8 8 0 -1
BITMAP
00
10
44
28
92
28
44
10
ENDCHAR
STARTCHAR 203C
ENCODING 8252
SWIDTH 1000 0
DWIDTH 8 0
BBX 8 8 0 -1
BITMAP
00
28
28
28
28
28
00
28
ENDCHAR
STARTCHAR 203E
ENCODING 8254
SWIDTH 500 0
DWIDTH 4 0
BBX 4 8 0 -1
BITMAP
00
E0
00
00
00
00
00
00
ENDCHAR
STARTCHAR 203F
ENCODING 8255
SWIDTH 1000 0
DWIDTH 8 0
BBX 8 8 0 -1
BITMAP
00
00
00
00
00
00
82
7C
ENDCHAR
STARTCHAR 2044
ENCODING 8260
SWIDTH 1000 0
DWIDTH 8 0
BBX 8 8 0 -1
BITMAP
00
04
08
08
10
20
20
40
ENDCHAR
STARTCHAR 2103
ENCODING 8451
SWIDTH 1000 0
DWIDTH 8 0
BBX 8 8 0 -1
BITMAP
40
A6
48
08
08
08
06
00
ENDCHAR
STARTCHAR 2109
ENCODING 8457
SWIDTH 1000 0
DWIDTH 8 0
BBX 8 8 0 -1
BITMAP
40
AE
48
0E
08
08
08
00
ENDCHAR
STARTCHAR 2160
ENCODING 8544
SWIDTH 1000 0
DWIDTH 8 0
BBX 8 8 0 -1
BITMAP
00
10
10
10
10
10
10
10
ENDCHAR
STARTCHAR 2161
ENCODING 8545
SWIDTH 1000 0
DWIDTH 8 0
BBX 8 8 0 -1
BITMAP
00
28
28
28
28
28
28
28
ENDCHAR
STARTCHAR 2162
ENCODING 8546
SWIDTH 1000 0
DWIDTH 8 0
BBX 8 8 0 -1
BITMAP
00
54
54
54
54
54
54
54
ENDCHAR
STARTCHAR 2163
ENCODING 8547
SWIDTH 1000 0
DWIDTH 8 0
BBX 8 8 0 -1
BITMAP
00
A2
A2
94
94
94
88
88
ENDCHAR
STARTCHAR 2164
ENCODING 8548
SWIDTH 1000 0
DWIDTH 8 0
BBX 8 8 0 -1
BITMAP
00
44
44
28
28
28
10
10
ENDCHAR
STARTCHAR 2165
ENCODING 8549
SWIDTH 1000 0
DWIDTH 8 0
BBX 8 8 0 -1
BITMAP
00
8A
8A
52
52
52
22
22
ENDCHAR
STARTCHAR 2166
ENCODING 8550
SWIDTH 1000 0
DWIDTH 8 0
BBX 8 8 0 -1
BITMAP
00
AA
AA
AA
AA
AA
4A
4A
ENDCHAR
STARTCHAR 2167
ENCODING 8551
SWIDTH 1000 0
DWIDTH 8 0
BBX 8 8 0 -1
BITMAP
00
BA
BA
BA
BA
5A
5A
5A
ENDCHAR
STARTCHAR 2168
ENCODING 8552
SWIDTH 1000 0
DWIDTH 8 0
BBX 8 8 0 -1
BITMAP
00
A2
94
94
88
94
94
A2
ENDCHAR
STARTCHAR 2169
ENCODING 8553
SWIDTH 1000 0
DWIDTH 8 0
BBX 8 8 0 -1
BITMAP
00
44
28
28
10
28
28
44
ENDCHAR
STARTCHAR 216A
ENCODING 8554
SWIDTH 1000 0
DWIDTH 8 0
BBX 8 8 0 -1
BITMAP
00
DE
54
24
24
24
54
DE
ENDCHAR
STARTCHAR 216B
ENCODING 8555
SWIDTH 1000 0
DWIDTH 8 0
BBX 8 8 0 -1
BITMAP
00
AA
AA
4A
4A
4A
AA
AA
ENDCHAR
STARTCHAR 2170
ENCODING 8560
SWIDTH 1000 0
DWIDTH 8 0
BBX 8 8 0 -1
BITMAP
00
10
00
10
10
10
10
10
ENDCHAR
STARTCHAR 2171
ENCODING 8561
SWIDTH 1000 0
DWIDTH 8 0
BBX 8 8 0 -1
BITMAP
00
24
00
24
24
24
24
24
ENDCHAR
STARTCHAR 2172
ENCODING 8562
SWIDTH 1000 0
DWIDTH 8 0
BBX 8 8 0 -1
BITMAP
00
54
00
54
54
54
54
54
ENDCHAR
STARTCHAR 2173
ENCODING 8563
SWIDTH 1000 0
DWIDTH 8 0
BBX 8 8 0 -1
BITMAP
00
40
00
54
54
54
48
48
ENDCHAR
STARTCHAR 2174
ENCODING 8564
SWIDTH 1000 0
DWIDTH 8 0
BBX 8 8 0 -1
BITMAP
00
00
00
44
44
28
28
10
ENDCHAR
STARTCHAR 2175
ENCODING 8565
SWIDTH 1000 0
DWIDTH 8 0
BBX 8 8 0 -1
BITMAP
00
04
00
54
54
54
24
24
ENDCHAR
STARTCHAR 2176
ENCODING 8566
SWIDTH 1000 0
DWIDTH 8 0
BBX 8 8 0 -1
BITMAP
00
0A
00
AA
AA
AA
4A
4A
ENDCHAR
STARTCHAR 2177
ENCODING 8567
SWIDTH 1000 0
DWIDTH 8 0
BBX 8 8 0 -1
BITMAP
00
2A
00
AA
AA
AA
4A
4A
ENDCHAR
STARTCHAR 2178
ENCODING 8568
SWIDTH 1000 0
DWIDTH 8 0
BBX 8 8 0 -1
BITMAP
00
40
00
54
54
48
54
54
ENDCHAR
STARTCHAR 2179
ENCODING 8569
SWIDTH 1000 0
DWIDTH 8 0
BBX 8 8 0 -1
BITMAP
00
00
00
44
28
10
28
44
ENDCHAR
STARTCHAR 2181
ENCODING 8577
SWIDTH 1000 0
DWIDTH 8 0
BBX 8 8 0 -1
BITMAP
00
78
24
32
2A
32
24
78
ENDCHAR
STARTCHAR 2182
ENCODING 8578
SWIDTH 1000 0
DWIDTH 8 0
BBX 8 8 0 -1
BITMAP
00
38
54
AA
AA
AA
54
38
ENDCHAR
STARTCHAR 2190
ENCODING 8592
SWIDTH 1000 0
DWIDTH 8 0
BBX 8 8 0 -1
BITMAP
00
00
20
40
FE
40
20
00
ENDCHAR
STARTCHAR 2191
ENCODING 8593
SWIDTH 1000 0
DWIDTH 8 0
BBX 8 8 0 -1
BITMAP
00
10
38
54
10
10
10
10
ENDCHAR
STARTCHAR 2192
ENCODING 8594
SWIDTH 1000 0
DWIDTH 8 0
BBX 8 8 0 -1
BITMAP
00
00
08
04
FE
04
08
00
ENDCHAR
STARTCHAR 2193
ENCODING 8595
SWIDTH 1000 0
DWIDTH 8 0
BBX 8 8 0 -1
BITMAP
00
10
10
10
10
54
38
10
ENDCHAR
STARTCHAR 2194
ENCODING 8596
SWIDTH 1000 0
DWIDTH 8 0
BBX 8 8 0 -1
BITMAP
00
00
28
44
FE
44
28
00
ENDCHAR
STARTCHAR 2195
ENCODING 8597
SWIDTH 1000 0
DWIDTH 8 0
BBX 8 8 0 -1
BITMAP
00
10
38
54
10
54
38
10
ENDCHAR
STARTCHAR 2196
ENCODING 8598
SWIDTH 1000 0
DWIDTH 8 0
BBX 8 8 0 -1
BITMAP
00
F0
C0
A0
90
08
04
02
ENDCHAR
STARTCHAR 2197
ENCODING 8599
SWIDTH 1000 0
DWIDTH 8 0
BBX 8 8 0 -1
BITMAP
00
1E
06
0A
12
20
40
80
ENDCHAR
STARTCHAR 2198
ENCODING 8600
SWIDTH 1000 0
DWIDTH 8 0
BBX 8 8 0 -1
BITMAP
00
80
40
20
12
0A
06
1E
ENDCHAR
STARTCHAR 2199
ENCODING 8601
SWIDTH 1000 0
DWIDTH 8 0
BBX 8 8 0 -1
BITMAP
00
02
04
08
90
A0
C0
F0
ENDCHAR
STARTCHAR 219A
ENCODING 8602
SWIDTH 1000 0
DWIDTH 8 0
BBX 8 8 0 -1
BITMAP
00
00
24
44
FE
48
28
00
ENDCHAR
STARTCHAR 219B
ENCODING 8603
SWIDTH 1000 0
DWIDTH 8 0
BBX 8 8 0 -1
BITMAP
00
00
28
24
FE
44
48
00
ENDCHAR
STARTCHAR 21BA
ENCODING 8634
SWIDTH 1000 0
DWIDTH 8 0
BBX 8 8 0 -1
BITMAP
00
1C
18
94
82
82
44
38
ENDCHAR
STARTCHAR 21BB
ENCODING 8635
SWIDTH 1000 0
DWIDTH 8 0
BBX 8 8 0 -1
BITMAP
00
70
30
52
82
82
44
38
ENDCHAR
STARTCHAR 21D0
ENCODING 8656
SWIDTH 1000 0
DWIDTH 8 0
BBX 8 8 0 -1
BITMAP
00
10
20
7E
80
7E
20
10
ENDCHAR
STARTCHAR 21D1
ENCODING 8657
SWIDTH 1000 0
DWIDTH 8 0
BBX 8 8 0 -1
BITMAP
00
10
28
6C
AA
28
28
28
ENDCHAR
STARTCHAR 21D2
ENCODING 8658
SWIDTH 1000 0
DWIDTH 8 0
BBX 8 8 0 -1
BITMAP
00
10
08
FC
02
FC
08
10
ENDCHAR
STARTCHAR 21D3
ENCODING 8659
SWIDTH 1000 0
DWIDTH 8 0
BBX 8 8 0 -1
BITMAP
00
28
28
28
AA
6C
28
10
ENDCHAR
STARTCHAR 21D4
ENCODING 8660
SWIDTH 1000 0
DWIDTH 8 0
BBX 8 8 0 -1
BITMAP
00
00
28
7C
82
7C
28
00
ENDCHAR
STARTCHAR 21D5
ENCODING 8661
SWIDTH 1000 0
DWIDTH 8 0
BBX 8 8 0 -1
BITMAP
00
10
28
6C
28
6C
28
10
ENDCHAR
STARTCHAR 21D6
ENCODING 8662
SWIDTH 1000 0
DWIDTH 8 0
BBX 8 8 0 -1
BITMAP
00
F8
A0
D0
A8
94
0A
04
ENDCHAR
STARTCHAR 21D7
ENCODING 8663
SWIDTH 1000 0
DWIDTH 8 0
BBX 8 8 0 -1
BITMAP
00
3E
0A
16
2A
52
A0
40
ENDCHAR
STARTCHAR 21D8
ENCODING 8664
SWIDTH 1000 0
DWIDTH 8 0
BBX 8 8 0 -1
BITMAP
00
40
A0
52
2A
16
0A
3E
ENDCHAR
STARTCHAR 21D9
ENCODING 8665
SWIDTH 1000 0
DWIDTH 8 0
BBX 8 8 0 -1
BITMAP
00
04
0A
94
A8
D0
A0
F8
ENDCHAR
STARTCHAR 21DA
ENCODING 8666
SWIDTH 1000 0
DWIDTH 8 0
BBX 8 8 0 -1
BITMAP
00
10
3E
40
FE
40
3E
10
ENDCHAR
STARTCHAR 21DB
ENCODING 8667
SWIDTH 1000 0
DWIDTH 8 0
BBX 8 8 0 -1
BITMAP
00
10
F8
04
FE
04
F8
10
ENDCHAR
STARTCHAR 21E0
ENCODING 8672
SWIDTH 1000 0
DWIDTH 8 0
BBX 8 8 0 -1
BITMAP
00
00
20
40
EA
40
20
00
ENDCHAR
STARTCHAR 21E1
ENCODING 8673
SWIDTH 1000 0
DWIDTH 8 0
BBX 8 8 0 -1
BITMAP
00
10
38
54
00
10
00
10
ENDCHAR
STARTCHAR 21E2
ENCODING 8674
SWIDTH 1000 0
DWIDTH 8 0
BBX 8 8 0 -1
BITMAP
00
00
08
04
AE
04
08
00
ENDCHAR
STARTCHAR 21E3
ENCODING 8675
SWIDTH 1000 0
DWIDTH 8 0
BBX 8 8 0 -1
BITMAP
00
10
00
10
00
54
38
10
ENDCHAR
STARTCHAR 21E4
ENCODING 8676
SWIDTH 1000 0
DWIDTH 8 0
BBX 8 8 0 -1
BITMAP
00
00
88
90
BE
90
88
00
ENDCHAR
STARTCHAR 21E5
ENCODING 8677
SWIDTH 1000 0
DWIDTH 8 0
BBX 8 8 0 -1
BITMAP
00
00
22
12
FA
12
22
00
ENDCHAR
STARTCHAR 21E6
ENCODING 8678
SWIDTH 1000 0
DWIDTH 8 0
BBX 8 8 0 -1
BITMAP
00
10
30
5E
82
5E
30
10
ENDCHAR
STARTCHAR 21E7
ENCODING 8679
SWIDTH 1000 0
DWIDTH 8 0
BBX 8 8 0 -1
BITMAP
00
10
28
44
EE
28
28
38
ENDCHAR
STARTCHAR 21E8
ENCODING 8680
SWIDTH 1000 0
DWIDTH 8 0
BBX 8 8 0 -1
BITMAP
00
10
18
F4
82
F4
18
10
ENDCHAR
STARTCHAR 21E9
ENCODING 8681
SWIDTH 1000 0
DWIDTH 8 0
BBX 8 8 0 -1
BITMAP
00
38
28
28
EE
44
28
10
ENDCHAR
STARTCHAR 21EA
ENCODING 8682
SWIDTH 1000 0
DWIDTH 8 0
BBX 8 8 0 -1
BITMAP
00
10
28
44
EE
38
00
38
ENDCHAR
STARTCHAR 21EB
ENCODING 8683
SWIDTH 1000 0
DWIDTH 8 0
BBX 8 8 0 -1
BITMAP
00
10
28
44
EE
28
28
FE
ENDCHAR
STARTCHAR 21EC
ENCODING 8684
SWIDTH 1000 0
DWIDTH 8 0
BBX 8 8 0 -1
BITMAP
00
10
38
44
EE
28
28
FE
ENDCHAR
STARTCHAR 21ED
ENCODING 8685
SWIDTH 1000 0
DWIDTH 8 0
BBX 8 8 0 -1
BITMAP
00
10
38
54
EE
28
28
FE
ENDCHAR
STARTCHAR 21EE
ENCODING 8686
SWIDTH 1000 0
DWIDTH 8 0
BBX 8 8 0 -1
BITMAP
00
10
28
54
AA
EE
28
38
ENDCHAR
STARTCHAR 21EF
ENCODING 8687
SWIDTH 1000 0
DWIDTH 8 0
BBX 8 8 0 -1
BITMAP
00
10
28
54
AA
EE
28
FE
ENDCHAR
STARTCHAR 21F0
ENCODING 8688
SWIDTH 1000 0
DWIDTH 8 0
BBX 8 8 0 -1
BITMAP
00
90
98
F4
82
F4
98
90
ENDCHAR
STARTCHAR 21F1
ENCODING 8689
SWIDTH 1000 0
DWIDTH 8 0
BBX 8 8 0 -1
BITMAP
00
FE
80
BC
B0
A8
A4
82
ENDCHAR
STARTCHAR 21F2
ENCODING 8690
SWIDTH 1000 0
DWIDTH 8 0
BBX 8 8 0 -1
BITMAP
00
82
4A
2A
1A
7A
02
FE
ENDCHAR
STARTCHAR 21F3
ENCODING 8691
SWIDTH 1000 0
DWIDTH 8 0
BBX 8 8 0 -1
BITMAP
00
10
28
44
28
44
28
10
ENDCHAR
STARTCHAR 21FD
ENCODING 8701
SWIDTH 1000 0
DWIDTH 8 0
BBX 8 8 0 -1
BITMAP
00
00
20
60
BE
60
20
00
ENDCHAR
STARTCHAR 21FE
ENCODING 8702
SWIDTH 1000 0
DWIDTH 8 0
BBX 8 8 0 -1
BITMAP
00
00
08
0C
FA
0C
08
00
ENDCHAR
STARTCHAR 21FF
ENCODING 8703
SWIDTH 1000 0
DWIDTH 8 0
BBX 8 8 0 -1
BITMAP
00
00
28
6C
BA
6C
28
00
ENDCHAR
STARTCHAR 2202
ENCODING 8706
SWIDTH 1000 0
DWIDTH 8 0
BBX 8 8 0 -1
BITMAP
00
18
24
04
34
48
48
30
ENDCHAR
STARTCHAR 2203
ENCODING 8707
SWIDTH 1000 0
DWIDTH 8 0
BBX 8 8 0 -1
BITMAP
00
7E
02
02
7E
02
02
7E
ENDCHAR
STARTCHAR 2207
ENCODING 8711
SWIDTH 1000 0
DWIDTH 8 0
BBX 8 8 0 -1
BITMAP
00
FE
82
44
44
28
28
10
ENDCHAR
STARTCHAR 2208
ENCODING 8712
SWIDTH 1000 0
DWIDTH 8 0
BBX 8 8 0 -1
BITMAP
00
00
3E
40
7E
40
3E
00
ENDCHAR
STARTCHAR 220B
ENCODING 8715
SWIDTH 1000 0
DWIDTH 8 0
BBX 8 8 0 -1
BITMAP
00
00
7C
02
7E
02
7C
00
ENDCHAR
STARTCHAR 220F
ENCODING 8719
SWIDTH 1000 0
DWIDTH 8 0
BBX 8 8 0 -1
BITMAP
00
FE
44
44
44
44
44
EE
ENDCHAR
STARTCHAR 2211
ENCODING 8721
SWIDTH 1000 0
DWIDTH 8 0
BBX 8 8 0 -1
BITMAP
00
7E
20
10
08
10
20
7E
ENDCHAR
STARTCHAR 2212
ENCODING 8722
SWIDTH 500 0
DWIDTH 4 0
BBX 4 8 0 -1
BITMAP
00
00
00
00
E0
00
00
00
ENDCHAR
STARTCHAR 2219
ENCODING 8729
SWIDTH 1000 0
DWIDTH 8 0
BBX 8 8 0 -1
BITMAP
00
00
00
00
10
00
00
00
ENDCHAR
STARTCHAR 221A
ENCODING 8730
SWIDTH 1000 0
DWIDTH 8 0
BBX 8 8 0 -1
BITMAP
00
1E
10
20
20
E0
40
40
ENDCHAR
STARTCHAR 221D
ENCODING 8733
SWIDTH 1000 0
DWIDTH 8 0
BBX 8 8 0 -1
BITMAP
00
00
6C
92
90
92
6C
00
ENDCHAR
STARTCHAR 221E
ENCODING 8734
SWIDTH 1000 0
DWIDTH 8 0
BBX 8 8 0 -1
BITMAP
00
00
6C
92
92
92
6C
00
ENDCHAR
STARTCHAR 221F
ENCODING 8735
SWIDTH 1000 0
DWIDTH 8 0
BBX 8 8 0 -1
BITMAP
00
00
40
40
40
40
40
7E
ENDCHAR
STARTCHAR 2220
ENCODING 8736
SWIDTH 1000 0
DWIDTH 8 0
BBX 8 8 0 -1
BITMAP
00
00
02
04
08
10
20
7E
ENDCHAR
STARTCHAR 2223
ENCODING 8739
SWIDTH 1000 0
DWIDTH 8 0
BBX 8 8 0 -1
BITMAP
00
00
10
10
10
10
10
00
ENDCHAR
STARTCHAR 2225
ENCODING 8741
SWIDTH 1000 0
DWIDTH 8 0
BBX 8 8 0 -1
BITMAP
00
14
14
28
28
28
50
50
ENDCHAR
STARTCHAR 2227
ENCODING 8743
SWIDTH 1000 0
DWIDTH 8 0
BBX 8 8 0 -1
BITMAP
00
10
10
28
28
44
44
82
ENDCHAR
STARTCHAR 2228
ENCODING 8744
SWIDTH 1000 0
DWIDTH 8 0
BBX 8 8 0 -1
BITMAP
00
82
44
44
28
28
10
10
ENDCHAR
STARTCHAR 2229
ENCODING 8745
SWIDTH 1000 0
DWIDTH 8 0
BBX 8 8 0 -1
BITMAP
00
00
3C
42
42
42
42
42
ENDCHAR
STARTCHAR 222B
ENCODING 8747
SWIDTH 1000 0
DWIDTH 8 0
BBX 8 8 0 -1
BITMAP
00
18
20
20
10
08
08
30
ENDCHAR
STARTCHAR 222C
ENCODING 8748
SWIDTH 1000 0
DWIDTH 8 0
BBX 8 8 0 -1
BITMAP
00
36
48
48
24
12
12
6C
ENDCHAR
STARTCHAR 222E
ENCODING 8750
SWIDTH 1000 0
DWIDTH 8 0
BBX 8 8 0 -1
BITMAP
00
18
20
38
54
38
08
30
ENDCHAR
STARTCHAR 2234
ENCODING 8756
SWIDTH 1000 0
DWIDTH 8 0
BBX 8 8 0 -1
BITMAP
00
00
10
00
00
00
44
00
ENDCHAR
STARTCHAR 2235
ENCODING 8757
SWIDTH 1000 0
DWIDTH 8 0
BBX 8 8 0 -1
BITMAP
00
00
44
00
00
00
10
00
ENDCHAR
STARTCHAR 2237
ENCODING 8759
SWIDTH 1000 0
DWIDTH 8 0
BBX 8 8 0 -1
BITMAP
00
00
00
28
00
28
00
00
ENDCHAR
STARTCHAR 223C
ENCODING 8764
SWIDTH 625 0
DWIDTH 5 0
BBX 5 8 0 -1
BITMAP
00
00
00
50
A0
00
00
00
ENDCHAR
STARTCHAR 223D
ENCODING 8765
SWIDTH 1000 0
DWIDTH 8 0
BBX 8 8 0 -1
BITMAP
00
00
4C
92
92
92
64
00
ENDCHAR
STARTCHAR 2248
ENCODING 8776
SWIDTH 1000 0
DWIDTH 8 0
BBX 8 8 0 -1
BITMAP
00
00
32
4C
00
32
4C
00
ENDCHAR
STARTCHAR 2252
ENCODING 8786
SWIDTH 1000 0
DWIDTH 8 0
BBX 8 8 0 -1
BITMAP
00
40
00
FE
00
FE
00
04
ENDCHAR
STARTCHAR 2256
ENCODING 8790
SWIDTH 1000 0
DWIDTH 8 0
BBX 8 8 0 -1
BITMAP
00
00
FE
28
44
28
FE
00
ENDCHAR
STARTCHAR 225D
ENCODING 8797
SWIDTH 1000 0
DWIDTH 8 0
BBX 8 8 0 -1
BITMAP
00
46
D4
DC
00
FE
00
FE
ENDCHAR
STARTCHAR 2260
ENCODING 8800
SWIDTH 1000 0
DWIDTH 8 0
BBX 8 8 0 -1
BITMAP
00
00
04
FE
10
FE
40
00
ENDCHAR
STARTCHAR 2261
ENCODING 8801
SWIDTH 1000 0
DWIDTH 8 0
BBX 8 8 0 -1
BITMAP
00
00
7E
00
7E
00
7E
00
ENDCHAR
STARTCHAR 2264
ENCODING 8804
SWIDTH 1000 0
DWIDTH 8 0
BBX 8 8 0 -1
BITMAP
00
06
38
C0
38
06
00
FE
ENDCHAR
STARTCHAR 2265
ENCODING 8805
SWIDTH 1000 0
DWIDTH 8 0
BBX 8 8 0 -1
BITMAP
00
C0
38
06
38
C0
00
FE
ENDCHAR
STARTCHAR 2266
ENCODING 8806
SWIDTH 1000 0
DWIDTH 8 0
BBX 8 8 0 -1
BITMAP
00
06
38
C0
38
06
00
FE
ENDCHAR
STARTCHAR 2267
ENCODING 8807
SWIDTH 1000 0
DWIDTH 8 0
BBX 8 8 0 -1
BITMAP
00
C0
38
06
38
C0
00
FE
ENDCHAR
STARTCHAR 226A
ENCODING 8810
SWIDTH 1000 0
DWIDTH 8 0
BBX 8 8 0 -1
BITMAP
00
00
24
48
90
48
24
00
ENDCHAR
STARTCHAR 226B
ENCODING 8811
SWIDTH 1000 0
DWIDTH 8 0
BBX 8 8 0 -1
BITMAP
00
00
48
24
12
24
48
00
ENDCHAR
STARTCHAR 227C
ENCODING 8828
SWIDTH 1000 0
DWIDTH 8 0
BBX 8 8 0 -1
BITMAP
00
06
38
C0
38
06
F0
0E
ENDCHAR
STARTCHAR 227D
ENCODING 8829
SWIDTH 1000 0
DWIDTH 8 0
BBX 8 8 0 -1
BITMAP
00
C0
38
06
38
C0
1E
E0
ENDCHAR
STARTCHAR 2282
ENCODING 8834
SWIDTH 1000 0
DWIDTH 8 0
BBX 8 8 0 -1
BITMAP
00
00
3E
40
40
40
3E
00
ENDCHAR
STARTCHAR 2283
ENCODING 8835
SWIDTH 1000 0
DWIDTH 8 0
BBX 8 8 0 -1
BITMAP
00
00
7C
02
02
02
7C
00
ENDCHAR
STARTCHAR 2286
ENCODING 8838
SWIDTH 1000 0
DWIDTH 8 0
BBX 8 8 0 -1
BITMAP
00
3E
40
40
40
3E
00
7E
ENDCHAR
STARTCHAR 2287
ENCODING 8839
SWIDTH 1000 0
DWIDTH 8 0
BBX 8 8 0 -1
BITMAP
00
7C
02
02
02
7C
00
7E
ENDCHAR
STARTCHAR 2295
ENCODING 8853
SWIDTH 1000 0
DWIDTH 8 0
BBX 8 8 0 -1
BITMAP
00
00
38
54
7C
54
38
00
ENDCHAR
STARTCHAR 2296
ENCODING 8854
SWIDTH 1000 0
DWIDTH 8 0
BBX 8 8 0 -1
BITMAP
00
38
44
82
FE
82
44
38
ENDCHAR
STARTCHAR 2299
ENCODING 8857
SWIDTH 1000 0
DWIDTH 8 0
BBX 8 8 0 -1
BITMAP
00
38
44
82
92
82
44
38
ENDCHAR
STARTCHAR 229C
ENCODING 8860
SWIDTH 1000 0
DWIDTH 8 0
BBX 8 8 0 -1
BITMAP
00
38
44
BA
82
BA
44
38
ENDCHAR
STARTCHAR 22A5
ENCODING 8869
SWIDTH 1000 0
DWIDTH 8 0
BBX 8 8 0 -1
BITMAP
00
00
10
10
10
10
10
FE
ENDCHAR
STARTCHAR 22B9
ENCODING 8889
SWIDTH 1000 0
DWIDTH 8 0
BBX 8 8 0 -1
BITMAP
00
10
10
00
C6
00
10
10
ENDCHAR
STARTCHAR 22BF
ENCODING 8895
SWIDTH 1000 0
DWIDTH 8 0
BBX 8 8 0 -1
BITMAP
00
00
02
06
0A
12
22
7E
ENDCHAR
STARTCHAR 22DA
ENCODING 8922
SWIDTH 1000 0
DWIDTH 8 0
BBX 8 8 0 -1
BITMAP
00
1E
E0
18
FE
30
0E
F0
ENDCHAR
STARTCHAR 22DB
ENCODING 8923
SWIDTH 1000 0
DWIDTH 8 0
BBX 8 8 0 -1
BITMAP
00
F0
0E
30
FE
18
E0
1E
ENDCHAR
STARTCHAR 2460
ENCODING 9312
SWIDTH 1000 0
DWIDTH 8 0
BBX 8 8 0 -1
BITMAP
00
7C
92
B2
92
92
92
7C
ENDCHAR
STARTCHAR 2461
ENCODING 9313
SWIDTH 1000 0
DWIDTH 8 0
BBX 8 8 0 -1
BITMAP
00
7C
B2
8A
92
A2
BA
7C
ENDCHAR
STARTCHAR 2462
ENCODING 9314
SWIDTH 1000 0
DWIDTH 8 0
BBX 8 8 0 -1
BITMAP
00
7C
B2
8A
92
8A
B2
7C
ENDCHAR
STARTCHAR 2463
ENCODING 9315
SWIDTH 1000 0
DWIDTH 8 0
BBX 8 8 0 -1
BITMAP
00
7C
8A
9A
AA
BA
8A
7C
ENDCHAR
STARTCHAR 2464
ENCODING 9316
SWIDTH 1000 0
DWIDTH 8 0
BBX 8 8 0 -1
BITMAP
00
7C
BA
A2
B2
8A
B2
7C
ENDCHAR
STARTCHAR 2465
ENCODING 9317
SWIDTH 1000 0
DWIDTH 8 0
BBX 8 8 0 -1
BITMAP
00
7C
92
A2
B2
AA
92
7C
ENDCHAR
STARTCHAR 2466
ENCODING 9318
SWIDTH 1000 0
DWIDTH 8 0
BBX 8 8 0 -1
BITMAP
00
7C
BA
8A
92
92
92
7C
ENDCHAR
STARTCHAR 2467
ENCODING 9319
SWIDTH 1000 0
DWIDTH 8 0
BBX 8 8 0 -1
BITMAP
00
7C
92
AA
92
AA
92
7C
ENDCHAR
STARTCHAR 2468
ENCODING 9320
SWIDTH 1000 0
DWIDTH 8 0
BBX 8 8 0 -1
BITMAP
00
7C
92
AA
9A
8A
92
7C
ENDCHAR
STARTCHAR 2469
ENCODING 9321
SWIDTH 1000 0
DWIDTH 8 0
BBX 8 8 0 -1
BITMAP
00
7C
A2
EE
AA
AE
A2
7C
ENDCHAR
STARTCHAR 246A
ENCODING 9322
SWIDTH 1000 0
DWIDTH 8 0
BBX 8 8 0 -1
BITMAP
00
7C
A6
EE
A6
A6
A6
7C
ENDCHAR
STARTCHAR 246B
ENCODING 9323
SWIDTH 1000 0
DWIDTH 8 0
BBX 8 8 0 -1
BITMAP
00
7C
AA
E6
AE
AA
AE
7C
ENDCHAR
STARTCHAR 246C
ENCODING 9324
SWIDTH 1000 0
DWIDTH 8 0
BBX 8 8 0 -1
BITMAP
00
7C
AA
E6
AA
A6
AA
7C
ENDCHAR
STARTCHAR 246D
ENCODING 9325
SWIDTH 1000 0
DWIDTH 8 0
BBX 8 8 0 -1
BITMAP
00
7C
AA
EA
AE
AE
A6
7C
ENDCHAR
STARTCHAR 246E
ENCODING 9326
SWIDTH 1000 0
DWIDTH 8 0
BBX 8 8 0 -1
BITMAP
00
7C
AE
EA
AE
A6
AA
7C
ENDCHAR
STARTCHAR 246F
ENCODING 9327
SWIDTH 1000 0
DWIDTH 8 0
BBX 8 8 0 -1
BITMAP
00
7C
A6
EA
AE
AE
AE
7C
ENDCHAR
STARTCHAR 2470
ENCODING 9328
SWIDTH 1000 0
DWIDTH 8 0
BBX 8 8 0 -1
BITMAP
00
7C
AE
E6
AA
AA
AA
7C
ENDCHAR
STARTCHAR 2471
ENCODING 9329
SWIDTH 1000 0
DWIDTH 8 0
BBX 8 8 0 -1
BITMAP
00
7C
AE
EE
A2
AE
AE
7C
ENDCHAR
STARTCHAR 2472
ENCODING 9330
SWIDTH 1000 0
DWIDTH 8 0
BBX 8 8 0 -1
BITMAP
00
7C
AE
EE
AE
A6
AA
7C
ENDCHAR
STARTCHAR 2473
ENCODING 9331
SWIDTH 1000 0
DWIDTH 8 0
BBX 8 8 0 -1
BITMAP
00
7C
E2
AE
EA
CE
E2
7C
ENDCHAR
STARTCHAR 2474
ENCODING 9332
SWIDTH 1000 0
DWIDTH 8 0
BBX 8 8 0 -1
BITMAP
00
44
92
B2
92
92
BA
44
ENDCHAR
STARTCHAR 2475
ENCODING 9333
SWIDTH 1000 0
DWIDTH 8 0
BBX 8 8 0 -1
BITMAP
00
44
B2
8A
92
A2
BA
44
ENDCHAR
STARTCHAR 2476
ENCODING 9334
SWIDTH 1000 0
DWIDTH 8 0
BBX 8 8 0 -1
BITMAP
00
44
B2
8A
92
8A
B2
44
ENDCHAR
STARTCHAR 2477
ENCODING 9335
SWIDTH 1000 0
DWIDTH 8 0
BBX 8 8 0 -1
BITMAP
00
44
8A
9A
AA
BA
8A
44
ENDCHAR
STARTCHAR 2478
ENCODING 9336
SWIDTH 1000 0
DWIDTH 8 0
BBX 8 8 0 -1
BITMAP
00
44
BA
A2
B2
8A
B2
44
ENDCHAR
STARTCHAR 2479
ENCODING 9337
SWIDTH 1000 0
DWIDTH 8 0
BBX 8 8 0 -1
BITMAP
00
44
92
A2
B2
AA
92
44
ENDCHAR
STARTCHAR 247A
ENCODING 9338
SWIDTH 1000 0
DWIDTH 8 0
BBX 8 8 0 -1
BITMAP
00
44
BA
8A
92
92
92
44
ENDCHAR
STARTCHAR 247B
ENCODING 9339
SWIDTH 1000 0
DWIDTH 8 0
BBX 8 8 0 -1
BITMAP
00
44
92
AA
92
AA
92
44
ENDCHAR
STARTCHAR 247C
ENCODING 9340
SWIDTH 1000 0
DWIDTH 8 0
BBX 8 8 0 -1
BITMAP
00
44
92
AA
9A
8A
92
44
ENDCHAR
STARTCHAR 247D
ENCODING 9341
SWIDTH 1000 0
DWIDTH 8 0
BBX 8 8 0 -1
BITMAP
00
44
A2
EE
AA
AE
A2
44
ENDCHAR
STARTCHAR 247E
ENCODING 9342
SWIDTH 1000 0
DWIDTH 8 0
BBX 8 8 0 -1
BITMAP
00
44
A6
EE
A6
A6
A6
44
ENDCHAR
STARTCHAR 247F
ENCODING 9343
SWIDTH 1000 0
DWIDTH 8 0
BBX 8 8 0 -1
BITMAP
00
44
AA
E6
AE
AA
AE
44
ENDCHAR
STARTCHAR 2480
ENCODING 9344
SWIDTH 1000 0
DWIDTH 8 0
BBX 8 8 0 -1
BITMAP
00
44
AA
E6
AA
A6
AA
44
ENDCHAR
STARTCHAR 2481
ENCODING 9345
SWIDTH 1000 0
DWIDTH 8 0
BBX 8 8 0 -1
BITMAP
00
44
AA
EA
AE
A6
A6
44
ENDCHAR
STARTCHAR 2482
ENCODING 9346
SWIDTH 1000 0
DWIDTH 8 0
BBX 8 8 0 -1
BITMAP
00
44
AE
EA
AE
A6
AA
44
ENDCHAR
STARTCHAR 2483
ENCODING 9347
SWIDTH 1000 0
DWIDTH 8 0
BBX 8 8 0 -1
BITMAP
00
44
A6
EA
AE
AE
AE
44
ENDCHAR
STARTCHAR 2484
ENCODING 9348
SWIDTH 1000 0
DWIDTH 8 0
BBX 8 8 0 -1
BITMAP
00
44
AE
E6
AA
AA
AA
44
ENDCHAR
STARTCHAR 2485
ENCODING 9349
SWIDTH 1000 0
DWIDTH 8 0
BBX 8 8 0 -1
BITMAP
00
44
AE
EE
A2
AE
AE
44
ENDCHAR
STARTCHAR 2486
ENCODING 9350
SWIDTH 1000 0
DWIDTH 8 0
BBX 8 8 0 -1
BITMAP
00
44
AE
EE
AE
A6
AA
44
ENDCHAR
STARTCHAR 2487
ENCODING 9351
SWIDTH 1000 0
DWIDTH 8 0
BBX 8 8 0 -1
BITMAP
00
44
E2
AE
EA
CE
E2
44
ENDCHAR
STARTCHAR 2488
ENCODING 9352
SWIDTH 1000 0
DWIDTH 8 0
BBX 8 8 0 -1
BITMAP
00
10
30
10
10
10
10
3A
ENDCHAR
STARTCHAR 2489
ENCODING 9353
SWIDTH 1000 0
DWIDTH 8 0
BBX 8 8 0 -1
BITMAP
00
30
08
08
10
20
20
3A
ENDCHAR
STARTCHAR 248A
ENCODING 9354
SWIDTH 1000 0
DWIDTH 8 0
BBX 8 8 0 -1
BITMAP
00
30
08
08
10
08
08
32
ENDCHAR
STARTCHAR 248B
ENCODING 9355
SWIDTH 1000 0
DWIDTH 8 0
BBX 8 8 0 -1
BITMAP
00
08
18
28
28
28
38
0A
ENDCHAR
STARTCHAR 248C
ENCODING 9356
SWIDTH 1000 0
DWIDTH 8 0
BBX 8 8 0 -1
BITMAP
00
38
20
30
08
08
08
32
ENDCHAR
STARTCHAR 248D
ENCODING 9357
SWIDTH 1000 0
DWIDTH 8 0
BBX 8 8 0 -1
BITMAP
00
10
20
30
28
28
28
12
ENDCHAR
STARTCHAR 248E
ENCODING 9358
SWIDTH 1000 0
DWIDTH 8 0
BBX 8 8 0 -1
BITMAP
00
38
08
08
10
10
10
12
ENDCHAR
STARTCHAR 248F
ENCODING 9359
SWIDTH 1000 0
DWIDTH 8 0
BBX 8 8 0 -1
BITMAP
00
10
28
28
10
28
28
12
ENDCHAR
STARTCHAR 2490
ENCODING 9360
SWIDTH 1000 0
DWIDTH 8 0
BBX 8 8 0 -1
BITMAP
00
10
28
28
28
18
08
12
ENDCHAR
STARTCHAR 2491
ENCODING 9361
SWIDTH 1000 0
DWIDTH 8 0
BBX 8 8 0 -1
BITMAP
00
48
D4
54
54
54
54
4A
ENDCHAR
STARTCHAR 2492
ENCODING 9362
SWIDTH 1000 0
DWIDTH 8 0
BBX 8 8 0 -1
BITMAP
00
48
D8
48
48
48
48
4A
ENDCHAR
STARTCHAR 2493
ENCODING 9363
SWIDTH 1000 0
DWIDTH 8 0
BBX 8 8 0 -1
BITMAP
00
58
C4
44
48
50
50
5A
ENDCHAR
STARTCHAR 2494
ENCODING 9364
SWIDTH 1000 0
DWIDTH 8 0
BBX 8 8 0 -1
BITMAP
00
58
C4
44
48
44
44
5A
ENDCHAR
STARTCHAR 2495
ENCODING 9365
SWIDTH 1000 0
DWIDTH 8 0
BBX 8 8 0 -1
BITMAP
00
48
D8
68
68
68
78
4A
ENDCHAR
STARTCHAR 2496
ENCODING 9366
SWIDTH 1000 0
DWIDTH 8 0
BBX 8 8 0 -1
BITMAP
00
5C
D0
58
44
44
44
5A
ENDCHAR
STARTCHAR 2497
ENCODING 9367
SWIDTH 1000 0
DWIDTH 8 0
BBX 8 8 0 -1
BITMAP
00
48
D0
58
54
54
54
4A
ENDCHAR
STARTCHAR 2498
ENCODING 9368
SWIDTH 1000 0
DWIDTH 8 0
BBX 8 8 0 -1
BITMAP
00
5C
C4
44
48
48
48
4A
ENDCHAR
STARTCHAR 2499
ENCODING 9369
SWIDTH 1000 0
DWIDTH 8 0
BBX 8 8 0 -1
BITMAP
00
48
D4
54
48
54
54
4A
ENDCHAR
STARTCHAR 249A
ENCODING 9370
SWIDTH 1000 0
DWIDTH 8 0
BBX 8 8 0 -1
BITMAP
00
48
D4
54
54
4C
44
4A
ENDCHAR
STARTCHAR 249B
ENCODING 9371
SWIDTH 1000 0
DWIDTH 8 0
BBX 8 8 0 -1
BITMAP
00
C8
34
34
54
94
94
EA
ENDCHAR
STARTCHAR 249C
ENCODING 9372
SWIDTH 1000 0
DWIDTH 8 0
BBX 8 8 0 -1
BITMAP
00
44
82
9A
AA
AA
9A
44
ENDCHAR
STARTCHAR 249D
ENCODING 9373
SWIDTH 1000 0
DWIDTH 8 0
BBX 8 8 0 -1
BITMAP
00
44
A2
A2
B2
AA
B2
44
ENDCHAR
STARTCHAR 249E
ENCODING 9374
SWIDTH 1000 0
DWIDTH 8 0
BBX 8 8 0 -1
BITMAP
00
44
82
9A
A2
A2
9A
44
ENDCHAR
STARTCHAR 249F
ENCODING 9375
SWIDTH 1000 0
DWIDTH 8 0
BBX 8 8 0 -1
BITMAP
00
44
8A
8A
9A
AA
9A
44
ENDCHAR
STARTCHAR 24A0
ENCODING 9376
SWIDTH 1000 0
DWIDTH 8 0
BBX 8 8 0 -1
BITMAP
00
44
82
9A
BA
A2
9A
44
ENDCHAR
STARTCHAR 24A1
ENCODING 9377
SWIDTH 1000 0
DWIDTH 8 0
BBX 8 8 0 -1
BITMAP
00
44
9A
92
BA
92
92
44
ENDCHAR
STARTCHAR 24A2
ENCODING 9378
SWIDTH 1000 0
DWIDTH 8 0
BBX 8 8 0 -1
BITMAP
00
44
9A
AA
9A
8A
B2
44
ENDCHAR
STARTCHAR 24A3
ENCODING 9379
SWIDTH 1000 0
DWIDTH 8 0
BBX 8 8 0 -1
BITMAP
00
44
A2
A2
B2
AA
AA
44
ENDCHAR
STARTCHAR 24A4
ENCODING 9380
SWIDTH 1000 0
DWIDTH 8 0
BBX 8 8 0 -1
BITMAP
00
44
92
82
92
92
92
44
ENDCHAR
STARTCHAR 24A5
ENCODING 9381
SWIDTH 1000 0
DWIDTH 8 0
BBX 8 8 0 -1
BITMAP
00
44
92
82
92
92
B2
44
ENDCHAR
STARTCHAR 24A6
ENCODING 9382
SWIDTH 1000 0
DWIDTH 8 0
BBX 8 8 0 -1
BITMAP
00
44
A2
A2
AA
B2
AA
44
ENDCHAR
STARTCHAR 24A7
ENCODING 9383
SWIDTH 1000 0
DWIDTH 8 0
BBX 8 8 0 -1
BITMAP
00
44
B2
92
92
92
92
44
ENDCHAR
STARTCHAR 24A8
ENCODING 9384
SWIDTH 1000 0
DWIDTH 8 0
BBX 8 8 0 -1
BITMAP
00
44
82
B2
BA
BA
AA
44
ENDCHAR
STARTCHAR 24A9
ENCODING 9385
SWIDTH 1000 0
DWIDTH 8 0
BBX 8 8 0 -1
BITMAP
00
44
82
B2
AA
AA
AA
44
ENDCHAR
STARTCHAR 24AA
ENCODING 9386
SWIDTH 1000 0
DWIDTH 8 0
BBX 8 8 0 -1
BITMAP
00
44
82
92
AA
AA
92
44
ENDCHAR
STARTCHAR 24AB
ENCODING 9387
SWIDTH 1000 0
DWIDTH 8 0
BBX 8 8 0 -1
BITMAP
00
44
B2
AA
B2
A2
A2
44
ENDCHAR
STARTCHAR 24AC
ENCODING 9388
SWIDTH 1000 0
DWIDTH 8 0
BBX 8 8 0 -1
BITMAP
00
44
9A
AA
9A
8A
8A
44
ENDCHAR
STARTCHAR 24AD
ENCODING 9389
SWIDTH 1000 0
DWIDTH 8 0
BBX 8 8 0 -1
BITMAP
00
44
82
AA
B2
A2
A2
44
ENDCHAR
STARTCHAR 24AE
ENCODING 9390
SWIDTH 1000 0
DWIDTH 8 0
BBX 8 8 0 -1
BITMAP
00
44
82
9A
B2
9A
B2
44
ENDCHAR
STARTCHAR 24AF
ENCODING 9391
SWIDTH 1000 0
DWIDTH 8 0
BBX 8 8 0 -1
BITMAP
00
44
92
BA
92
92
9A
44
ENDCHAR
STARTCHAR 24B0
ENCODING 9392
SWIDTH 1000 0
DWIDTH 8 0
BBX 8 8 0 -1
BITMAP
00
44
82
AA
AA
AA
BA
44
ENDCHAR
STARTCHAR 24B1
ENCODING 9393
SWIDTH 1000 0
DWIDTH 8 0
BBX 8 8 0 -1
BITMAP
00
44
82
AA
AA
B2
A2
44
ENDCHAR
STARTCHAR 24B2
ENCODING 9394
SWIDTH 1000 0
DWIDTH 8 0
BBX 8 8 0 -1
BITMAP
00
44
82
AA
AA
BA
BA
44
ENDCHAR
STARTCHAR 24B3
ENCODING 9395
SWIDTH 1000 0
DWIDTH 8 0
BBX 8 8 0 -1
BITMAP
00
44
82
AA
92
92
AA
44
ENDCHAR
STARTCHAR 24B4
ENCODING 9396
SWIDTH 1000 0
DWIDTH 8 0
BBX 8 8 0 -1
BITMAP
00
44
AA
AA
9A
8A
B2
44
ENDCHAR
STARTCHAR 24B5
ENCODING 9397
SWIDTH 1000 0
DWIDTH 8 0
BBX 8 8 0 -1
BITMAP
00
44
BA
8A
92
A2
BA
44
ENDCHAR
STARTCHAR 24BE
ENCODING 9406
SWIDTH 1000 0
DWIDTH 8 0
BBX 8 8 0 -1
BITMAP
00
7C
92
92
92
92
92
7C
ENDCHAR
STARTCHAR 24D4
ENCODING 9428
SWIDTH 1000 0
DWIDTH 8 0
BBX 8 8 0 -1
BITMAP
00
7C
82
9A
BA
A2
9A
7C
ENDCHAR
STARTCHAR 24DB
ENCODING 9435
SWIDTH 1000 0
DWIDTH 8 0
BBX 8 8 0 -1
BITMAP
00
7C
92
92
92
92
92
7C
ENDCHAR
STARTCHAR 24DE
ENCODING 9438
SWIDTH 1000 0
DWIDTH 8 0
BBX 8 8 0 -1
BITMAP
00
38
44
92
AA
92
44
38
ENDCHAR
STARTCHAR 24E5
ENCODING 9445
SWIDTH 1000 0
DWIDTH 8 0
BBX 8 8 0 -1
BITMAP
00
7C
C6
AA
AA
AA
92
7C
ENDCHAR
STARTCHAR 24EA
ENCODING 9450
SWIDTH 1000 0
DWIDTH 8 0
BBX 8 8 0 -1
BITMAP
00
7C
92
AA
AA
AA
92
7C
ENDCHAR
STARTCHAR 2500
ENCODING 9472
SWIDTH 1000 0
DWIDTH 8 0
BBX 8 8 0 -1
BITMAP
00
00
00
00
FF
00
00
00
ENDCHAR
STARTCHAR 2501
ENCODING 9473
SWIDTH 1000 0
DWIDTH 8 0
BBX 8 8 0 -1
BITMAP
00
00
00
FF
FF
FF
00
00
ENDCHAR
STARTCHAR 2502
ENCODING 9474
SWIDTH 1000 0
DWIDTH 8 0
BBX 8 8 0 -1
BITMAP
10
10
10
10
10
10
10
10
ENDCHAR
STARTCHAR 2503
ENCODING 9475
SWIDTH 1000 0
DWIDTH 8 0
BBX 8 8 0 -1
BITMAP
38
38
38
38
38
38
38
38
ENDCHAR
STARTCHAR 2504
ENCODING 9476
SWIDTH 1000 0
DWIDTH 8 0
BBX 8 8 0 -1
BITMAP
00
00
00
00
DA
00
00
00
ENDCHAR
STARTCHAR 2505
ENCODING 9477
SWIDTH 1000 0
DWIDTH 8 0
BBX 8 8 0 -1
BITMAP
00
00
00
DA
DA
DA
00
00
ENDCHAR
STARTCHAR 2506
ENCODING 9478
SWIDTH 1000 0
DWIDTH 8 0
BBX 8 8 0 -1
BITMAP
00
10
00
10
10
00
10
10
ENDCHAR
STARTCHAR 2507
ENCODING 9479
SWIDTH 1000 0
DWIDTH 8 0
BBX 8 8 0 -1
BITMAP
00
38
00
38
38
00
38
38
ENDCHAR
STARTCHAR 2508
ENCODING 9480
SWIDTH 1000 0
DWIDTH 8 0
BBX 8 8 0 -1
BITMAP
00
00
00
00
AA
00
00
00
ENDCHAR
STARTCHAR 2509
ENCODING 9481
SWIDTH 1000 0
DWIDTH 8 0
BBX 8 8 0 -1
BITMAP
00
00
00
AA
AA
AA
00
00
ENDCHAR
STARTCHAR 250A
ENCODING 9482
SWIDTH 1000 0
DWIDTH 8 0
BBX 8 8 0 -1
BITMAP
00
10
00
10
00
10
00
10
ENDCHAR
STARTCHAR 250B
ENCODING 9483
SWIDTH 1000 0
DWIDTH 8 0
BBX 8 8 0 -1
BITMAP
00
38
00
38
00
38
00
38
ENDCHAR
STARTCHAR 250C
ENCODING 9484
SWIDTH 1000 0
DWIDTH 8 0
BBX 8 8 0 -1
BITMAP
00
00
00
00
1F
10
10
10
ENDCHAR
STARTCHAR 250D
ENCODING 9485
SWIDTH 1000 0
DWIDTH 8 0
BBX 8 8 0 -1
BITMAP
00
00
00
1F
1F
1F
10
10
ENDCHAR
STARTCHAR 250E
ENCODING 9486
SWIDTH 1000 0
DWIDTH 8 0
BBX 8 8 0 -1
BITMAP
00
00
00
00
3F
38
38
38
ENDCHAR
STARTCHAR 250F
ENCODING 9487
SWIDTH 1000 0
DWIDTH 8 0
BBX 8 8 0 -1
BITMAP
00
00
00
3F
3F
3F
38
38
ENDCHAR
STARTCHAR 2510
ENCODING 9488
SWIDTH 1000 0
DWIDTH 8 0
BBX 8 8 0 -1
BITMAP
00
00
00
00
F0
10
10
10
ENDCHAR
STARTCHAR 2511
ENCODING 9489
SWIDTH 1000 0
DWIDTH 8 0
BBX 8 8 0 -1
BITMAP
00
00
00
F0
F0
F0
10
10
ENDCHAR
STARTCHAR 2512
ENCODING 9490
SWIDTH 1000 0
DWIDTH 8 0
BBX 8 8 0 -1
BITMAP
00
00
00
00
F8
38
38
38
ENDCHAR
STARTCHAR 2513
ENCODING 9491
SWIDTH 1000 0
DWIDTH 8 0
BBX 8 8 0 -1
BITMAP
00
00
00
F8
F8
F8
38
38
ENDCHAR
STARTCHAR 2514
ENCODING 9492
SWIDTH 1000 0
DWIDTH 8 0
BBX 8 8 0 -1
BITMAP
10
10
10
10
1F
00
00
00
ENDCHAR
STARTCHAR 2515
ENCODING 9493
SWIDTH 1000 0
DWIDTH 8 0
BBX 8 8 0 -1
BITMAP
10
10
10
1F
1F
1F
00
00
ENDCHAR
STARTCHAR 2516
ENCODING 9494
SWIDTH 1000 0
DWIDTH 8 0
BBX 8 8 0 -1
BITMAP
38
38
38
38
3F
00
00
00
ENDCHAR
STARTCHAR 2517
ENCODING 9495
SWIDTH 1000 0
DWIDTH 8 0
BBX 8 8 0 -1
BITMAP
38
38
38
3F
3F
3F
00
00
ENDCHAR
STARTCHAR 2518
ENCODING 9496
SWIDTH 1000 0
DWIDTH 8 0
BBX 8 8 0 -1
BITMAP
10
10
10
10
F0
00
00
00
ENDCHAR
STARTCHAR 2519
ENCODING 9497
SWIDTH 1000 0
DWIDTH 8 0
BBX 8 8 0 -1
BITMAP
10
10
10
F0
F0
F0
00
00
ENDCHAR
STARTCHAR 251A
ENCODING 9498
SWIDTH 1000 0
DWIDTH 8 0
BBX 8 8 0 -1
BITMAP
38
38
38
38
F8
00
00
00
ENDCHAR
STARTCHAR 251B
ENCODING 9499
SWIDTH 1000 0
DWIDTH 8 0
BBX 8 8 0 -1
BITMAP
38
38
38
F8
F8
F8
00
00
ENDCHAR
STARTCHAR 251C
ENCODING 9500
SWIDTH 1000 0
DWIDTH 8 0
BBX 8 8 0 -1
BITMAP
10
10
10
10
1F
10
10
10
ENDCHAR
STARTCHAR 251D
ENCODING 9501
SWIDTH 1000 0
DWIDTH 8 0
BBX 8 8 0 -1
BITMAP
10
10
10
1F
1F
1F
10
10
ENDCHAR
STARTCHAR 251E
ENCODING 9502
SWIDTH 1000 0
DWIDTH 8 0
BBX 8 8 0 -1
BITMAP
38
38
38
38
3F
10
10
10
ENDCHAR
STARTCHAR 251F
ENCODING 9503
SWIDTH 1000 0
DWIDTH 8 0
BBX 8 8 0 -1
BITMAP
10
10
10
10
3F
38
38
38
ENDCHAR
STARTCHAR 2520
ENCODING 9504
SWIDTH 1000 0
DWIDTH 8 0
BBX 8 8 0 -1
BITMAP
38
38
38
38
3F
38
38
38
ENDCHAR
STARTCHAR 2521
ENCODING 9505
SWIDTH 1000 0
DWIDTH 8 0
BBX 8 8 0 -1
BITMAP
38
38
38
3F
3F
3F
10
10
ENDCHAR
STARTCHAR 2522
ENCODING 9506
SWIDTH 1000 0
DWIDTH 8 0
BBX 8 8 0 -1
BITMAP
10
10
10
3F
3F
3F
38
38
ENDCHAR
STARTCHAR 2523
ENCODING 9507
SWIDTH 1000 0
DWIDTH 8 0
BBX 8 8 0 -1
BITMAP
38
38
38
3F
3F
3F
38
38
ENDCHAR
STARTCHAR 2524
ENCODING 9508
SWIDTH 1000 0
DWIDTH 8 0
BBX 8 8 0 -1
BITMAP
10
10
10
10
F0
10
10
10
ENDCHAR
STARTCHAR 2525
ENCODING 9509
SWIDTH 1000 0
DWIDTH 8 0
BBX 8 8 0 -1
BITMAP
10
10
10
F0
F0
F0
10
10
ENDCHAR
STARTCHAR 2526
ENCODING 9510
SWIDTH 1000 0
DWIDTH 8 0
BBX 8 8 0 -1
BITMAP
38
38
38
38
F8
10
10
10
ENDCHAR
STARTCHAR 2527
ENCODING 9511
SWIDTH 1000 0
DWIDTH 8 0
BBX 8 8 0 -1
BITMAP
10
10
10
10
F8
38
38
38
ENDCHAR
STARTCHAR 2528
ENCODING 9512
SWIDTH 1000 0
DWIDTH 8 0
BBX 8 8 0 -1
BITMAP
38
38
38
38
F8
38
38
38
ENDCHAR
STARTCHAR 2529
ENCODING 9513
SWIDTH 1000 0
DWIDTH 8 0
BBX 8 8 0 -1
BITMAP
38
38
38
F8
F8
F8
10
10
ENDCHAR
STARTCHAR 252A
ENCODING 9514
SWIDTH 1000 0
DWIDTH 8 0
BBX 8 8 0 -1
BITMAP
10
10
10
F8
F8
F8
38
38
ENDCHAR
STARTCHAR 252B
ENCODING 9515
SWIDTH 1000 0
DWIDTH 8 0
BBX 8 8 0 -1
BITMAP
38
38
38
F8
F8
F8
38
38
ENDCHAR
STARTCHAR 252C
ENCODING 9516
SWIDTH 1000 0
DWIDTH 8 0
BBX 8 8 0 -1
BITMAP
00
00
00
00
FF
10
10
10
ENDCHAR
STARTCHAR 252D
ENCODING 9517
SWIDTH 1000 0
DWIDTH 8 0
BBX 8 8 0 -1
BITMAP
00
00
00
F0
FF
F0
10
10
ENDCHAR
STARTCHAR 252E
ENCODING 9518
SWIDTH 1000 0
DWIDTH 8 0
BBX 8 8 0 -1
BITMAP
00
00
00
1F
FF
1F
10
10
ENDCHAR
STARTCHAR 252F
ENCODING 9519
SWIDTH 1000 0
DWIDTH 8 0
BBX 8 8 0 -1
BITMAP
00
00
00
FF
FF
FF
10
10
ENDCHAR
STARTCHAR 2530
ENCODING 9520
SWIDTH 1000 0
DWIDTH 8 0
BBX 8 8 0 -1
BITMAP
00
00
00
00
FF
38
38
38
ENDCHAR
STARTCHAR 2531
ENCODING 9521
SWIDTH 1000 0
DWIDTH 8 0
BBX 8 8 0 -1
BITMAP
00
00
00
F8
FF
F8
38
38
ENDCHAR
STARTCHAR 2532
ENCODING 9522
SWIDTH 1000 0
DWIDTH 8 0
BBX 8 8 0 -1
BITMAP
00
00
00
3F
FF
38
38
38
ENDCHAR
STARTCHAR 2533
ENCODING 9523
SWIDTH 1000 0
DWIDTH 8 0
BBX 8 8 0 -1
BITMAP
00
00
00
FF
FF
FF
38
38
ENDCHAR
STARTCHAR 2534
ENCODING 9524
SWIDTH 1000 0
DWIDTH 8 0
BBX 8 8 0 -1
BITMAP
10
10
10
10
FF
00
00
00
ENDCHAR
STARTCHAR 2535
ENCODING 9525
SWIDTH 1000 0
DWIDTH 8 0
BBX 8 8 0 -1
BITMAP
10
10
10
F0
FF
F0
00
00
ENDCHAR
STARTCHAR 2536
ENCODING 9526
SWIDTH 1000 0
DWIDTH 8 0
BBX 8 8 0 -1
BITMAP
10
10
10
1F
FF
1F
00
00
ENDCHAR
STARTCHAR 2537
ENCODING 9527
SWIDTH 1000 0
DWIDTH 8 0
BBX 8 8 0 -1
BITMAP
10
10
10
FF
FF
FF
00
00
ENDCHAR
STARTCHAR 2538
ENCODING 9528
SWIDTH 1000 0
DWIDTH 8 0
BBX 8 8 0 -1
BITMAP
38
38
38
38
FF
00
00
00
ENDCHAR
STARTCHAR 2539
ENCODING 9529
SWIDTH 1000 0
DWIDTH 8 0
BBX 8 8 0 -1
BITMAP
38
38
38
F8
FF
F8
00
00
ENDCHAR
STARTCHAR 253A
ENCODING 9530
SWIDTH 1000 0
DWIDTH 8 0
BBX 8 8 0 -1
BITMAP
38
38
38
3F
FF
3F
00
00
ENDCHAR
STARTCHAR 253B
ENCODING 9531
SWIDTH 1000 0
DWIDTH 8 0
BBX 8 8 0 -1
BITMAP
38
38
38
FF
FF
FF
00
00
ENDCHAR
STARTCHAR 253C
ENCODING 9532
SWIDTH 1000 0
DWIDTH 8 0
BBX 8 8 0 -1
BITMAP
10
10
10
10
FF
10
10
10
ENDCHAR
STARTCHAR 253D
ENCODING 9533
SWIDTH 1000 0
DWIDTH 8 0
BBX 8 8 0 -1
BITMAP
10
10
10
F0
FF
F0
10
10
ENDCHAR
STARTCHAR 253E
ENCODING 9534
SWIDTH 1000 0
DWIDTH 8 0
BBX 8 8 0 -1
BITMAP
10
10
10
1F
FF
1F
10
10
ENDCHAR
STARTCHAR 253F
ENCODING 9535
SWIDTH 1000 0
DWIDTH 8 0
BBX 8 8 0 -1
BITMAP
10
10
10
FF
FF
FF
10
10
ENDCHAR
STARTCHAR 2540
ENCODING 9536
SWIDTH 1000 0
DWIDTH 8 0
BBX 8 8 0 -1
BITMAP
38
38
38
38
FF
10
10
10
ENDCHAR
STARTCHAR 2541
ENCODING 9537
SWIDTH 1000 0
DWIDTH 8 0
BBX 8 8 0 -1
BITMAP
10
10
10
10
FF
38
38
38
ENDCHAR
STARTCHAR 2542
ENCODING 9538
SWIDTH 1000 0
DWIDTH 8 0
BBX 8 8 0 -1
BITMAP
38
38
38
38
FF
38
38
38
ENDCHAR
STARTCHAR 2543
ENCODING 9539
SWIDTH 1000 0
DWIDTH 8 0
BBX 8 8 0 -1
BITMAP
38
38
38
F8
FF
F8
10
10
ENDCHAR
STARTCHAR 2544
ENCODING 9540
SWIDTH 1000 0
DWIDTH 8 0
BBX 8 8 0 -1
BITMAP
38
38
38
3F
FF
3F
10
10
ENDCHAR
STARTCHAR 2545
ENCODING 9541
SWIDTH 1000 0
DWIDTH 8 0
BBX 8 8 0 -1
BITMAP
10
10
10
F8
FF
F8
38
38
ENDCHAR
STARTCHAR 2546
ENCODING 9542
SWIDTH 1000 0
DWIDTH 8 0
BBX 8 8 0 -1
BITMAP
10
10
10
3F
FF
3F
38
38
ENDCHAR
STARTCHAR 2547
ENCODING 9543
SWIDTH 1000 0
DWIDTH 8 0
BBX 8 8 0 -1
BITMAP
38
38
38
FF
FF
FF
10
10
ENDCHAR
STARTCHAR 2548
ENCODING 9544
SWIDTH 1000 0
DWIDTH 8 0
BBX 8 8 0 -1
BITMAP
10
10
10
FF
FF
FF
38
38
ENDCHAR
STARTCHAR 2549
ENCODING 9545
SWIDTH 1000 0
DWIDTH 8 0
BBX 8 8 0 -1
BITMAP
38
38
38
F8
FF
F8
38
38
ENDCHAR
STARTCHAR 254A
ENCODING 9546
SWIDTH 1000 0
DWIDTH 8 0
BBX 8 8 0 -1
BITMAP
38
38
38
3F
FF
3F
38
38
ENDCHAR
STARTCHAR 254B
ENCODING 9547
SWIDTH 1000 0
DWIDTH 8 0
BBX 8 8 0 -1
BITMAP
38
38
38
FF
FF
FF
38
38
ENDCHAR
STARTCHAR 254C
ENCODING 9548
SWIDTH 1000 0
DWIDTH 8 0
BBX 8 8 0 -1
BITMAP
00
00
00
00
EE
00
00
00
ENDCHAR
STARTCHAR 254D
ENCODING 9549
SWIDTH 1000 0
DWIDTH 8 0
BBX 8 8 0 -1
BITMAP
00
00
00
EE
EE
EE
00
00
ENDCHAR
STARTCHAR 254E
ENCODING 9550
SWIDTH 1000 0
DWIDTH 8 0
BBX 8 8 0 -1
BITMAP
00
10
10
10
00
10
10
10
ENDCHAR
STARTCHAR 254F
ENCODING 9551
SWIDTH 1000 0
DWIDTH 8 0
BBX 8 8 0 -1
BITMAP
00
38
38
38
00
38
38
38
ENDCHAR
STARTCHAR 2550
ENCODING 9552
SWIDTH 1000 0
DWIDTH 8 0
BBX 8 8 0 -1
BITMAP
00
00
00
FF
00
FF
00
00
ENDCHAR
STARTCHAR 2551
ENCODING 9553
SWIDTH 1000 0
DWIDTH 8 0
BBX 8 8 0 -1
BITMAP
28
28
28
28
28
28
28
28
ENDCHAR
STARTCHAR 2552
ENCODING 9554
SWIDTH 1000 0
DWIDTH 8 0
BBX 8 8 0 -1
BITMAP
00
00
00
1F
10
1F
10
10
ENDCHAR
STARTCHAR 2553
ENCODING 9555
SWIDTH 1000 0
DWIDTH 8 0
BBX 8 8 0 -1
BITMAP
00
00
00
00
3F
28
28
28
ENDCHAR
STARTCHAR 2554
ENCODING 9556
SWIDTH 1000 0
DWIDTH 8 0
BBX 8 8 0 -1
BITMAP
00
00
00
3F
20
2F
28
28
ENDCHAR
STARTCHAR 2555
ENCODING 9557
SWIDTH 1000 0
DWIDTH 8 0
BBX 8 8 0 -1
BITMAP
00
00
00
F0
10
F0
10
10
ENDCHAR
STARTCHAR 2556
ENCODING 9558
SWIDTH 1000 0
DWIDTH 8 0
BBX 8 8 0 -1
BITMAP
00
00
00
00
F8
28
28
28
ENDCHAR
STARTCHAR 2557
ENCODING 9559
SWIDTH 1000 0
DWIDTH 8 0
BBX 8 8 0 -1
BITMAP
00
00
00
F8
08
E8
28
28
ENDCHAR
STARTCHAR 2558
ENCODING 9560
SWIDTH 1000 0
DWIDTH 8 0
BBX 8 8 0 -1
BITMAP
10
10
10
1F
10
1F
00
00
ENDCHAR
STARTCHAR 2559
ENCODING 9561
SWIDTH 1000 0
DWIDTH 8 0
BBX 8 8 0 -1
BITMAP
28
28
28
28
3F
00
00
00
ENDCHAR
STARTCHAR 255A
ENCODING 9562
SWIDTH 1000 0
DWIDTH 8 0
BBX 8 8 0 -1
BITMAP
28
28
28
2F
20
3F
00
00
ENDCHAR
STARTCHAR 255B
ENCODING 9563
SWIDTH 1000 0
DWIDTH 8 0
BBX 8 8 0 -1
BITMAP
10
10
10
F0
10
F0
00
00
ENDCHAR
STARTCHAR 255C
ENCODING 9564
SWIDTH 1000 0
DWIDTH 8 0
BBX 8 8 0 -1
BITMAP
28
28
28
28
F8
00
00
00
ENDCHAR
STARTCHAR 255D
ENCODING 9565
SWIDTH 1000 0
DWIDTH 8 0
BBX 8 8 0 -1
BITMAP
28
28
28
E8
08
F8
00
00
ENDCHAR
STARTCHAR 255E
ENCODING 9566
SWIDTH 1000 0
DWIDTH 8 0
BBX 8 8 0 -1
BITMAP
10
10
10
1F
10
1F
10
10
ENDCHAR
STARTCHAR 255F
ENCODING 9567
SWIDTH 1000 0
DWIDTH 8 0
BBX 8 8 0 -1
BITMAP
28
28
28
28
2F
28
28
28
ENDCHAR
STARTCHAR 2560
ENCODING 9568
SWIDTH 1000 0
DWIDTH 8 0
BBX 8 8 0 -1
BITMAP
28
28
28
2F
20
2F
28
28
ENDCHAR
STARTCHAR 2561
ENCODING 9569
SWIDTH 1000 0
DWIDTH 8 0
BBX 8 8 0 -1
BITMAP
10
10
10
F0
10
F0
10
10
ENDCHAR
STARTCHAR 2562
ENCODING 9570
SWIDTH 1000 0
DWIDTH 8 0
BBX 8 8 0 -1
BITMAP
28
28
28
28
E8
28
28
28
ENDCHAR
STARTCHAR 2563
ENCODING 9571
SWIDTH 1000 0
DWIDTH 8 0
BBX 8 8 0 -1
BITMAP
28
28
28
E8
08
E8
28
28
ENDCHAR
STARTCHAR 2564
ENCODING 9572
SWIDTH 1000 0
DWIDTH 8 0
BBX 8 8 0 -1
BITMAP
00
00
00
FF
00
FF
10
10
ENDCHAR
STARTCHAR 2565
ENCODING 9573
SWIDTH 1000 0
DWIDTH 8 0
BBX 8 8 0 -1
BITMAP
00
00
00
00
FF
28
28
28
ENDCHAR
STARTCHAR 2566
ENCODING 9574
SWIDTH 1000 0
DWIDTH 8 0
BBX 8 8 0 -1
BITMAP
00
00
00
FF
00
EF
28
28
ENDCHAR
STARTCHAR 2567
ENCODING 9575
SWIDTH 1000 0
DWIDTH 8 0
BBX 8 8 0 -1
BITMAP
10
10
10
FF
00
FF
00
00
ENDCHAR
STARTCHAR 2568
ENCODING 9576
SWIDTH 1000 0
DWIDTH 8 0
BBX 8 8 0 -1
BITMAP
28
28
28
28
FF
00
00
00
ENDCHAR
STARTCHAR 2569
ENCODING 9577
SWIDTH 1000 0
DWIDTH 8 0
BBX 8 8 0 -1
BITMAP
28
28
28
EF
00
FF
00
00
ENDCHAR
STARTCHAR 256A
ENCODING 9578
SWIDTH 1000 0
DWIDTH 8 0
BBX 8 8 0 -1
BITMAP
10
10
10
FF
10
FF
10
10
ENDCHAR
STARTCHAR 256B
ENCODING 9579
SWIDTH 1000 0
DWIDTH 8 0
BBX 8 8 0 -1
BITMAP
28
28
28
28
FF
28
28
28
ENDCHAR
STARTCHAR 256C
ENCODING 9580
SWIDTH 1000 0
DWIDTH 8 0
BBX 8 8 0 -1
BITMAP
28
28
28
EF
00
EF
28
28
ENDCHAR
STARTCHAR 256D
ENCODING 9581
SWIDTH 1000 0
DWIDTH 8 0
BBX 8 8 0 -1
BITMAP
00
00
00
00
07
08
10
10
ENDCHAR
STARTCHAR 256E
ENCODING 9582
SWIDTH 1000 0
DWIDTH 8 0
BBX 8 8 0 -1
BITMAP
00
00
00
00
C0
20
10
10
ENDCHAR
STARTCHAR 256F
ENCODING 9583
SWIDTH 1000 0
DWIDTH 8 0
BBX 8 8 0 -1
BITMAP
10
10
10
20
C0
00
00
00
ENDCHAR
STARTCHAR 2570
ENCODING 9584
SWIDTH 1000 0
DWIDTH 8 0
BBX 8 8 0 -1
BITMAP
10
10
10
08
07
00
00
00
ENDCHAR
STARTCHAR 2571
ENCODING 9585
SWIDTH 1000 0
DWIDTH 8 0
BBX 8 8 0 -1
BITMAP
01
02
04
08
10
20
40
80
ENDCHAR
STARTCHAR 2572
ENCODING 9586
SWIDTH 1000 0
DWIDTH 8 0
BBX 8 8 0 -1
BITMAP
80
40
20
10
08
04
02
01
ENDCHAR
STARTCHAR 2573
ENCODING 9587
SWIDTH 1000 0
DWIDTH 8 0
BBX 8 8 0 -1
BITMAP
81
42
24
18
18
24
42
81
ENDCHAR
STARTCHAR 2574
ENCODING 9588
SWIDTH 1000 0
DWIDTH 8 0
BBX 8 8 0 -1
BITMAP
00
00
00
00
F0
00
00
00
ENDCHAR
STARTCHAR 2575
ENCODING 9589
SWIDTH 1000 0
DWIDTH 8 0
BBX 8 8 0 -1
BITMAP
10
10
10
10
10
00
00
00
ENDCHAR
STARTCHAR 2576
ENCODING 9590
SWIDTH 1000 0
DWIDTH 8 0
BBX 8 8 0 -1
BITMAP
00
00
00
00
1F
00
00
00
ENDCHAR
STARTCHAR 2577
ENCODING 9591
SWIDTH 1000 0
DWIDTH 8 0
BBX 8 8 0 -1
BITMAP
00
00
00
00
10
10
10
10
ENDCHAR
STARTCHAR 2578
ENCODING 9592
SWIDTH 1000 0
DWIDTH 8 0
BBX 8 8 0 -1
BITMAP
00
00
00
F0
F0
F0
00
00
ENDCHAR
STARTCHAR 2579
ENCODING 9593
SWIDTH 1000 0
DWIDTH 8 0
BBX 8 8 0 -1
BITMAP
38
38
38
38
38
00
00
00
ENDCHAR
STARTCHAR 257A
ENCODING 9594
SWIDTH 1000 0
DWIDTH 8 0
BBX 8 8 0 -1
BITMAP
00
00
00
1F
1F
1F
00
00
ENDCHAR
STARTCHAR 257B
ENCODING 9595
SWIDTH 1000 0
DWIDTH 8 0
BBX 8 8 0 -1
BITMAP
00
00
00
00
38
38
38
38
ENDCHAR
STARTCHAR 257C
ENCODING 9596
SWIDTH 1000 0
DWIDTH 8 0
BBX 8 8 0 -1
BITMAP
00
00
00
1F
FF
1F
00
00
ENDCHAR
STARTCHAR 257D
ENCODING 9597
SWIDTH 1000 0
DWIDTH 8 0
BBX 8 8 0 -1
BITMAP
10
10
10
10
38
38
38
38
ENDCHAR
STARTCHAR 257E
ENCODING 9598
SWIDTH 1000 0
DWIDTH 8 0
BBX 8 8 0 -1
BITMAP
00
00
00
F0
FF
F0
00
00
ENDCHAR
STARTCHAR 257F
ENCODING 9599
SWIDTH 1000 0
DWIDTH 8 0
BBX 8 8 0 -1
BITMAP
38
38
38
38
38
10
10
10
ENDCHAR
STARTCHAR 2580
ENCODING 9600
SWIDTH 1000 0
DWIDTH 8 0
BBX 8 8 0 -1
BITMAP
FF
FF
FF
FF
00
00
00
00
ENDCHAR
STARTCHAR 2581
ENCODING 9601
SWIDTH 1000 0
DWIDTH 8 0
BBX 8 8 0 -1
BITMAP
00
00
00
00
00
00
00
FF
ENDCHAR
STARTCHAR 2582
ENCODING 9602
SWIDTH 1000 0
DWIDTH 8 0
BBX 8 8 0 -1
BITMAP
00
00
00
00
00
00
FF
FF
ENDCHAR
STARTCHAR 2583
ENCODING 9603
SWIDTH 1000 0
DWIDTH 8 0
BBX 8 8 0 -1
BITMAP
00
00
00
00
00
FF
FF
FF
ENDCHAR
STARTCHAR 2584
ENCODING 9604
SWIDTH 1000 0
DWIDTH 8 0
BBX 8 8 0 -1
BITMAP
00
00
00
00
FF
FF
FF
FF
ENDCHAR
STARTCHAR 2585
ENCODING 9605
SWIDTH 1000 0
DWIDTH 8 0
BBX 8 8 0 -1
BITMAP
00
00
00
FF
FF
FF
FF
FF
ENDCHAR
STARTCHAR 2586
ENCODING 9606
SWIDTH 1000 0
DWIDTH 8 0
BBX 8 8 0 -1
BITMAP
00
00
FF
FF
FF
FF
FF
FF
ENDCHAR
STARTCHAR 2587
ENCODING 9607
SWIDTH 1000 0
DWIDTH 8 0
BBX 8 8 0 -1
BITMAP
00
FF
FF
FF
FF
FF
FF
FF
ENDCHAR
STARTCHAR 2588
ENCODING 9608
SWIDTH 1000 0
DWIDTH 8 0
BBX 8 8 0 -1
BITMAP
FF
FF
FF
FF
FF
FF
FF
FF
ENDCHAR
STARTCHAR 2589
ENCODING 9609
SWIDTH 1000 0
DWIDTH 8 0
BBX 8 8 0 -1
BITMAP
FE
FE
FE
FE
FE
FE
FE
FE
ENDCHAR
STARTCHAR 258A
ENCODING 9610
SWIDTH 1000 0
DWIDTH 8 0
BBX 8 8 0 -1
BITMAP
FC
FC
FC
FC
FC
FC
FC
FC
ENDCHAR
STARTCHAR 258B
ENCODING 9611
SWIDTH 1000 0
DWIDTH 8 0
BBX 8 8 0 -1
BITMAP
F8
F8
F8
F8
F8
F8
F8
F8
ENDCHAR
STARTCHAR 258C
ENCODING 9612
SWIDTH 1000 0
DWIDTH 8 0
BBX 8 8 0 -1
BITMAP
F0
F0
F0
F0
F0
F0
F0
F0
ENDCHAR
STARTCHAR 258D
ENCODING 9613
SWIDTH 1000 0
DWIDTH 8 0
BBX 8 8 0 -1
BITMAP
E0
E0
E0
E0
E0
E0
E0
E0
ENDCHAR
STARTCHAR 258E
ENCODING 9614
SWIDTH 1000 0
DWIDTH 8 0
BBX 8 8 0 -1
BITMAP
C0
C0
C0
C0
C0
C0
C0
C0
ENDCHAR
STARTCHAR 258F
ENCODING 9615
SWIDTH 1000 0
DWIDTH 8 0
BBX 8 8 0 -1
BITMAP
80
80
80
80
80
80
80
80
ENDCHAR
STARTCHAR 2590
ENCODING 9616
SWIDTH 1000 0
DWIDTH 8 0
BBX 8 8 0 -1
BITMAP
0F
0F
0F
0F
0F
0F
0F
0F
ENDCHAR
STARTCHAR 2591
ENCODING 9617
SWIDTH 1000 0
DWIDTH 8 0
BBX 8 8 0 -1
BITMAP
AA
00
AA
00
AA
00
AA
00
ENDCHAR
STARTCHAR 2592
ENCODING 9618
SWIDTH 1000 0
DWIDTH 8 0
BBX 8 8 0 -1
BITMAP
AA
55
AA
55
AA
55
AA
55
ENDCHAR
STARTCHAR 2593
ENCODING 9619
SWIDTH 1000 0
DWIDTH 8 0
BBX 8 8 0 -1
BITMAP
FF
AA
FF
AA
FF
AA
FF
AA
ENDCHAR
STARTCHAR 2594
ENCODING 9620
SWIDTH 1000 0
DWIDTH 8 0
BBX 8 8 0 -1
BITMAP
FF
00
00
00
00
00
00
00
ENDCHAR
STARTCHAR 2595
ENCODING 9621
SWIDTH 1000 0
DWIDTH 8 0
BBX 8 8 0 -1
BITMAP
01
01
01
01
01
01
01
01
ENDCHAR
STARTCHAR 2596
ENCODING 9622
SWIDTH 1000 0
DWIDTH 8 0
BBX 8 8 0 -1
BITMAP
00
00
00
00
F0
F0
F0
F0
ENDCHAR
STARTCHAR 2597
ENCODING 9623
SWIDTH 1000 0
DWIDTH 8 0
BBX 8 8 0 -1
BITMAP
00
00
00
00
0F
0F
0F
0F
ENDCHAR
STARTCHAR 2598
ENCODING 9624
SWIDTH 1000 0
DWIDTH 8 0
BBX 8 8 0 -1
BITMAP
F0
F0
F0
F0
00
00
00
00
ENDCHAR
STARTCHAR 2599
ENCODING 9625
SWIDTH 1000 0
DWIDTH 8 0
BBX 8 8 0 -1
BITMAP
F0
F0
F0
F0
FF
FF
FF
FF
ENDCHAR
STARTCHAR 259A
ENCODING 9626
SWIDTH 1000 0
DWIDTH 8 0
BBX 8 8 0 -1
BITMAP
F0
F0
F0
F0
0F
0F
0F
0F
ENDCHAR
STARTCHAR 259B
ENCODING 9627
SWIDTH 1000 0
DWIDTH 8 0
BBX 8 8 0 -1
BITMAP
FF
FF
FF
FF
F0
F0
F0
F0
ENDCHAR
STARTCHAR 259C
ENCODING 9628
SWIDTH 1000 0
DWIDTH 8 0
BBX 8 8 0 -1
BITMAP
FF
FF
FF
FF
0F
0F
0F
0F
ENDCHAR
STARTCHAR 259D
ENCODING 9629
SWIDTH 1000 0
DWIDTH 8 0
BBX 8 8 0 -1
BITMAP
0F
0F
0F
0F
00
00
00
00
ENDCHAR
STARTCHAR 259E
ENCODING 9630
SWIDTH 1000 0
DWIDTH 8 0
BBX 8 8 0 -1
BITMAP
0F
0F
0F
0F
F0
F0
F0
F0
ENDCHAR
STARTCHAR 259F
ENCODING 9631
SWIDTH 1000 0
DWIDTH 8 0
BBX 8 8 0 -1
BITMAP
0F
0F
0F
0F
FF
FF
FF
FF
ENDCHAR
STARTCHAR 25A0
ENCODING 9632
SWIDTH 1000 0
DWIDTH 8 0
BBX 8 8 0 -1
BITMAP
00
FE
FE
FE
FE
FE
FE
FE
ENDCHAR
STARTCHAR 25A1
ENCODING 9633
SWIDTH 1000 0
DWIDTH 8 0
BBX 8 8 0 -1
BITMAP
00
FE
82
82
82
82
82
FE
ENDCHAR
STARTCHAR 25A2
ENCODING 9634
SWIDTH 1000 0
DWIDTH 8 0
BBX 8 8 0 -1
BITMAP
00
7C
82
82
82
82
82
7C
ENDCHAR
STARTCHAR 25A3
ENCODING 9635
SWIDTH 1000 0
DWIDTH 8 0
BBX 8 8 0 -1
BITMAP
00
FE
82
BA
BA
BA
82
FE
ENDCHAR
STARTCHAR 25A4
ENCODING 9636
SWIDTH 1000 0
DWIDTH 8 0
BBX 8 8 0 -1
BITMAP
00
FE
82
FE
82
FE
82
FE
ENDCHAR
STARTCHAR 25A5
ENCODING 9637
SWIDTH 1000 0
DWIDTH 8 0
BBX 8 8 0 -1
BITMAP
00
FE
AA
AA
AA
AA
AA
FE
ENDCHAR
STARTCHAR 25A6
ENCODING 9638
SWIDTH 1000 0
DWIDTH 8 0
BBX 8 8 0 -1
BITMAP
00
FE
AA
FE
AA
FE
AA
FE
ENDCHAR
STARTCHAR 25A7
ENCODING 9639
SWIDTH 1000 0
DWIDTH 8 0
BBX 8 8 0 -1
BITMAP
00
FE
CA
A6
92
CA
A6
FE
ENDCHAR
STARTCHAR 25A8
ENCODING 9640
SWIDTH 1000 0
DWIDTH 8 0
BBX 8 8 0 -1
BITMAP
00
FE
A6
CA
92
A6
CA
FE
ENDCHAR
STARTCHAR 25A9
ENCODING 9641
SWIDTH 1000 0
DWIDTH 8 0
BBX 8 8 0 -1
BITMAP
00
FE
D6
AA
D6
AA
D6
FE
ENDCHAR
STARTCHAR 25AA
ENCODING 9642
SWIDTH 1000 0
DWIDTH 8 0
BBX 8 8 0 -1
BITMAP
00
00
00
38
38
38
00
00
ENDCHAR
STARTCHAR 25AB
ENCODING 9643
SWIDTH 1000 0
DWIDTH 8 0
BBX 8 8 0 -1
BITMAP
00
00
00
38
28
38
00
00
ENDCHAR
STARTCHAR 25AC
ENCODING 9644
SWIDTH 1000 0
DWIDTH 8 0
BBX 8 8 0 -1
BITMAP
00
00
00
FE
FE
FE
00
00
ENDCHAR
STARTCHAR 25AD
ENCODING 9645
SWIDTH 1000 0
DWIDTH 8 0
BBX 8 8 0 -1
BITMAP
00
00
00
FE
82
FE
00
00
ENDCHAR
STARTCHAR 25AE
ENCODING 9646
SWIDTH 1000 0
DWIDTH 8 0
BBX 8 8 0 -1
BITMAP
00
38
38
38
38
38
38
38
ENDCHAR
STARTCHAR 25AF
ENCODING 9647
SWIDTH 1000 0
DWIDTH 8 0
BBX 8 8 0 -1
BITMAP
00
38
28
28
28
28
28
38
ENDCHAR
STARTCHAR 25B0
ENCODING 9648
SWIDTH 1000 0
DWIDTH 8 0
BBX 8 8 0 -1
BITMAP
00
00
00
3E
7C
F8
00
00
ENDCHAR
STARTCHAR 25B1
ENCODING 9649
SWIDTH 1000 0
DWIDTH 8 0
BBX 8 8 0 -1
BITMAP
00
00
00
3E
44
F8
00
00
ENDCHAR
STARTCHAR 25B2
ENCODING 9650
SWIDTH 1000 0
DWIDTH 8 0
BBX 8 8 0 -1
BITMAP
00
10
38
38
7C
7C
FE
FE
ENDCHAR
STARTCHAR 25B3
ENCODING 9651
SWIDTH 1000 0
DWIDTH 8 0
BBX 8 8 0 -1
BITMAP
00
10
28
28
44
44
82
FE
ENDCHAR
STARTCHAR 25B4
ENCODING 9652
SWIDTH 1000 0
DWIDTH 8 0
BBX 8 8 0 -1
BITMAP
00
00
10
38
38
7C
7C
00
ENDCHAR
STARTCHAR 25B5
ENCODING 9653
SWIDTH 1000 0
DWIDTH 8 0
BBX 8 8 0 -1
BITMAP
00
00
10
28
28
44
7C
00
ENDCHAR
STARTCHAR 25B6
ENCODING 9654
SWIDTH 1000 0
DWIDTH 8 0
BBX 8 8 0 -1
BITMAP
00
C0
F0
FC
FE
FC
F0
C0
ENDCHAR
STARTCHAR 25B7
ENCODING 9655
SWIDTH 1000 0
DWIDTH 8 0
BBX 8 8 0 -1
BITMAP
00
C0
B0
8C
82
8C
B0
C0
ENDCHAR
STARTCHAR 25B8
ENCODING 9656
SWIDTH 1000 0
DWIDTH 8 0
BBX 8 8 0 -1
BITMAP
00
00
60
78
7C
78
60
00
ENDCHAR
STARTCHAR 25B9
ENCODING 9657
SWIDTH 1000 0
DWIDTH 8 0
BBX 8 8 0 -1
BITMAP
00
00
60
58
44
58
60
00
ENDCHAR
STARTCHAR 25BA
ENCODING 9658
SWIDTH 1000 0
DWIDTH 8 0
BBX 8 8 0 -1
BITMAP
00
00
C0
F8
FE
F8
C0
00
ENDCHAR
STARTCHAR 25BB
ENCODING 9659
SWIDTH 1000 0
DWIDTH 8 0
BBX 8 8 0 -1
BITMAP
00
00
C0
B8
86
B8
C0
00
ENDCHAR
STARTCHAR 25BC
ENCODING 9660
SWIDTH 1000 0
DWIDTH 8 0
BBX 8 8 0 -1
BITMAP
00
FE
FE
7C
7C
38
38
10
ENDCHAR
STARTCHAR 25BD
ENCODING 9661
SWIDTH 1000 0
DWIDTH 8 0
BBX 8 8 0 -1
BITMAP
00
FE
82
44
44
28
28
10
ENDCHAR
STARTCHAR 25BE
ENCODING 9662
SWIDTH 1000 0
DWIDTH 8 0
BBX 8 8 0 -1
BITMAP
00
00
7C
7C
38
38
10
00
ENDCHAR
STARTCHAR 25BF
ENCODING 9663
SWIDTH 1000 0
DWIDTH 8 0
BBX 8 8 0 -1
BITMAP
00
00
7C
44
28
28
10
00
ENDCHAR
STARTCHAR 25C0
ENCODING 9664
SWIDTH 1000 0
DWIDTH 8 0
BBX 8 8 0 -1
BITMAP
00
06
1E
7E
FE
7E
1E
06
ENDCHAR
STARTCHAR 25C1
ENCODING 9665
SWIDTH 1000 0
DWIDTH 8 0
BBX 8 8 0 -1
BITMAP
00
06
1A
62
82
62
1A
06
ENDCHAR
STARTCHAR 25C2
ENCODING 9666
SWIDTH 1000 0
DWIDTH 8 0
BBX 8 8 0 -1
BITMAP
00
00
0C
3C
7C
3C
0C
00
ENDCHAR
STARTCHAR 25C3
ENCODING 9667
SWIDTH 1000 0
DWIDTH 8 0
BBX 8 8 0 -1
BITMAP
00
00
0C
34
44
34
0C
00
ENDCHAR
STARTCHAR 25C4
ENCODING 9668
SWIDTH 1000 0
DWIDTH 8 0
BBX 8 8 0 -1
BITMAP
00
00
06
3E
FE
3E
06
00
ENDCHAR
STARTCHAR 25C5
ENCODING 9669
SWIDTH 1000 0
DWIDTH 8 0
BBX 8 8 0 -1
BITMAP
00
00
06
3A
C2
3A
06
00
ENDCHAR
STARTCHAR 25C6
ENCODING 9670
SWIDTH 1000 0
DWIDTH 8 0
BBX 8 8 0 -1
BITMAP
00
10
38
7C
FE
7C
38
10
ENDCHAR
STARTCHAR 25C7
ENCODING 9671
SWIDTH 1000 0
DWIDTH 8 0
BBX 8 8 0 -1
BITMAP
00
10
28
44
82
44
28
10
ENDCHAR
STARTCHAR 25C8
ENCODING 9672
SWIDTH 1000 0
DWIDTH 8 0
BBX 8 8 0 -1
BITMAP
00
10
28
44
92
44
28
10
ENDCHAR
STARTCHAR 25C9
ENCODING 9673
SWIDTH 1000 0
DWIDTH 8 0
BBX 8 8 0 -1
BITMAP
00
38
44
BA
BA
BA
44
38
ENDCHAR
STARTCHAR 25CA
ENCODING 9674
SWIDTH 1000 0
DWIDTH 8 0
BBX 8 8 0 -1
BITMAP
00
10
28
28
44
28
28
10
ENDCHAR
STARTCHAR 25CB
ENCODING 9675
SWIDTH 1000 0
DWIDTH 8 0
BBX 8 8 0 -1
BITMAP
00
38
44
82
82
82
44
38
ENDCHAR
STARTCHAR 25CC
ENCODING 9676
SWIDTH 1000 0
DWIDTH 8 0
BBX 8 8 0 -1
BITMAP
00
10
44
00
82
00
44
10
ENDCHAR
STARTCHAR 25CD
ENCODING 9677
SWIDTH 1000 0
DWIDTH 8 0
BBX 8 8 0 -1
BITMAP
00
38
6C
AA
AA
AA
6C
38
ENDCHAR
STARTCHAR 25CE
ENCODING 9678
SWIDTH 1000 0
DWIDTH 8 0
BBX 8 8 0 -1
BITMAP
00
38
44
BA
AA
BA
44
38
ENDCHAR
STARTCHAR 25CF
ENCODING 9679
SWIDTH 1000 0
DWIDTH 8 0
BBX 8 8 0 -1
BITMAP
00
38
7C
FE
FE
FE
7C
38
ENDCHAR
STARTCHAR 25D0
ENCODING 9680
SWIDTH 1000 0
DWIDTH 8 0
BBX 8 8 0 -1
BITMAP
00
38
74
F2
F2
F2
74
38
ENDCHAR
STARTCHAR 25D1
ENCODING 9681
SWIDTH 1000 0
DWIDTH 8 0
BBX 8 8 0 -1
BITMAP
00
38
5C
9E
9E
9E
5C
38
ENDCHAR
STARTCHAR 25D2
ENCODING 9682
SWIDTH 1000 0
DWIDTH 8 0
BBX 8 8 0 -1
BITMAP
00
38
44
82
FE
FE
7C
38
ENDCHAR
STARTCHAR 25D3
ENCODING 9683
SWIDTH 1000 0
DWIDTH 8 0
BBX 8 8 0 -1
BITMAP
00
38
7C
FE
FE
82
44
38
ENDCHAR
STARTCHAR 25D4
ENCODING 9684
SWIDTH 1000 0
DWIDTH 8 0
BBX 8 8 0 -1
BITMAP
00
38
5C
9E
9E
82
44
38
ENDCHAR
STARTCHAR 25D5
ENCODING 9685
SWIDTH 1000 0
DWIDTH 8 0
BBX 8 8 0 -1
BITMAP
00
38
5C
9E
FE
FE
7C
38
ENDCHAR
STARTCHAR 25D6
ENCODING 9686
SWIDTH 1000 0
DWIDTH 8 0
BBX 8 8 0 -1
BITMAP
00
30
70
F0
F0
F0
70
30
ENDCHAR
STARTCHAR 25D7
ENCODING 9687
SWIDTH 1000 0
DWIDTH 8 0
BBX 8 8 0 -1
BITMAP
00
18
1C
1E
1E
1E
1C
18
ENDCHAR
STARTCHAR 25D8
ENCODING 9688
SWIDTH 1000 0
DWIDTH 8 0
BBX 8 8 0 -1
BITMAP
00
FE
C6
82
82
82
C6
FE
ENDCHAR
STARTCHAR 25D9
ENCODING 9689
SWIDTH 1000 0
DWIDTH 8 0
BBX 8 8 0 -1
BITMAP
00
FE
C6
BA
BA
BA
C6
FE
ENDCHAR
STARTCHAR 25DA
ENCODING 9690
SWIDTH 1000 0
DWIDTH 8 0
BBX 8 8 0 -1
BITMAP
00
FE
C6
BA
BA
00
00
00
ENDCHAR
STARTCHAR 25DB
ENCODING 9691
SWIDTH 1000 0
DWIDTH 8 0
BBX 8 8 0 -1
BITMAP
00
00
00
00
BA
BA
C6
FE
ENDCHAR
STARTCHAR 25DC
ENCODING 9692
SWIDTH 1000 0
DWIDTH 8 0
BBX 8 8 0 -1
BITMAP
00
30
40
80
80
00
00
00
ENDCHAR
STARTCHAR 25DD
ENCODING 9693
SWIDTH 1000 0
DWIDTH 8 0
BBX 8 8 0 -1
BITMAP
00
18
04
02
02
00
00
00
ENDCHAR
STARTCHAR 25DE
ENCODING 9694
SWIDTH 1000 0
DWIDTH 8 0
BBX 8 8 0 -1
BITMAP
00
00
00
00
02
02
04
18
ENDCHAR
STARTCHAR 25DF
ENCODING 9695
SWIDTH 1000 0
DWIDTH 8 0
BBX 8 8 0 -1
BITMAP
00
00
00
00
80
80
40
30
ENDCHAR
STARTCHAR 25E0
ENCODING 9696
SWIDTH 1000 0
DWIDTH 8 0
BBX 8 8 0 -1
BITMAP
00
38
44
82
82
00
00
00
ENDCHAR
STARTCHAR 25E1
ENCODING 9697
SWIDTH 1000 0
DWIDTH 8 0
BBX 8 8 0 -1
BITMAP
00
00
00
00
82
82
44
38
ENDCHAR
STARTCHAR 25E2
ENCODING 9698
SWIDTH 1000 0
DWIDTH 8 0
BBX 8 8 0 -1
BITMAP
00
02
06
0E
1E
3E
7E
FE
ENDCHAR
STARTCHAR 25E3
ENCODING 9699
SWIDTH 1000 0
DWIDTH 8 0
BBX 8 8 0 -1
BITMAP
00
80
C0
E0
F0
F8
FC
FE
ENDCHAR
STARTCHAR 25E4
ENCODING 9700
SWIDTH 1000 0
DWIDTH 8 0
BBX 8 8 0 -1
BITMAP
00
FE
FC
F8
F0
E0
C0
80
ENDCHAR
STARTCHAR 25E5
ENCODING 9701
SWIDTH 1000 0
DWIDTH 8 0
BBX 8 8 0 -1
BITMAP
00
FE
7E
3E
1E
0E
06
02
ENDCHAR
STARTCHAR 25E6
ENCODING 9702
SWIDTH 1000 0
DWIDTH 8 0
BBX 8 8 0 -1
BITMAP
00
00
18
24
24
18
00
00
ENDCHAR
STARTCHAR 25E7
ENCODING 9703
SWIDTH 1000 0
DWIDTH 8 0
BBX 8 8 0 -1
BITMAP
00
FE
F2
F2
F2
F2
F2
FE
ENDCHAR
STARTCHAR 25E8
ENCODING 9704
SWIDTH 1000 0
DWIDTH 8 0
BBX 8 8 0 -1
BITMAP
00
FE
9E
9E
9E
9E
9E
FE
ENDCHAR
STARTCHAR 25E9
ENCODING 9705
SWIDTH 1000 0
DWIDTH 8 0
BBX 8 8 0 -1
BITMAP
00
FE
FE
FA
F2
E2
C2
FE
ENDCHAR
STARTCHAR 25EA
ENCODING 9706
SWIDTH 1000 0
DWIDTH 8 0
BBX 8 8 0 -1
BITMAP
00
FE
86
8E
9E
BE
FE
FE
ENDCHAR
STARTCHAR 25EB
ENCODING 9707
SWIDTH 1000 0
DWIDTH 8 0
BBX 8 8 0 -1
BITMAP
00
FE
92
92
92
92
92
FE
ENDCHAR
STARTCHAR 25EC
ENCODING 9708
SWIDTH 1000 0
DWIDTH 8 0
BBX 8 8 0 -1
BITMAP
00
10
28
28
44
54
82
FE
ENDCHAR
STARTCHAR 25ED
ENCODING 9709
SWIDTH 1000 0
DWIDTH 8 0
BBX 8 8 0 -1
BITMAP
00
10
38
38
74
74
F2
FE
ENDCHAR
STARTCHAR 25EE
ENCODING 9710
SWIDTH 1000 0
DWIDTH 8 0
BBX 8 8 0 -1
BITMAP
00
10
38
38
5C
5C
9E
FE
ENDCHAR
STARTCHAR 25EF
ENCODING 9711
SWIDTH 1000 0
DWIDTH 8 0
BBX 8 8 0 -1
BITMAP
3C
42
81
81
81
81
42
3C
ENDCHAR
STARTCHAR 25F0
ENCODING 9712
SWIDTH 1000 0
DWIDTH 8 0
BBX 8 8 0 -1
BITMAP
00
FE
92
92
F2
82
82
FE
ENDCHAR
STARTCHAR 25F1
ENCODING 9713
SWIDTH 1000 0
DWIDTH 8 0
BBX 8 8 0 -1
BITMAP
00
FE
82
82
F2
92
92
FE
ENDCHAR
STARTCHAR 25F2
ENCODING 9714
SWIDTH 1000 0
DWIDTH 8 0
BBX 8 8 0 -1
BITMAP
00
FE
82
82
9E
92
92
FE
ENDCHAR
STARTCHAR 25F3
ENCODING 9715
SWIDTH 1000 0
DWIDTH 8 0
BBX 8 8 0 -1
BITMAP
00
FE
92
92
9E
82
82
FE
ENDCHAR
STARTCHAR 25F4
ENCODING 9716
SWIDTH 1000 0
DWIDTH 8 0
BBX 8 8 0 -1
BITMAP
00
38
54
92
F2
82
44
38
ENDCHAR
STARTCHAR 25F5
ENCODING 9717
SWIDTH 1000 0
DWIDTH 8 0
BBX 8 8 0 -1
BITMAP
00
38
44
82
F2
92
54
38
ENDCHAR
STARTCHAR 25F6
ENCODING 9718
SWIDTH 1000 0
DWIDTH 8 0
BBX 8 8 0 -1
BITMAP
00
38
44
82
9E
92
54
38
ENDCHAR
STARTCHAR 25F7
ENCODING 9719
SWIDTH 1000 0
DWIDTH 8 0
BBX 8 8 0 -1
BITMAP
00
38
54
92
9E
82
44
38
ENDCHAR
STARTCHAR 25F8
ENCODING 9720
SWIDTH 1000 0
DWIDTH 8 0
BBX 8 8 0 -1
BITMAP
00
FE
84
88
90
A0
C0
80
ENDCHAR
STARTCHAR 25F9
ENCODING 9721
SWIDTH 1000 0
DWIDTH 8 0
BBX 8 8 0 -1
BITMAP
00
FE
42
22
12
0A
06
02
ENDCHAR
STARTCHAR 25FA
ENCODING 9722
SWIDTH 1000 0
DWIDTH 8 0
BBX 8 8 0 -1
BITMAP
00
80
C0
A0
90
88
84
FE
ENDCHAR
STARTCHAR 25FB
ENCODING 9723
SWIDTH 1000 0
DWIDTH 8 0
BBX 8 8 0 -1
BITMAP
00
00
7C
44
44
44
7C
00
ENDCHAR
STARTCHAR 25FC
ENCODING 9724
SWIDTH 1000 0
DWIDTH 8 0
BBX 8 8 0 -1
BITMAP
00
00
7C
7C
7C
7C
7C
00
ENDCHAR
STARTCHAR 25FD
ENCODING 9725
SWIDTH 1000 0
DWIDTH 8 0
BBX 8 8 0 -1
BITMAP
00
00
3C
24
24
3C
00
00
ENDCHAR
STARTCHAR 25FE
ENCODING 9726
SWIDTH 1000 0
DWIDTH 8 0
BBX 8 8 0 -1
BITMAP
00
00
3C
3C
3C
3C
00
00
ENDCHAR
STARTCHAR 25FF
ENCODING 9727
SWIDTH 1000 0
DWIDTH 8 0
BBX 8 8 0 -1
BITMAP
00
02
06
0A
12
22
42
FE
ENDCHAR
STARTCHAR 2600
ENCODING 9728
SWIDTH 1000 0
DWIDTH 8 0
BBX 8 8 0 -1
BITMAP
00
10
44
10
BA
10
44
10
ENDCHAR
STARTCHAR 2601
ENCODING 9729
SWIDTH 1000 0
DWIDTH 8 0
BBX 8 8 0 -1
BITMAP
00
00
38
7C
FE
58
00
00
ENDCHAR
STARTCHAR 2602
ENCODING 9730
SWIDTH 1000 0
DWIDTH 8 0
BBX 8 8 0 -1
BITMAP
00
10
7C
FE
FE
10
10
30
ENDCHAR
STARTCHAR 2603
ENCODING 9731
SWIDTH 1000 0
DWIDTH 8 0
BBX 8 8 0 -1
BITMAP
00
28
82
38
44
38
44
38
ENDCHAR
STARTCHAR 2604
ENCODING 9732
SWIDTH 1000 0
DWIDTH 8 0
BBX 8 8 0 -1
BITMAP
00
10
24
48
12
44
A8
40
ENDCHAR
STARTCHAR 2605
ENCODING 9733
SWIDTH 1000 0
DWIDTH 8 0
BBX 8 8 0 -1
BITMAP
00
10
10
FE
38
38
6C
44
ENDCHAR
STARTCHAR 2606
ENCODING 9734
SWIDTH 1000 0
DWIDTH 8 0
BBX 8 8 0 -1
BITMAP
00
10
10
FE
28
38
6C
44
ENDCHAR
STARTCHAR 2607
ENCODING 9735
SWIDTH 1000 0
DWIDTH 8 0
BBX 8 8 0 -1
BITMAP
00
04
08
10
24
14
0C
3C
ENDCHAR
STARTCHAR 2608
ENCODING 9736
SWIDTH 1000 0
DWIDTH 8 0
BBX 8 8 0 -1
BITMAP
00
FE
84
88
92
8A
86
9E
ENDCHAR
STARTCHAR 2609
ENCODING 9737
SWIDTH 1000 0
DWIDTH 8 0
BBX 8 8 0 -1
BITMAP
00
00
38
44
54
44
38
00
ENDCHAR
STARTCHAR 260A
ENCODING 9738
SWIDTH 1000 0
DWIDTH 8 0
BBX 8 8 0 -1
BITMAP
00
7C
82
44
44
44
AA
44
ENDCHAR
STARTCHAR 260B
ENCODING 9739
SWIDTH 1000 0
DWIDTH 8 0
BBX 8 8 0 -1
BITMAP
00
44
AA
44
44
44
82
7C
ENDCHAR
STARTCHAR 260C
ENCODING 9740
SWIDTH 1000 0
DWIDTH 8 0
BBX 8 8 0 -1
BITMAP
00
02
04
08
70
90
90
60
ENDCHAR
STARTCHAR 260D
ENCODING 9741
SWIDTH 1000 0
DWIDTH 8 0
BBX 8 8 0 -1
BITMAP
00
0C
12
12
7C
90
90
60
ENDCHAR
STARTCHAR 260E
ENCODING 9742
SWIDTH 1000 0
DWIDTH 8 0
BBX 8 8 0 -1
BITMAP
00
38
44
00
38
7C
6C
7C
ENDCHAR
STARTCHAR 260F
ENCODING 9743
SWIDTH 1000 0
DWIDTH 8 0
BBX 8 8 0 -1
BITMAP
00
38
44
00
38
44
54
7C
ENDCHAR
STARTCHAR 261C
ENCODING 9756
SWIDTH 1000 0
DWIDTH 8 0
BBX 8 8 0 -1
BITMAP
00
00
7E
82
7A
32
3E
00
ENDCHAR
STARTCHAR 261E
ENCODING 9758
SWIDTH 1000 0
DWIDTH 8 0
BBX 8 8 0 -1
BITMAP
00
00
FC
82
BC
98
F8
00
ENDCHAR
STARTCHAR 262D
ENCODING 9773
SWIDTH 1000 0
DWIDTH 8 0
BBX 8 8 0 -1
BITMAP
00
20
74
E2
52
0C
4C
B2
ENDCHAR
STARTCHAR 262E
ENCODING 9774
SWIDTH 1000 0
DWIDTH 8 0
BBX 8 8 0 -1
BITMAP
00
7C
92
92
BA
D6
92
7C
ENDCHAR
STARTCHAR 262F
ENCODING 9775
SWIDTH 1000 0
DWIDTH 8 0
BBX 8 8 0 -1
BITMAP
00
7C
82
A2
D2
F6
FE
7C
ENDCHAR
STARTCHAR 2639
ENCODING 9785
SWIDTH 1000 0
DWIDTH 8 0
BBX 8 8 0 -1
BITMAP
00
7C
82
AA
82
92
AA
7C
ENDCHAR
STARTCHAR 263A
ENCODING 9786
SWIDTH 1000 0
DWIDTH 8 0
BBX 8 8 0 -1
BITMAP
00
7C
82
AA
82
AA
92
7C
ENDCHAR
STARTCHAR 263B
ENCODING 9787
SWIDTH 1000 0
DWIDTH 8 0
BBX 8 8 0 -1
BITMAP
00
7C
FE
D6
FE
BA
C6
7C
ENDCHAR
STARTCHAR 263C
ENCODING 9788
SWIDTH 1000 0
DWIDTH 8 0
BBX 8 8 0 -1
BITMAP
00
10
44
10
AA
10
44
10
ENDCHAR
STARTCHAR 263D
ENCODING 9789
SWIDTH 1000 0
DWIDTH 8 0
BBX 8 8 0 -1
BITMAP
00
30
28
38
14
38
28
30
ENDCHAR
STARTCHAR 263E
ENCODING 9790
SWIDTH 1000 0
DWIDTH 8 0
BBX 8 8 0 -1
BITMAP
00
18
28
38
50
38
28
18
ENDCHAR
STARTCHAR 2640
ENCODING 9792
SWIDTH 1000 0
DWIDTH 8 0
BBX 8 8 0 -1
BITMAP
00
38
44
44
38
10
7C
10
ENDCHAR
STARTCHAR 2642
ENCODING 9794
SWIDTH 1000 0
DWIDTH 8 0
BBX 8 8 0 -1
BITMAP
00
1E
06
0A
72
90
90
60
ENDCHAR
STARTCHAR 2660
ENCODING 9824
SWIDTH 1000 0
DWIDTH 8 0
BBX 8 8 0 -1
BITMAP
00
10
38
7C
FE
FE
10
38
ENDCHAR
STARTCHAR 2661
ENCODING 9825
SWIDTH 1000 0
DWIDTH 8 0
BBX 8 8 0 -1
BITMAP
00
6C
92
82
82
44
28
10
ENDCHAR
STARTCHAR 2662
ENCODING 9826
SWIDTH 1000 0
DWIDTH 8 0
BBX 8 8 0 -1
BITMAP
00
10
28
44
82
44
28
10
ENDCHAR
STARTCHAR 2663
ENCODING 9827
SWIDTH 1000 0
DWIDTH 8 0
BBX 8 8 0 -1
BITMAP
00
38
38
FE
FE
D6
10
38
ENDCHAR
STARTCHAR 2664
ENCODING 9828
SWIDTH 1000 0
DWIDTH 8 0
BBX 8 8 0 -1
BITMAP
00
10
28
44
82
EE
10
38
ENDCHAR
STARTCHAR 2665
ENCODING 9829
SWIDTH 1000 0
DWIDTH 8 0
BBX 8 8 0 -1
BITMAP
00
6C
FE
FE
FE
7C
38
10
ENDCHAR
STARTCHAR 2666
ENCODING 9830
SWIDTH 1000 0
DWIDTH 8 0
BBX 8 8 0 -1
BITMAP
00
10
38
7C
FE
7C
38
10
ENDCHAR
STARTCHAR 2667
ENCODING 9831
SWIDTH 1000 0
DWIDTH 8 0
BBX 8 8 0 -1
BITMAP
00
38
28
D6
BA
D6
10
38
ENDCHAR
STARTCHAR 2668
ENCODING 9832
SWIDTH 1000 0
DWIDTH 8 0
BBX 8 8 0 -1
BITMAP
00
28
50
50
28
AA
82
7C
ENDCHAR
STARTCHAR 2669
ENCODING 9833
SWIDTH 1000 0
DWIDTH 8 0
BBX 8 8 0 -1
BITMAP
00
08
08
08
08
18
38
10
ENDCHAR
STARTCHAR 266A
ENCODING 9834
SWIDTH 1000 0
DWIDTH 8 0
BBX 8 8 0 -1
BITMAP
00
10
18
14
14
30
70
60
ENDCHAR
STARTCHAR 266B
ENCODING 9835
SWIDTH 1000 0
DWIDTH 8 0
BBX 8 8 0 -1
BITMAP
00
0C
74
44
44
4C
CC
C0
ENDCHAR
STARTCHAR 266C
ENCODING 9836
SWIDTH 1000 0
DWIDTH 8 0
BBX 8 8 0 -1
BITMAP
00
1C
64
5C
64
4C
CC
C0
ENDCHAR
STARTCHAR 266D
ENCODING 9837
SWIDTH 1000 0
DWIDTH 8 0
BBX 8 8 0 -1
BITMAP
00
20
20
28
34
24
28
30
ENDCHAR
STARTCHAR 266F
ENCODING 9839
SWIDTH 1000 0
DWIDTH 8 0
BBX 8 8 0 -1
BITMAP
00
04
26
3C
66
3C
64
20
ENDCHAR
STARTCHAR 2686
ENCODING 9862
SWIDTH 1000 0
DWIDTH 8 0
BBX 8 8 0 -1
BITMAP
00
38
44
82
8A
82
44
38
ENDCHAR
STARTCHAR 2800
ENCODING 10240
SWIDTH 500 0
DWIDTH 4 0
BBX 4 8 0 -1
BITMAP
00
00
00
00
00
00
00
00
ENDCHAR
STARTCHAR 2801
ENCODING 10241
SWIDTH 500 0
DWIDTH 4 0
BBX 4 8 0 -1
BITMAP
00
80
00
00
00
00
00
00
ENDCHAR
STARTCHAR 2802
ENCODING 10242
SWIDTH 500 0
DWIDTH 4 0
BBX 4 8 0 -1
BITMAP
00
00
00
80
00
00
00
00
ENDCHAR
STARTCHAR 2803
ENCODING 10243
SWIDTH 500 0
DWIDTH 4 0
BBX 4 8 0 -1
BITMAP
00
80
00
80
00
00
00
00
ENDCHAR
STARTCHAR 2804
ENCODING 10244
SWIDTH 500 0
DWIDTH 4 0
BBX 4 8 0 -1
BITMAP
00
00
00
00
00
80
00
00
ENDCHAR
STARTCHAR 2805
ENCODING 10245
SWIDTH 500 0
DWIDTH 4 0
BBX 4 8 0 -1
BITMAP
00
80
00
00
00
80
00
00
ENDCHAR
STARTCHAR 2806
ENCODING 10246
SWIDTH 500 0
DWIDTH 4 0
BBX 4 8 0 -1
BITMAP
00
00
00
80
00
80
00
00
ENDCHAR
STARTCHAR 2807
ENCODING 10247
SWIDTH 500 0
DWIDTH 4 0
BBX 4 8 0 -1
BITMAP
00
80
00
80
00
80
00
00
ENDCHAR
STARTCHAR 2808
ENCODING 10248
SWIDTH 500 0
DWIDTH 4 0
BBX 4 8 0 -1
BITMAP
00
20
00
00
00
00
00
00
ENDCHAR
STARTCHAR 2809
ENCODING 10249
SWIDTH 500 0
DWIDTH 4 0
BBX 4 8 0 -1
BITMAP
00
A0
00
00
00
00
00
00
ENDCHAR
STARTCHAR 280A
ENCODING 10250
SWIDTH 500 0
DWIDTH 4 0
BBX 4 8 0 -1
BITMAP
00
20
00
80
00
00
00
00
ENDCHAR
STARTCHAR 280B
ENCODING 10251
SWIDTH 500 0
DWIDTH 4 0
BBX 4 8 0 -1
BITMAP
00
A0
00
80
00
00
00
00
ENDCHAR
STARTCHAR 280C
ENCODING 10252
SWIDTH 500 0
DWIDTH 4 0
BBX 4 8 0 -1
BITMAP
00
20
00
00
00
80
00
00
ENDCHAR
STARTCHAR 280D
ENCODING 10253
SWIDTH 500 0
DWIDTH 4 0
BBX 4 8 0 -1
BITMAP
00
A0
00
00
00
80
00
00
ENDCHAR
STARTCHAR 280E
ENCODING 10254
SWIDTH 500 0
DWIDTH 4 0
BBX 4 8 0 -1
BITMAP
00
20
00
80
00
80
00
00
ENDCHAR
STARTCHAR 280F
ENCODING 10255
SWIDTH 500 0
DWIDTH 4 0
BBX 4 8 0 -1
BITMAP
00
A0
00
80
00
80
00
00
ENDCHAR
STARTCHAR 2810
ENCODING 10256
SWIDTH 500 0
DWIDTH 4 0
BBX 4 8 0 -1
BITMAP
00
00
00
20
00
00
00
00
ENDCHAR
STARTCHAR 2811
ENCODING 10257
SWIDTH 500 0
DWIDTH 4 0
BBX 4 8 0 -1
BITMAP
00
80
00
20
00
00
00
00
ENDCHAR
STARTCHAR 2812
ENCODING 10258
SWIDTH 500 0
DWIDTH 4 0
BBX 4 8 0 -1
BITMAP
00
00
00
A0
00
00
00
00
ENDCHAR
STARTCHAR 2813
ENCODING 10259
SWIDTH 500 0
DWIDTH 4 0
BBX 4 8 0 -1
BITMAP
00
80
00
A0
00
00
00
00
ENDCHAR
STARTCHAR 2814
ENCODING 10260
SWIDTH 500 0
DWIDTH 4 0
BBX 4 8 0 -1
BITMAP
00
00
00
20
00
80
00
00
ENDCHAR
STARTCHAR 2815
ENCODING 10261
SWIDTH 500 0
DWIDTH 4 0
BBX 4 8 0 -1
BITMAP
00
80
00
20
00
80
00
00
ENDCHAR
STARTCHAR 2816
ENCODING 10262
SWIDTH 500 0
DWIDTH 4 0
BBX 4 8 0 -1
BITMAP
00
00
00
A0
00
80
00
00
ENDCHAR
STARTCHAR 2817
ENCODING 10263
SWIDTH 500 0
DWIDTH 4 0
BBX 4 8 0 -1
BITMAP
00
80
00
A0
00
80
00
00
ENDCHAR
STARTCHAR 2818
ENCODING 10264
SWIDTH 500 0
DWIDTH 4 0
BBX 4 8 0 -1
BITMAP
00
20
00
20
00
00
00
00
ENDCHAR
STARTCHAR 2819
ENCODING 10265
SWIDTH 500 0
DWIDTH 4 0
BBX 4 8 0 -1
BITMAP
00
A0
00
20
00
00
00
00
ENDCHAR
STARTCHAR 281A
ENCODING 10266
SWIDTH 500 0
DWIDTH 4 0
BBX 4 8 0 -1
BITMAP
00
20
00
A0
00
00
00
00
ENDCHAR
STARTCHAR 281B
ENCODING 10267
SWIDTH 500 0
DWIDTH 4 0
BBX 4 8 0 -1
BITMAP
00
A0
00
A0
00
00
00
00
ENDCHAR
STARTCHAR 281C
ENCODING 10268
SWIDTH 500 0
DWIDTH 4 0
BBX 4 8 0 -1
BITMAP
00
20
00
20
00
80
00
00
ENDCHAR
STARTCHAR 281D
ENCODING 10269
SWIDTH 500 0
DWIDTH 4 0
BBX 4 8 0 -1
BITMAP
00
A0
00
20
00
80
00
00
ENDCHAR
STARTCHAR 281E
ENCODING 10270
SWIDTH 500 0
DWIDTH 4 0
BBX 4 8 0 -1
BITMAP
00
20
00
A0
00
80
00
00
ENDCHAR
STARTCHAR 281F
ENCODING 10271
SWIDTH 500 0
DWIDTH 4 0
BBX 4 8 0 -1
BITMAP
00
A0
00
A0
00
80
00
00
ENDCHAR
STARTCHAR 2820
ENCODING 10272
SWIDTH 500 0
DWIDTH 4 0
BBX 4 8 0 -1
BITMAP
00
00
00
00
00
20
00
00
ENDCHAR
STARTCHAR 2821
ENCODING 10273
SWIDTH 500 0
DWIDTH 4 0
BBX 4 8 0 -1
BITMAP
00
80
00
00
00
20
00
00
ENDCHAR
STARTCHAR 2822
ENCODING 10274
SWIDTH 500 0
DWIDTH 4 0
BBX 4 8 0 -1
BITMAP
00
00
00
80
00
20
00
00
ENDCHAR
STARTCHAR 2823
ENCODING 10275
SWIDTH 500 0
DWIDTH 4 0
BBX 4 8 0 -1
BITMAP
00
80
00
80
00
20
00
00
ENDCHAR
STARTCHAR 2824
ENCODING 10276
SWIDTH 500 0
DWIDTH 4 0
BBX 4 8 0 -1
BITMAP
00
00
00
00
00
A0
00
00
ENDCHAR
STARTCHAR 2825
ENCODING 10277
SWIDTH 500 0
DWIDTH 4 0
BBX 4 8 0 -1
BITMAP
00
80
00
00
00
A0
00
00
ENDCHAR
STARTCHAR 2826
ENCODING 10278
SWIDTH 500 0
DWIDTH 4 0
BBX 4 8 0 -1
BITMAP
00
00
00
80
00
A0
00
00
ENDCHAR
STARTCHAR 2827
ENCODING 10279
SWIDTH 500 0
DWIDTH 4 0
BBX 4 8 0 -1
BITMAP
00
80
00
80
00
A0
00
00
ENDCHAR
STARTCHAR 2828
ENCODING 10280
SWIDTH 500 0
DWIDTH 4 0
BBX 4 8 0 -1
BITMAP
00
20
00
00
00
20
00
00
ENDCHAR
STARTCHAR 2829
ENCODING 10281
SWIDTH 500 0
DWIDTH 4 0
BBX 4 8 0 -1
BITMAP
00
A0
00
00
00
20
00
00
ENDCHAR
STARTCHAR 282A
ENCODING 10282
SWIDTH 500 0
DWIDTH 4 0
BBX 4 8 0 -1
BITMAP
00
20
00
80
00
20
00
00
ENDCHAR
STARTCHAR 282B
ENCODING 10283
SWIDTH 500 0
DWIDTH 4 0
BBX 4 8 0 -1
BITMAP
00
A0
00
80
00
20
00
00
ENDCHAR
STARTCHAR 282C
ENCODING 10284
SWIDTH 500 0
DWIDTH 4 0
BBX 4 8 0 -1
BITMAP
00
20
00
00
00
A0
00
00
ENDCHAR
STARTCHAR 282D
ENCODING 10285
SWIDTH 500 0
DWIDTH 4 0
BBX 4 8 0 -1
BITMAP
00
A0
00
00
00
A0
00
00
ENDCHAR
STARTCHAR 282E
ENCODING 10286
SWIDTH 500 0
DWIDTH 4 0
BBX 4 8 0 -1
BITMAP
00
20
00
80
00
A0
00
00
ENDCHAR
STARTCHAR 282F
ENCODING 10287
SWIDTH 500 0
DWIDTH 4 0
BBX 4 8 0 -1
BITMAP
00
A0
00
80
00
A0
00
00
ENDCHAR
STARTCHAR 2830
ENCODING 10288
SWIDTH 500 0
DWIDTH 4 0
BBX 4 8 0 -1
BITMAP
00
00
00
20
00
20
00
00
ENDCHAR
STARTCHAR 2831
ENCODING 10289
SWIDTH 500 0
DWIDTH 4 0
BBX 4 8 0 -1
BITMAP
00
80
00
20
00
20
00
00
ENDCHAR
STARTCHAR 2832
ENCODING 10290
SWIDTH 500 0
DWIDTH 4 0
BBX 4 8 0 -1
BITMAP
00
00
00
A0
00
20
00
00
ENDCHAR
STARTCHAR 2833
ENCODING 10291
SWIDTH 500 0
DWIDTH 4 0
BBX 4 8 0 -1
BITMAP
00
80
00
A0
00
20
00
00
ENDCHAR
STARTCHAR 2834
ENCODING 10292
SWIDTH 500 0
DWIDTH 4 0
BBX 4 8 0 -1
BITMAP
00
00
00
20
00
A0
00
00
ENDCHAR
STARTCHAR 2835
ENCODING 10293
SWIDTH 500 0
DWIDTH 4 0
BBX 4 8 0 -1
BITMAP
00
80
00
20
00
A0
00
00
ENDCHAR
STARTCHAR 2836
ENCODING 10294
SWIDTH 500 0
DWIDTH 4 0
BBX 4 8 0 -1
BITMAP
00
00
00
A0
00
A0
00
00
ENDCHAR
STARTCHAR 2837
ENCODING 10295
SWIDTH 500 0
DWIDTH 4 0
BBX 4 8 0 -1
BITMAP
00
80
00
A0
00
A0
00
00
ENDCHAR
STARTCHAR 2838
ENCODING 10296
SWIDTH 500 0
DWIDTH 4 0
BBX 4 8 0 -1
BITMAP
00
20
00
20
00
20
00
00
ENDCHAR
STARTCHAR 2839
ENCODING 10297
SWIDTH 500 0
DWIDTH 4 0
BBX 4 8 0 -1
BITMAP
00
A0
00
20
00
20
00
00
ENDCHAR
STARTCHAR 283A
ENCODING 10298
SWIDTH 500 0
DWIDTH 4 0
BBX 4 8 0 -1
BITMAP
00
20
00
A0
00
20
00
00
ENDCHAR
STARTCHAR 283B
ENCODING 10299
SWIDTH 500 0
DWIDTH 4 0
BBX 4 8 0 -1
BITMAP
00
A0
00
A0
00
20
00
00
ENDCHAR
STARTCHAR 283C
ENCODING 10300
SWIDTH 500 0
DWIDTH 4 0
BBX 4 8 0 -1
BITMAP
00
20
00
20
00
A0
00
00
ENDCHAR
STARTCHAR 283D
ENCODING 10301
SWIDTH 500 0
DWIDTH 4 0
BBX 4 8 0 -1
BITMAP
00
A0
00
20
00
A0
00
00
ENDCHAR
STARTCHAR 283E
ENCODING 10302
SWIDTH 500 0
DWIDTH 4 0
BBX 4 8 0 -1
BITMAP
00
20
00
A0
00
A0
00
00
ENDCHAR
STARTCHAR 283F
ENCODING 10303
SWIDTH 500 0
DWIDTH 4 0
BBX 4 8 0 -1
BITMAP
00
A0
00
A0
00
A0
00
00
ENDCHAR
STARTCHAR 2840
ENCODING 10304
SWIDTH 500 0
DWIDTH 4 0
BBX 4 8 0 -1
BITMAP
00
00
00
00
00
00
00
80
ENDCHAR
STARTCHAR 2841
ENCODING 10305
SWIDTH 500 0
DWIDTH 4 0
BBX 4 8 0 -1
BITMAP
00
80
00
00
00
00
00
80
ENDCHAR
STARTCHAR 2842
ENCODING 10306
SWIDTH 500 0
DWIDTH 4 0
BBX 4 8 0 -1
BITMAP
00
00
00
80
00
00
00
80
ENDCHAR
STARTCHAR 2843
ENCODING 10307
SWIDTH 500 0
DWIDTH 4 0
BBX 4 8 0 -1
BITMAP
00
80
00
80
00
00
00
80
ENDCHAR
STARTCHAR 2844
ENCODING 10308
SWIDTH 500 0
DWIDTH 4 0
BBX 4 8 0 -1
BITMAP
00
00
00
00
00
80
00
80
ENDCHAR
STARTCHAR 2845
ENCODING 10309
SWIDTH 500 0
DWIDTH 4 0
BBX 4 8 0 -1
BITMAP
00
80
00
00
00
80
00
80
ENDCHAR
STARTCHAR 2846
ENCODING 10310
SWIDTH 500 0
DWIDTH 4 0
BBX 4 8 0 -1
BITMAP
00
00
00
80
00
80
00
80
ENDCHAR
STARTCHAR 2847
ENCODING 10311
SWIDTH 500 0
DWIDTH 4 0
BBX 4 8 0 -1
BITMAP
00
80
00
80
00
80
00
80
ENDCHAR
STARTCHAR 2848
ENCODING 10312
SWIDTH 500 0
DWIDTH 4 0
BBX 4 8 0 -1
BITMAP
00
20
00
00
00
00
00
80
ENDCHAR
STARTCHAR 2849
ENCODING 10313
SWIDTH 500 0
DWIDTH 4 0
BBX 4 8 0 -1
BITMAP
00
A0
00
00
00
00
00
80
ENDCHAR
STARTCHAR 284A
ENCODING 10314
SWIDTH 500 0
DWIDTH 4 0
BBX 4 8 0 -1
BITMAP
00
20
00
80
00
00
00
80
ENDCHAR
STARTCHAR 284B
ENCODING 10315
SWIDTH 500 0
DWIDTH 4 0
BBX 4 8 0 -1
BITMAP
00
A0
00
80
00
00
00
80
ENDCHAR
STARTCHAR 284C
ENCODING 10316
SWIDTH 500 0
DWIDTH 4 0
BBX 4 8 0 -1
BITMAP
00
20
00
00
00
80
00
80
ENDCHAR
STARTCHAR 284D
ENCODING 10317
SWIDTH 500 0
DWIDTH 4 0
BBX 4 8 0 -1
BITMAP
00
A0
00
00
00
80
00
80
ENDCHAR
STARTCHAR 284E
ENCODING 10318
SWIDTH 500 0
DWIDTH 4 0
BBX 4 8 0 -1
BITMAP
00
20
00
80
00
80
00
80
ENDCHAR
STARTCHAR 284F
ENCODING 10319
SWIDTH 500 0
DWIDTH 4 0
BBX 4 8 0 -1
BITMAP
00
A0
00
80
00
80
00
80
ENDCHAR
STARTCHAR 2850
ENCODING 10320
SWIDTH 500 0
DWIDTH 4 0
BBX 4 8 0 -1
BITMAP
00
00
00
20
00
00
00
80
ENDCHAR
STARTCHAR 2851
ENCODING 10321
SWIDTH 500 0
DWIDTH 4 0
BBX 4 8 0 -1
BITMAP
00
80
00
20
00
00
00
80
ENDCHAR
STARTCHAR 2852
ENCODING 10322
SWIDTH 500 0
DWIDTH 4 0
BBX 4 8 0 -1
BITMAP
00
00
00
A0
00
00
00
80
ENDCHAR
STARTCHAR 2853
ENCODING 10323
SWIDTH 500 0
DWIDTH 4 0
BBX 4 8 0 -1
BITMAP
00
80
00
A0
00
00
00
80
ENDCHAR
STARTCHAR 2854
ENCODING 10324
SWIDTH 500 0
DWIDTH 4 0
BBX 4 8 0 -1
BITMAP
00
00
00
20
00
80
00
80
ENDCHAR
STARTCHAR 2855
ENCODING 10325
SWIDTH 500 0
DWIDTH 4 0
BBX 4 8 0 -1
BITMAP
00
80
00
20
00
80
00
80
ENDCHAR
STARTCHAR 2856
ENCODING 10326
SWIDTH 500 0
DWIDTH 4 0
BBX 4 8 0 -1
BITMAP
00
00
00
A0
00
80
00
80
ENDCHAR
STARTCHAR 2857
ENCODING 10327
SWIDTH 500 0
DWIDTH 4 0
BBX 4 8 0 -1
BITMAP
00
80
00
A0
00
80
00
80
ENDCHAR
STARTCHAR 2858
ENCODING 10328
SWIDTH 500 0
DWIDTH 4 0
BBX 4 8 0 -1
BITMAP
00
20
00
20
00
00
00
80
ENDCHAR
STARTCHAR 2859
ENCODING 10329
SWIDTH 500 0
DWIDTH 4 0
BBX 4 8 0 -1
BITMAP
00
A0
00
20
00
00
00
80
ENDCHAR
STARTCHAR 285A
ENCODING 10330
SWIDTH 500 0
DWIDTH 4 0
BBX 4 8 0 -1
BITMAP
00
20
00
A0
00
00
00
80
ENDCHAR
STARTCHAR 285B
ENCODING 10331
SWIDTH 500 0
DWIDTH 4 0
BBX 4 8 0 -1
BITMAP
00
A0
00
A0
00
00
00
80
ENDCHAR
STARTCHAR 285C
ENCODING 10332
SWIDTH 500 0
DWIDTH 4 0
BBX 4 8 0 -1
BITMAP
00
20
00
20
00
80
00
80
ENDCHAR
STARTCHAR 285D
ENCODING 10333
SWIDTH 500 0
DWIDTH 4 0
BBX 4 8 0 -1
BITMAP
00
A0
00
20
00
80
00
80
ENDCHAR
STARTCHAR 285E
ENCODING 10334
SWIDTH 500 0
DWIDTH 4 0
BBX 4 8 0 -1
BITMAP
00
20
00
A0
00
80
00
80
ENDCHAR
STARTCHAR 285F
ENCODING 10335
SWIDTH 500 0
DWIDTH 4 0
BBX 4 8 0 -1
BITMAP
00
A0
00
A0
00
80
00
80
ENDCHAR
STARTCHAR 2860
ENCODING 10336
SWIDTH 500 0
DWIDTH 4 0
BBX 4 8 0 -1
BITMAP
00
00
00
00
00
20
00
80
ENDCHAR
STARTCHAR 2861
ENCODING 10337
SWIDTH 500 0
DWIDTH 4 0
BBX 4 8 0 -1
BITMAP
00
80
00
00
00
20
00
80
ENDCHAR
STARTCHAR 2862
ENCODING 10338
SWIDTH 500 0
DWIDTH 4 0
BBX 4 8 0 -1
BITMAP
00
00
00
80
00
20
00
80
ENDCHAR
STARTCHAR 2863
ENCODING 10339
SWIDTH 500 0
DWIDTH 4 0
BBX 4 8 0 -1
BITMAP
00
80
00
80
00
20
00
80
ENDCHAR
STARTCHAR 2864
ENCODING 10340
SWIDTH 500 0
DWIDTH 4 0
BBX 4 8 0 -1
BITMAP
00
00
00
00
00
A0
00
80
ENDCHAR
STARTCHAR 2865
ENCODING 10341
SWIDTH 500 0
DWIDTH 4 0
BBX 4 8 0 -1
BITMAP
00
80
00
00
00
A0
00
80
ENDCHAR
STARTCHAR 2866
ENCODING 10342
SWIDTH 500 0
DWIDTH 4 0
BBX 4 8 0 -1
BITMAP
00
00
00
80
00
A0
00
80
ENDCHAR
STARTCHAR 2867
ENCODING 10343
SWIDTH 500 0
DWIDTH 4 0
BBX 4 8 0 -1
BITMAP
00
80
00
80
00
A0
00
80
ENDCHAR
STARTCHAR 2868
ENCODING 10344
SWIDTH 500 0
DWIDTH 4 0
BBX 4 8 0 -1
BITMAP
00
20
00
00
00
20
00
80
ENDCHAR
STARTCHAR 2869
ENCODING 10345
SWIDTH 500 0
DWIDTH 4 0
BBX 4 8 0 -1
BITMAP
00
A0
00
00
00
20
00
80
ENDCHAR
STARTCHAR 286A
ENCODING 10346
SWIDTH 500 0
DWIDTH 4 0
BBX 4 8 0 -1
BITMAP
00
20
00
80
00
20
00
80
ENDCHAR
STARTCHAR 286B
ENCODING 10347
SWIDTH 500 0
DWIDTH 4 0
BBX 4 8 0 -1
BITMAP
00
A0
00
80
00
20
00
80
ENDCHAR
STARTCHAR 286C
ENCODING 10348
SWIDTH 500 0
DWIDTH 4 0
BBX 4 8 0 -1
BITMAP
00
20
00
00
00
A0
00
80
ENDCHAR
STARTCHAR 286D
ENCODING 10349
SWIDTH 500 0
DWIDTH 4 0
BBX 4 8 0 -1
BITMAP
00
A0
00
00
00
A0
00
80
ENDCHAR
STARTCHAR 286E
ENCODING 10350
SWIDTH 500 0
DWIDTH 4 0
BBX 4 8 0 -1
BITMAP
00
20
00
80
00
A0
00
80
ENDCHAR
STARTCHAR 286F
ENCODING 10351
SWIDTH 500 0
DWIDTH 4 0
BBX 4 8 0 -1
BITMAP
00
A0
00
80
00
A0
00
80
ENDCHAR
STARTCHAR 2870
ENCODING 10352
SWIDTH 500 0
DWIDTH 4 0
BBX 4 8 0 -1
BITMAP
00
00
00
20
00
20
00
80
ENDCHAR
STARTCHAR 2871
ENCODING 10353
SWIDTH 500 0
DWIDTH 4 0
BBX 4 8 0 -1
BITMAP
00
80
00
20
00
20
00
80
ENDCHAR
STARTCHAR 2872
ENCODING 10354
SWIDTH 500 0
DWIDTH 4 0
BBX 4 8 0 -1
BITMAP
00
00
00
A0
00
20
00
80
ENDCHAR
STARTCHAR 2873
ENCODING 10355
SWIDTH 500 0
DWIDTH 4 0
BBX 4 8 0 -1
BITMAP
00
80
00
A0
00
20
00
80
ENDCHAR
STARTCHAR 2874
ENCODING 10356
SWIDTH 500 0
DWIDTH 4 0
BBX 4 8 0 -1
BITMAP
00
00
00
20
00
A0
00
80
ENDCHAR
STARTCHAR 2875
ENCODING 10357
SWIDTH 500 0
DWIDTH 4 0
BBX 4 8 0 -1
BITMAP
00
80
00
20
00
A0
00
80
ENDCHAR
STARTCHAR 2876
ENCODING 10358
SWIDTH 500 0
DWIDTH 4 0
BBX 4 8 0 -1
BITMAP
00
00
00
A0
00
A0
00
80
ENDCHAR
STARTCHAR 2877
ENCODING 10359
SWIDTH 500 0
DWIDTH 4 0
BBX 4 8 0 -1
BITMAP
00
80
00
A0
00
A0
00
80
ENDCHAR
STARTCHAR 2878
ENCODING 10360
SWIDTH 500 0
DWIDTH 4 0
BBX 4 8 0 -1
BITMAP
00
20
00
20
00
20
00
80
ENDCHAR
STARTCHAR 2879
ENCODING 10361
SWIDTH 500 0
DWIDTH 4 0
BBX 4 8 0 -1
BITMAP
00
A0
00
20
00
20
00
80
ENDCHAR
STARTCHAR 287A
ENCODING 10362
SWIDTH 500 0
DWIDTH 4 0
BBX 4 8 0 -1
BITMAP
00
20
00
A0
00
20
00
80
ENDCHAR
STARTCHAR 287B
ENCODING 10363
SWIDTH 500 0
DWIDTH 4 0
BBX 4 8 0 -1
BITMAP
00
A0
00
A0
00
20
00
80
ENDCHAR
STARTCHAR 287C
ENCODING 10364
SWIDTH 500 0
DWIDTH 4 0
BBX 4 8 0 -1
BITMAP
00
20
00
20
00
A0
00
80
ENDCHAR
STARTCHAR 287D
ENCODING 10365
SWIDTH 500 0
DWIDTH 4 0
BBX 4 8 0 -1
BITMAP
00
A0
00
20
00
A0
00
80
ENDCHAR
STARTCHAR 287E
ENCODING 10366
SWIDTH 500 0
DWIDTH 4 0
BBX 4 8 0 -1
BITMAP
00
20
00
A0
00
A0
00
80
ENDCHAR
STARTCHAR 287F
ENCODING 10367
SWIDTH 500 0
DWIDTH 4 0
BBX 4 8 0 -1
BITMAP
00
A0
00
A0
00
A0
00
80
ENDCHAR
STARTCHAR 2880
ENCODING 10368
SWIDTH 500 0
DWIDTH 4 0
BBX 4 8 0 -1
BITMAP
00
00
00
00
00
00
00
20
ENDCHAR
STARTCHAR 2881
ENCODING 10369
SWIDTH 500 0
DWIDTH 4 0
BBX 4 8 0 -1
BITMAP
00
80
00
00
00
00
00
20
ENDCHAR
STARTCHAR 2882
ENCODING 10370
SWIDTH 500 0
DWIDTH 4 0
BBX 4 8 0 -1
BITMAP
00
00
00
80
00
00
00
20
ENDCHAR
STARTCHAR 2883
ENCODING 10371
SWIDTH 500 0
DWIDTH 4 0
BBX 4 8 0 -1
BITMAP
00
80
00
80
00
00
00
20
ENDCHAR
STARTCHAR 2884
ENCODING 10372
SWIDTH 500 0
DWIDTH 4 0
BBX 4 8 0 -1
BITMAP
00
00
00
00
00
80
00
20
ENDCHAR
STARTCHAR 2885
ENCODING 10373
SWIDTH 500 0
DWIDTH 4 0
BBX 4 8 0 -1
BITMAP
00
80
00
00
00
80
00
20
ENDCHAR
STARTCHAR 2886
ENCODING 10374
SWIDTH 500 0
DWIDTH 4 0
BBX 4 8 0 -1
BITMAP
00
00
00
80
00
80
00
20
ENDCHAR
STARTCHAR 2887
ENCODING 10375
SWIDTH 500 0
DWIDTH 4 0
BBX 4 8 0 -1
BITMAP
00
80
00
80
00
80
00
20
ENDCHAR
STARTCHAR 2888
ENCODING 10376
SWIDTH 500 0
DWIDTH 4 0
BBX 4 8 0 -1
BITMAP
00
20
00
00
00
00
00
20
ENDCHAR
STARTCHAR 2889
ENCODING 10377
SWIDTH 500 0
DWIDTH 4 0
BBX 4 8 0 -1
BITMAP
00
A0
00
00
00
00
00
20
ENDCHAR
STARTCHAR 288A
ENCODING 10378
SWIDTH 500 0
DWIDTH 4 0
BBX 4 8 0 -1
BITMAP
00
20
00
80
00
00
00
20
ENDCHAR
STARTCHAR 288B
ENCODING 10379
SWIDTH 500 0
DWIDTH 4 0
BBX 4 8 0 -1
BITMAP
00
A0
00
80
00
00
00
20
ENDCHAR
STARTCHAR 288C
ENCODING 10380
SWIDTH 500 0
DWIDTH 4 0
BBX 4 8 0 -1
BITMAP
00
20
00
00
00
80
00
20
ENDCHAR
STARTCHAR 288D
ENCODING 10381
SWIDTH 500 0
DWIDTH 4 0
BBX 4 8 0 -1
BITMAP
00
A0
00
00
00
80
00
20
ENDCHAR
STARTCHAR 288E
ENCODING 10382
SWIDTH 500 0
DWIDTH 4 0
BBX 4 8 0 -1
BITMAP
00
20
00
80
00
80
00
20
ENDCHAR
STARTCHAR 288F
ENCODING 10383
SWIDTH 500 0
DWIDTH 4 0
BBX 4 8 0 -1
BITMAP
00
A0
00
80
00
80
00
20
ENDCHAR
STARTCHAR 2890
ENCODING 10384
SWIDTH 500 0
DWIDTH 4 0
BBX 4 8 0 -1
BITMAP
00
00
00
20
00
00
00
20
ENDCHAR
STARTCHAR 2891
ENCODING 10385
SWIDTH 500 0
DWIDTH 4 0
BBX 4 8 0 -1
BITMAP
00
80
00
20
00
00
00
20
ENDCHAR
STARTCHAR 2892
ENCODING 10386
SWIDTH 500 0
DWIDTH 4 0
BBX 4 8 0 -1
BITMAP
00
00
00
A0
00
00
00
20
ENDCHAR
STARTCHAR 2893
ENCODING 10387
SWIDTH 500 0
DWIDTH 4 0
BBX 4 8 0 -1
BITMAP
00
80
00
A0
00
00
00
20
ENDCHAR
STARTCHAR 2894
ENCODING 10388
SWIDTH 500 0
DWIDTH 4 0
BBX 4 8 0 -1
BITMAP
00
00
00
20
00
80
00
20
ENDCHAR
STARTCHAR 2895
ENCODING 10389
SWIDTH 500 0
DWIDTH 4 0
BBX 4 8 0 -1
BITMAP
00
80
00
20
00
80
00
20
ENDCHAR
STARTCHAR 2896
ENCODING 10390
SWIDTH 500 0
DWIDTH 4 0
BBX 4 8 0 -1
BITMAP
00
00
00
A0
00
80
00
20
ENDCHAR
STARTCHAR 2897
ENCODING 10391
SWIDTH 500 0
DWIDTH 4 0
BBX 4 8 0 -1
BITMAP
00
80
00
A0
00
80
00
20
ENDCHAR
STARTCHAR 2898
ENCODING 10392
SWIDTH 500 0
DWIDTH 4 0
BBX 4 8 0 -1
BITMAP
00
20
00
20
00
00
00
20
ENDCHAR
STARTCHAR 2899
ENCODING 10393
SWIDTH 500 0
DWIDTH 4 0
BBX 4 8 0 -1
BITMAP
00
A0
00
20
00
00
00
20
ENDCHAR
STARTCHAR 289A
ENCODING 10394
SWIDTH 500 0
DWIDTH 4 0
BBX 4 8 0 -1
BITMAP
00
20
00
A0
00
00
00
20
ENDCHAR
STARTCHAR 289B
ENCODING 10395
SWIDTH 500 0
DWIDTH 4 0
BBX 4 8 0 -1
BITMAP
00
A0
00
A0
00
00
00
20
ENDCHAR
STARTCHAR 289C
ENCODING 10396
SWIDTH 500 0
DWIDTH 4 0
BBX 4 8 0 -1
BITMAP
00
20
00
20
00
80
00
20
ENDCHAR
STARTCHAR 289D
ENCODING 10397
SWIDTH 500 0
DWIDTH 4 0
BBX 4 8 0 -1
BITMAP
00
A0
00
20
00
80
00
20
ENDCHAR
STARTCHAR 289E
ENCODING 10398
SWIDTH 500 0
DWIDTH 4 0
BBX 4 8 0 -1
BITMAP
00
20
00
A0
00
80
00
20
ENDCHAR
STARTCHAR 289F
ENCODING 10399
SWIDTH 500 0
DWIDTH 4 0
BBX 4 8 0 -1
BITMAP
00
A0
00
A0
00
80
00
20
ENDCHAR
STARTCHAR 28A0
ENCODING 10400
SWIDTH 500 0
DWIDTH 4 0
BBX 4 8 0 -1
BITMAP
00
00
00
00
00
20
00
20
ENDCHAR
STARTCHAR 28A1
ENCODING 10401
SWIDTH 500 0
DWIDTH 4 0
BBX 4 8 0 -1
BITMAP
00
80
00
00
00
20
00
20
ENDCHAR
STARTCHAR 28A2
ENCODING 10402
SWIDTH 500 0
DWIDTH 4 0
BBX 4 8 0 -1
BITMAP
00
00
00
80
00
20
00
20
ENDCHAR
STARTCHAR 28A3
ENCODING 10403
SWIDTH 500 0
DWIDTH 4 0
BBX 4 8 0 -1
BITMAP
00
80
00
80
00
20
00
20
ENDCHAR
STARTCHAR 28A4
ENCODING 10404
SWIDTH 500 0
DWIDTH 4 0
BBX 4 8 0 -1
BITMAP
00
00
00
00
00
A0
00
20
ENDCHAR
STARTCHAR 28A5
ENCODING 10405
SWIDTH 500 0
DWIDTH 4 0
BBX 4 8 0 -1
BITMAP
00
80
00
00
00
A0
00
20
ENDCHAR
STARTCHAR 28A6
ENCODING 10406
SWIDTH 500 0
DWIDTH 4 0
BBX 4 8 0 -1
BITMAP
00
00
00
80
00
A0
00
20
ENDCHAR
STARTCHAR 28A7
ENCODING 10407
SWIDTH 500 0
DWIDTH 4 0
BBX 4 8 0 -1
BITMAP
00
80
00
80
00
A0
00
20
ENDCHAR
STARTCHAR 28A8
ENCODING 10408
SWIDTH 500 0
DWIDTH 4 0
BBX 4 8 0 -1
BITMAP
00
20
00
00
00
20
00
20
ENDCHAR
STARTCHAR 28A9
ENCODING 10409
SWIDTH 500 0
DWIDTH 4 0
BBX 4 8 0 -1
BITMAP
00
A0
00
00
00
20
00
20
ENDCHAR
STARTCHAR 28AA
ENCODING 10410
SWIDTH 500 0
DWIDTH 4 0
BBX 4 8 0 -1
BITMAP
00
20
00
80
00
20
00
20
ENDCHAR
STARTCHAR 28AB
ENCODING 10411
SWIDTH 500 0
DWIDTH 4 0
BBX 4 8 0 -1
BITMAP
00
A0
00
80
00
20
00
20
ENDCHAR
STARTCHAR 28AC
ENCODING 10412
SWIDTH 500 0
DWIDTH 4 0
BBX 4 8 0 -1
BITMAP
00
20
00
00
00
A0
00
20
ENDCHAR
STARTCHAR 28AD
ENCODING 10413
SWIDTH 500 0
DWIDTH 4 0
BBX 4 8 0 -1
BITMAP
00
A0
00
00
00
A0
00
20
ENDCHAR
STARTCHAR 28AE
ENCODING 10414
SWIDTH 500 0
DWIDTH 4 0
BBX 4 8 0 -1
BITMAP
00
20
00
80
00
A0
00
20
ENDCHAR
STARTCHAR 28AF
ENCODING 10415
SWIDTH 500 0
DWIDTH 4 0
BBX 4 8 0 -1
BITMAP
00
A0
00
80
00
A0
00
20
ENDCHAR
STARTCHAR 28B0
ENCODING 10416
SWIDTH 500 0
DWIDTH 4 0
BBX 4 8 0 -1
BITMAP
00
00
00
20
00
20
00
20
ENDCHAR
STARTCHAR 28B1
ENCODING 10417
SWIDTH 500 0
DWIDTH 4 0
BBX 4 8 0 -1
BITMAP
00
80
00
20
00
20
00
20
ENDCHAR
STARTCHAR 28B2
ENCODING 10418
SWIDTH 500 0
DWIDTH 4 0
BBX 4 8 0 -1
BITMAP
00
00
00
A0
00
20
00
20
ENDCHAR
STARTCHAR 28B3
ENCODING 10419
SWIDTH 500 0
DWIDTH 4 0
BBX 4 8 0 -1
BITMAP
00
80
00
A0
00
20
00
20
ENDCHAR
STARTCHAR 28B4
ENCODING 10420
SWIDTH 500 0
DWIDTH 4 0
BBX 4 8 0 -1
BITMAP
00
00
00
20
00
A0
00
20
ENDCHAR
STARTCHAR 28B5
ENCODING 10421
SWIDTH 500 0
DWIDTH 4 0
BBX 4 8 0 -1
BITMAP
00
80
00
20
00
A0
00
20
ENDCHAR
STARTCHAR 28B6
ENCODING 10422
SWIDTH 500 0
DWIDTH 4 0
BBX 4 8 0 -1
BITMAP
00
00
00
A0
00
A0
00
20
ENDCHAR
STARTCHAR 28B7
ENCODING 10423
SWIDTH 500 0
DWIDTH 4 0
BBX 4 8 0 -1
BITMAP
00
80
00
A0
00
A0
00
20
ENDCHAR
STARTCHAR 28B8
ENCODING 10424
SWIDTH 500 0
DWIDTH 4 0
BBX 4 8 0 -1
BITMAP
00
20
00
20
00
20
00
20
ENDCHAR
STARTCHAR 28B9
ENCODING 10425
SWIDTH 500 0
DWIDTH 4 0
BBX 4 8 0 -1
BITMAP
00
A0
00
20
00
20
00
20
ENDCHAR
STARTCHAR 28BA
ENCODING 10426
SWIDTH 500 0
DWIDTH 4 0
BBX 4 8 0 -1
BITMAP
00
20
00
A0
00
20
00
20
ENDCHAR
STARTCHAR 28BB
ENCODING 10427
SWIDTH 500 0
DWIDTH 4 0
BBX 4 8 0 -1
BITMAP
00
A0
00
A0
00
20
00
20
ENDCHAR
STARTCHAR 28BC
ENCODING 10428
SWIDTH 500 0
DWIDTH 4 0
BBX 4 8 0 -1
BITMAP
00
20
00
20
00
A0
00
20
ENDCHAR
STARTCHAR 28BD
ENCODING 10429
SWIDTH 500 0
DWIDTH 4 0
BBX 4 8 0 -1
BITMAP
00
A0
00
20
00
A0
00
20
ENDCHAR
STARTCHAR 28BE
ENCODING 10430
SWIDTH 500 0
DWIDTH 4 0
BBX 4 8 0 -1
BITMAP
00
20
00
A0
00
A0
00
20
ENDCHAR
STARTCHAR 28BF
ENCODING 10431
SWIDTH 500 0
DWIDTH 4 0
BBX 4 8 0 -1
BITMAP
00
A0
00
A0
00
A0
00
20
ENDCHAR
STARTCHAR 28C0
ENCODING 10432
SWIDTH 500 0
DWIDTH 4 0
BBX 4 8 0 -1
BITMAP
00
00
00
00
00
00
00
A0
ENDCHAR
STARTCHAR 28C1
ENCODING 10433
SWIDTH 500 0
DWIDTH 4 0
BBX 4 8 0 -1
BITMAP
00
80
00
00
00
00
00
A0
ENDCHAR
STARTCHAR 28C2
ENCODING 10434
SWIDTH 500 0
DWIDTH 4 0
BBX 4 8 0 -1
BITMAP
00
00
00
80
00
00
00
A0
ENDCHAR
STARTCHAR 28C3
ENCODING 10435
SWIDTH 500 0
DWIDTH 4 0
BBX 4 8 0 -1
BITMAP
00
80
00
80
00
00
00
A0
ENDCHAR
STARTCHAR 28C4
ENCODING 10436
SWIDTH 500 0
DWIDTH 4 0
BBX 4 8 0 -1
BITMAP
00
00
00
00
00
80
00
A0
ENDCHAR
STARTCHAR 28C5
ENCODING 10437
SWIDTH 500 0
DWIDTH 4 0
BBX 4 8 0 -1
BITMAP
00
80
00
00
00
80
00
A0
ENDCHAR
STARTCHAR 28C6
ENCODING 10438
SWIDTH 500 0
DWIDTH 4 0
BBX 4 8 0 -1
BITMAP
00
00
00
80
00
80
00
A0
ENDCHAR
STARTCHAR 28C7
ENCODING 10439
SWIDTH 500 0
DWIDTH 4 0
BBX 4 8 0 -1
BITMAP
00
80
00
80
00
80
00
A0
ENDCHAR
STARTCHAR 28C8
ENCODING 10440
SWIDTH 500 0
DWIDTH 4 0
BBX 4 8 0 -1
BITMAP
00
20
00
00
00
00
00
A0
ENDCHAR
STARTCHAR 28C9
ENCODING 10441
SWIDTH 500 0
DWIDTH 4 0
BBX 4 8 0 -1
BITMAP
00
A0
00
00
00
00
00
A0
ENDCHAR
STARTCHAR 28CA
ENCODING 10442
SWIDTH 500 0
DWIDTH 4 0
BBX 4 8 0 -1
BITMAP
00
20
00
80
00
00
00
A0
ENDCHAR
STARTCHAR 28CB
ENCODING 10443
SWIDTH 500 0
DWIDTH 4 0
BBX 4 8 0 -1
BITMAP
00
A0
00
80
00
00
00
A0
ENDCHAR
STARTCHAR 28CC
ENCODING 10444
SWIDTH 500 0
DWIDTH 4 0
BBX 4 8 0 -1
BITMAP
00
20
00
00
00
80
00
A0
ENDCHAR
STARTCHAR 28CD
ENCODING 10445
SWIDTH 500 0
DWIDTH 4 0
BBX 4 8 0 -1
BITMAP
00
A0
00
00
00
80
00
A0
ENDCHAR
STARTCHAR 28CE
ENCODING 10446
SWIDTH 500 0
DWIDTH 4 0
BBX 4 8 0 -1
BITMAP
00
20
00
80
00
80
00
A0
ENDCHAR
STARTCHAR 28CF
ENCODING 10447
SWIDTH 500 0
DWIDTH 4 0
BBX 4 8 0 -1
BITMAP
00
A0
00
80
00
80
00
A0
ENDCHAR
STARTCHAR 28D0
ENCODING 10448
SWIDTH 500 0
DWIDTH 4 0
BBX 4 8 0 -1
BITMAP
00
00
00
20
00
00
00
A0
ENDCHAR
STARTCHAR 28D1
ENCODING 10449
SWIDTH 500 0
DWIDTH 4 0
BBX 4 8 0 -1
BITMAP
00
80
00
20
00
00
00
A0
ENDCHAR
STARTCHAR 28D2
ENCODING 10450
SWIDTH 500 0
DWIDTH 4 0
BBX 4 8 0 -1
BITMAP
00
00
00
A0
00
00
00
A0
ENDCHAR
STARTCHAR 28D3
ENCODING 10451
SWIDTH 500 0
DWIDTH 4 0
BBX 4 8 0 -1
BITMAP
00
80
00
A0
00
00
00
A0
ENDCHAR
STARTCHAR 28D4
ENCODING 10452
SWIDTH 500 0
DWIDTH 4 0
BBX 4 8 0 -1
BITMAP
00
00
00
20
00
80
00
A0
ENDCHAR
STARTCHAR 28D5
ENCODING 10453
SWIDTH 500 0
DWIDTH 4 0
BBX 4 8 0 -1
BITMAP
00
80
00
20
00
80
00
A0
ENDCHAR
STARTCHAR 28D6
ENCODING 10454
SWIDTH 500 0
DWIDTH 4 0
BBX 4 8 0 -1
BITMAP
00
00
00
A0
00
80
00
A0
ENDCHAR
STARTCHAR 28D7
ENCODING 10455
SWIDTH 500 0
DWIDTH 4 0
BBX 4 8 0 -1
BITMAP
00
80
00
A0
00
80
00
A0
ENDCHAR
STARTCHAR 28D8
ENCODING 10456
SWIDTH 500 0
DWIDTH 4 0
BBX 4 8 0 -1
BITMAP
00
20
00
20
00
00
00
A0
ENDCHAR
STARTCHAR 28D9
ENCODING 10457
SWIDTH 500 0
DWIDTH 4 0
BBX 4 8 0 -1
BITMAP
00
A0
00
20
00
00
00
A0
ENDCHAR
STARTCHAR 28DA
ENCODING 10458
SWIDTH 500 0
DWIDTH 4 0
BBX 4 8 0 -1
BITMAP
00
20
00
A0
00
00
00
A0
ENDCHAR
STARTCHAR 28DB
ENCODING 10459
SWIDTH 500 0
DWIDTH 4 0
BBX 4 8 0 -1
BITMAP
00
A0
00
A0
00
00
00
A0
ENDCHAR
STARTCHAR 28DC
ENCODING 10460
SWIDTH 500 0
DWIDTH 4 0
BBX 4 8 0 -1
BITMAP
00
20
00
20
00
80
00
A0
ENDCHAR
STARTCHAR 28DD
ENCODING 10461
SWIDTH 500 0
DWIDTH 4 0
BBX 4 8 0 -1
BITMAP
00
A0
00
20
00
80
00
A0
ENDCHAR
STARTCHAR 28DE
ENCODING 10462
SWIDTH 500 0
DWIDTH 4 0
BBX 4 8 0 -1
BITMAP
00
20
00
A0
00
80
00
A0
ENDCHAR
STARTCHAR 28DF
ENCODING 10463
SWIDTH 500 0
DWIDTH 4 0
BBX 4 8 0 -1
BITMAP
00
A0
00
A0
00
80
00
A0
ENDCHAR
STARTCHAR 28E0
ENCODING 10464
SWIDTH 500 0
DWIDTH 4 0
BBX 4 8 0 -1
BITMAP
00
00
00
00
00
20
00
A0
ENDCHAR
STARTCHAR 28E1
ENCODING 10465
SWIDTH 500 0
DWIDTH 4 0
BBX 4 8 0 -1
BITMAP
00
80
00
00
00
20
00
A0
ENDCHAR
STARTCHAR 28E2
ENCODING 10466
SWIDTH 500 0
DWIDTH 4 0
BBX 4 8 0 -1
BITMAP
00
00
00
80
00
20
00
A0
ENDCHAR
STARTCHAR 28E3
ENCODING 10467
SWIDTH 500 0
DWIDTH 4 0
BBX 4 8 0 -1
BITMAP
00
80
00
80
00
20
00
A0
ENDCHAR
STARTCHAR 28E4
ENCODING 10468
SWIDTH 500 0
DWIDTH 4 0
BBX 4 8 0 -1
BITMAP
00
00
00
00
00
A0
00
A0
ENDCHAR
STARTCHAR 28E5
ENCODING 10469
SWIDTH 500 0
DWIDTH 4 0
BBX 4 8 0 -1
BITMAP
00
80
00
00
00
A0
00
A0
ENDCHAR
STARTCHAR 28E6
ENCODING 10470
SWIDTH 500 0
DWIDTH 4 0
BBX 4 8 0 -1
BITMAP
00
00
00
80
00
A0
00
A0
ENDCHAR
STARTCHAR 28E7
ENCODING 10471
SWIDTH 500 0
DWIDTH 4 0
BBX 4 8 0 -1
BITMAP
00
80
00
80
00
A0
00
A0
ENDCHAR
STARTCHAR 28E8
ENCODING 10472
SWIDTH 500 0
DWIDTH 4 0
BBX 4 8 0 -1
BITMAP
00
20
00
00
00
20
00
A0
ENDCHAR
STARTCHAR 28E9
ENCODING 10473
SWIDTH 500 0
DWIDTH 4 0
BBX 4 8 0 -1
BITMAP
00
A0
00
00
00
20
00
A0
ENDCHAR
STARTCHAR 28EA
ENCODING 10474
SWIDTH 500 0
DWIDTH 4 0
BBX 4 8 0 -1
BITMAP
00
20
00
80
00
20
00
A0
ENDCHAR
STARTCHAR 28EB
ENCODING 10475
SWIDTH 500 0
DWIDTH 4 0
BBX 4 8 0 -1
BITMAP
00
A0
00
80
00
20
00
A0
ENDCHAR
STARTCHAR 28EC
ENCODING 10476
SWIDTH 500 0
DWIDTH 4 0
BBX 4 8 0 -1
BITMAP
00
20
00
00
00
A0
00
A0
ENDCHAR
STARTCHAR 28ED
ENCODING 10477
SWIDTH 500 0
DWIDTH 4 0
BBX 4 8 0 -1
BITMAP
00
A0
00
00
00
A0
00
A0
ENDCHAR
STARTCHAR 28EE
ENCODING 10478
SWIDTH 500 0
DWIDTH 4 0
BBX 4 8 0 -1
BITMAP
00
20
00
80
00
A0
00
A0
ENDCHAR
STARTCHAR 28EF
ENCODING 10479
SWIDTH 500 0
DWIDTH 4 0
BBX 4 8 0 -1
BITMAP
00
A0
00
80
00
A0
00
A0
ENDCHAR
STARTCHAR 28F0
ENCODING 10480
SWIDTH 500 0
DWIDTH 4 0
BBX 4 8 0 -1
BITMAP
00
00
00
20
00
20
00
A0
ENDCHAR
STARTCHAR 28F1
ENCODING 10481
SWIDTH 500 0
DWIDTH 4 0
BBX 4 8 0 -1
BITMAP
00
80
00
20
00
20
00
A0
ENDCHAR
STARTCHAR 28F2
ENCODING 10482
SWIDTH 500 0
DWIDTH 4 0
BBX 4 8 0 -1
BITMAP
00
00
00
A0
00
20
00
A0
ENDCHAR
STARTCHAR 28F3
ENCODING 10483
SWIDTH 500 0
DWIDTH 4 0
BBX 4 8 0 -1
BITMAP
00
80
00
A0
00
20
00
A0
ENDCHAR
STARTCHAR 28F4
ENCODING 10484
SWIDTH 500 0
DWIDTH 4 0
BBX 4 8 0 -1
BITMAP
00
00
00
20
00
A0
00
A0
ENDCHAR
STARTCHAR 28F5
ENCODING 10485
SWIDTH 500 0
DWIDTH 4 0
BBX 4 8 0 -1
BITMAP
00
80
00
20
00
A0
00
A0
ENDCHAR
STARTCHAR 28F6
ENCODING 10486
SWIDTH 500 0
DWIDTH 4 0
BBX 4 8 0 -1
BITMAP
00
00
00
A0
00
A0
00
A0
ENDCHAR
STARTCHAR 28F7
ENCODING 10487
SWIDTH 500 0
DWIDTH 4 0
BBX 4 8 0 -1
BITMAP
00
80
00
A0
00
A0
00
A0
ENDCHAR
STARTCHAR 28F8
ENCODING 10488
SWIDTH 500 0
DWIDTH 4 0
BBX 4 8 0 -1
BITMAP
00
20
00
20
00
20
00
A0
ENDCHAR
STARTCHAR 28F9
ENCODING 10489
SWIDTH 500 0
DWIDTH 4 0
BBX 4 8 0 -1
BITMAP
00
A0
00
20
00
20
00
A0
ENDCHAR
STARTCHAR 28FA
ENCODING 10490
SWIDTH 500 0
DWIDTH 4 0
BBX 4 8 0 -1
BITMAP
00
20
00
A0
00
20
00
A0
ENDCHAR
STARTCHAR 28FB
ENCODING 10491
SWIDTH 500 0
DWIDTH 4 0
BBX 4 8 0 -1
BITMAP
00
A0
00
A0
00
20
00
A0
ENDCHAR
STARTCHAR 28FC
ENCODING 10492
SWIDTH 500 0
DWIDTH 4 0
BBX 4 8 0 -1
BITMAP
00
20
00
20
00
A0
00
A0
ENDCHAR
STARTCHAR 28FD
ENCODING 10493
SWIDTH 500 0
DWIDTH 4 0
BBX 4 8 0 -1
BITMAP
00
A0
00
20
00
A0
00
A0
ENDCHAR
STARTCHAR 28FE
ENCODING 10494
SWIDTH 500 0
DWIDTH 4 0
BBX 4 8 0 -1
BITMAP
00
20
00
A0
00
A0
00
A0
ENDCHAR
STARTCHAR 28FF
ENCODING 10495
SWIDTH 500 0
DWIDTH 4 0
BBX 4 8 0 -1
BITMAP
00
A0
00
A0
00
A0
00
A0
ENDCHAR
STARTCHAR 3000
ENCODING 12288
SWIDTH 1000 0
DWIDTH 8 0
BBX 8 8 0 -1
BITMAP
00
00
00
00
00
00
00
00
ENDCHAR
STARTCHAR 3001
ENCODING 12289
SWIDTH 1000 0
DWIDTH 8 0
BBX 8 8 0 -1
BITMAP
00
00
00
00
00
40
20
20
ENDCHAR
STARTCHAR 3002
ENCODING 12290
SWIDTH 1000 0
DWIDTH 8 0
BBX 8 8 0 -1
BITMAP
00
00
00
00
00
20
50
20
ENDCHAR
STARTCHAR 3003
ENCODING 12291
SWIDTH 1000 0
DWIDTH 8 0
BBX 8 8 0 -1
BITMAP
00
00
24
24
48
48
00
00
ENDCHAR
STARTCHAR 3004
ENCODING 12292
SWIDTH 1000 0
DWIDTH 8 0
BBX 8 8 0 -1
BITMAP
00
74
96
9A
92
B2
D2
5C
ENDCHAR
STARTCHAR 3005
ENCODING 12293
SWIDTH 1000 0
DWIDTH 8 0
BBX 8 8 0 -1
BITMAP
00
20
3C
44
A8
10
08
00
ENDCHAR
STARTCHAR 3006
ENCODING 12294
SWIDTH 1000 0
DWIDTH 8 0
BBX 8 8 0 -1
BITMAP
00
02
34
48
94
A2
C0
80
ENDCHAR
STARTCHAR 3007
ENCODING 12295
SWIDTH 1000 0
DWIDTH 8 0
BBX 8 8 0 -1
BITMAP
00
38
44
82
82
82
44
38
ENDCHAR
STARTCHAR 3008
ENCODING 12296
SWIDTH 1000 0
DWIDTH 8 0
BBX 8 8 0 -1
BITMAP
00
04
04
08
08
08
04
04
ENDCHAR
STARTCHAR 3009
ENCODING 12297
SWIDTH 1000 0
DWIDTH 8 0
BBX 8 8 0 -1
BITMAP
00
40
40
20
20
20
40
40
ENDCHAR
STARTCHAR 300A
ENCODING 12298
SWIDTH 1000 0
DWIDTH 8 0
BBX 8 8 0 -1
BITMAP
00
24
24
48
48
48
24
24
ENDCHAR
STARTCHAR 300B
ENCODING 12299
SWIDTH 1000 0
DWIDTH 8 0
BBX 8 8 0 -1
BITMAP
00
48
48
24
24
24
48
48
ENDCHAR
STARTCHAR 300C
ENCODING 12300
SWIDTH 1000 0
DWIDTH 8 0
BBX 8 8 0 -1
BITMAP
00
1C
10
10
10
10
00
00
ENDCHAR
STARTCHAR 300D
ENCODING 12301
SWIDTH 1000 0
DWIDTH 8 0
BBX 8 8 0 -1
BITMAP
00
00
00
10
10
10
10
70
ENDCHAR
STARTCHAR 300E
ENCODING 12302
SWIDTH 1000 0
DWIDTH 8 0
BBX 8 8 0 -1
BITMAP
00
3C
24
2C
28
28
38
00
ENDCHAR
STARTCHAR 300F
ENCODING 12303
SWIDTH 1000 0
DWIDTH 8 0
BBX 8 8 0 -1
BITMAP
00
00
38
28
28
68
48
78
ENDCHAR
STARTCHAR 3010
ENCODING 12304
SWIDTH 1000 0
DWIDTH 8 0
BBX 8 8 0 -1
BITMAP
00
1C
18
10
10
10
18
1C
ENDCHAR
STARTCHAR 3011
ENCODING 12305
SWIDTH 1000 0
DWIDTH 8 0
BBX 8 8 0 -1
BITMAP
00
70
30
10
10
10
30
70
ENDCHAR
STARTCHAR 3012
ENCODING 12306
SWIDTH 1000 0
DWIDTH 8 0
BBX 8 8 0 -1
BITMAP
00
00
7C
00
7C
10
10
00
ENDCHAR
STARTCHAR 3013
ENCODING 12307
SWIDTH 1000 0
DWIDTH 8 0
BBX 8 8 0 -1
BITMAP
00
00
7C
7C
00
7C
7C
00
ENDCHAR
STARTCHAR 3014
ENCODING 12308
SWIDTH 1000 0
DWIDTH 8 0
BBX 8 8 0 -1
BITMAP
00
04
08
10
10
10
08
04
ENDCHAR
STARTCHAR 3015
ENCODING 12309
SWIDTH 1000 0
DWIDTH 8 0
BBX 8 8 0 -1
BITMAP
00
40
20
10
10
10
20
40
ENDCHAR
STARTCHAR 3016
ENCODING 12310
SWIDTH 1000 0
DWIDTH 8 0
BBX 8 8 0 -1
BITMAP
00
3C
28
30
30
30
28
3C
ENDCHAR
STARTCHAR 3017
ENCODING 12311
SWIDTH 1000 0
DWIDTH 8 0
BBX 8 8 0 -1
BITMAP
00
78
28
18
18
18
28
78
ENDCHAR
STARTCHAR 3018
ENCODING 12312
SWIDTH 1000 0
DWIDTH 8 0
BBX 8 8 0 -1
BITMAP
00
0C
14
28
28
28
14
0C
ENDCHAR
STARTCHAR 3019
ENCODING 12313
SWIDTH 1000 0
DWIDTH 8 0
BBX 8 8 0 -1
BITMAP
00
60
50
28
28
28
50
60
ENDCHAR
STARTCHAR 301A
ENCODING 12314
SWIDTH 1000 0
DWIDTH 8 0
BBX 8 8 0 -1
BITMAP
00
3C
28
28
28
28
28
3C
ENDCHAR
STARTCHAR 301B
ENCODING 12315
SWIDTH 1000 0
DWIDTH 8 0
BBX 8 8 0 -1
BITMAP
00
78
28
28
28
28
28
78
ENDCHAR
STARTCHAR 301C
ENCODING 12316
SWIDTH 1000 0
DWIDTH 8 0
BBX 8 8 0 -1
BITMAP
00
00
00
60
92
0C
00
00
ENDCHAR
STARTCHAR 301D
ENCODING 12317
SWIDTH 1000 0
DWIDTH 8 0
BBX 8 8 0 -1
BITMAP
00
28
28
14
00
00
00
00
ENDCHAR
STARTCHAR 301E
ENCODING 12318
SWIDTH 1000 0
DWIDTH 8 0
BBX 8 8 0 -1
BITMAP
00
28
28
50
00
00
00
00
ENDCHAR
STARTCHAR 301F
ENCODING 12319
SWIDTH 1000 0
DWIDTH 8 0
BBX 8 8 0 -1
BITMAP
00
00
00
00
00
50
28
28
ENDCHAR
STARTCHAR 3020
ENCODING 12320
SWIDTH 1000 0
DWIDTH 8 0
BBX 8 8 0 -1
BITMAP
00
FE
00
FE
54
10
82
7C
ENDCHAR
STARTCHAR 3021
ENCODING 12321
SWIDTH 1000 0
DWIDTH 8 0
BBX 8 8 0 -1
BITMAP
00
10
10
10
10
10
10
10
ENDCHAR
STARTCHAR 3022
ENCODING 12322
SWIDTH 1000 0
DWIDTH 8 0
BBX 8 8 0 -1
BITMAP
00
04
24
24
24
24
24
04
ENDCHAR
STARTCHAR 3023
ENCODING 12323
SWIDTH 1000 0
DWIDTH 8 0
BBX 8 8 0 -1
BITMAP
00
04
44
54
54
54
44
04
ENDCHAR
STARTCHAR 3024
ENCODING 12324
SWIDTH 1000 0
DWIDTH 8 0
BBX 8 8 0 -1
BITMAP
00
02
42
24
14
08
34
C2
ENDCHAR
STARTCHAR 3025
ENCODING 12325
SWIDTH 1000 0
DWIDTH 8 0
BBX 8 8 0 -1
BITMAP
00
24
48
58
24
44
44
38
ENDCHAR
STARTCHAR 3026
ENCODING 12326
SWIDTH 1000 0
DWIDTH 8 0
BBX 8 8 0 -1
BITMAP
00
10
10
FE
00
00
00
00
ENDCHAR
STARTCHAR 3027
ENCODING 12327
SWIDTH 1000 0
DWIDTH 8 0
BBX 8 8 0 -1
BITMAP
00
10
10
FE
00
00
7C
00
ENDCHAR
STARTCHAR 3028
ENCODING 12328
SWIDTH 1000 0
DWIDTH 8 0
BBX 8 8 0 -1
BITMAP
00
10
10
FE
00
7C
00
FE
ENDCHAR
STARTCHAR 3029
ENCODING 12329
SWIDTH 1000 0
DWIDTH 8 0
BBX 8 8 0 -1
BITMAP
00
40
7E
A4
14
08
34
C2
ENDCHAR
STARTCHAR 3036
ENCODING 12342
SWIDTH 1000 0
DWIDTH 8 0
BBX 8 8 0 -1
BITMAP
00
38
44
BA
82
BA
54
38
ENDCHAR
STARTCHAR 3037
ENCODING 12343
SWIDTH 1000 0
DWIDTH 8 0
BBX 8 8 0 -1
BITMAP
00
92
92
AA
44
AA
92
92
ENDCHAR
STARTCHAR 3038
ENCODING 12344
SWIDTH 1000 0
DWIDTH 8 0
BBX 8 8 0 -1
BITMAP
00
10
10
FE
10
10
10
10
ENDCHAR
STARTCHAR 3039
ENCODING 12345
SWIDTH 1000 0
DWIDTH 8 0
BBX 8 8 0 -1
BITMAP
00
44
44
FE
44
44
44
44
ENDCHAR
STARTCHAR 303A
ENCODING 12346
SWIDTH 1000 0
DWIDTH 8 0
BBX 8 8 0 -1
BITMAP
00
54
54
FE
54
54
54
84
ENDCHAR
STARTCHAR 303C
ENCODING 12348
SWIDTH 1000 0
DWIDTH 8 0
BBX 8 8 0 -1
BITMAP
00
FE
86
8A
92
A2
C2
FE
ENDCHAR
STARTCHAR 303E
ENCODING 12350
SWIDTH 1000 0
DWIDTH 8 0
BBX 8 8 0 -1
BITMAP
00
AA
00
8A
7C
A2
00
AA
ENDCHAR
STARTCHAR 303F
ENCODING 12351
SWIDTH 1000 0
DWIDTH 8 0
BBX 8 8 0 -1
BITMAP
00
7C
6C
54
54
54
6C
7C
ENDCHAR
STARTCHAR 3041
ENCODING 12353
SWIDTH 1000 0
DWIDTH 8 0
BBX 8 8 0 -1
BITMAP
00
00
10
3C
10
3C
5A
32
ENDCHAR
STARTCHAR 3042
ENCODING 12354
SWIDTH 1000 0
DWIDTH 8 0
BBX 8 8 0 -1
BITMAP
00
20
7C
20
3C
6A
B2
64
ENDCHAR
STARTCHAR 3043
ENCODING 12355
SWIDTH 1000 0
DWIDTH 8 0
BBX 8 8 0 -1
BITMAP
00
00
00
48
44
44
50
20
ENDCHAR
STARTCHAR 3044
ENCODING 12356
SWIDTH 1000 0
DWIDTH 8 0
BBX 8 8 0 -1
BITMAP
00
00
88
84
82
82
50
20
ENDCHAR
STARTCHAR 3045
ENCODING 12357
SWIDTH 1000 0
DWIDTH 8 0
BBX 8 8 0 -1
BITMAP
00
00
38
00
38
44
08
30
ENDCHAR
STARTCHAR 3046
ENCODING 12358
SWIDTH 1000 0
DWIDTH 8 0
BBX 8 8 0 -1
BITMAP
00
3C
00
3C
42
02
04
38
ENDCHAR
STARTCHAR 3047
ENCODING 12359
SWIDTH 1000 0
DWIDTH 8 0
BBX 8 8 0 -1
BITMAP
00
00
38
00
78
10
30
4C
ENDCHAR
STARTCHAR 3048
ENCODING 12360
SWIDTH 1000 0
DWIDTH 8 0
BBX 8 8 0 -1
BITMAP
00
3C
00
7C
08
18
28
46
ENDCHAR
STARTCHAR 3049
ENCODING 12361
SWIDTH 1000 0
DWIDTH 8 0
BBX 8 8 0 -1
BITMAP
00
00
20
74
20
38
64
28
ENDCHAR
STARTCHAR 304A
ENCODING 12362
SWIDTH 1000 0
DWIDTH 8 0
BBX 8 8 0 -1
BITMAP
00
20
F4
22
3C
62
A2
6C
ENDCHAR
STARTCHAR 304B
ENCODING 12363
SWIDTH 1000 0
DWIDTH 8 0
BBX 8 8 0 -1
BITMAP
00
20
20
F4
2A
4A
48
B0
ENDCHAR
STARTCHAR 304C
ENCODING 12364
SWIDTH 1000 0
DWIDTH 8 0
BBX 8 8 0 -1
BITMAP
00
2A
20
F4
2A
4A
48
B0
ENDCHAR
STARTCHAR 304D
ENCODING 12365
SWIDTH 1000 0
DWIDTH 8 0
BBX 8 8 0 -1
BITMAP
00
10
7C
08
7E
24
40
3C
ENDCHAR
STARTCHAR 304E
ENCODING 12366
SWIDTH 1000 0
DWIDTH 8 0
BBX 8 8 0 -1
BITMAP
00
14
7C
08
7E
24
40
3C
ENDCHAR
STARTCHAR 304F
ENCODING 12367
SWIDTH 1000 0
DWIDTH 8 0
BBX 8 8 0 -1
BITMAP
00
04
08
30
40
30
08
04
ENDCHAR
STARTCHAR 3050
ENCODING 12368
SWIDTH 1000 0
DWIDTH 8 0
BBX 8 8 0 -1
BITMAP
00
04
08
34
40
30
08
04
ENDCHAR
STARTCHAR 3051
ENCODING 12369
SWIDTH 1000 0
DWIDTH 8 0
BBX 8 8 0 -1
BITMAP
00
88
88
BE
88
88
88
10
ENDCHAR
STARTCHAR 3052
ENCODING 12370
SWIDTH 1000 0
DWIDTH 8 0
BBX 8 8 0 -1
BITMAP
00
8A
88
BE
88
88
88
10
ENDCHAR
STARTCHAR 3053
ENCODING 12371
SWIDTH 1000 0
DWIDTH 8 0
BBX 8 8 0 -1
BITMAP
00
00
3C
00
00
20
40
3E
ENDCHAR
STARTCHAR 3054
ENCODING 12372
SWIDTH 1000 0
DWIDTH 8 0
BBX 8 8 0 -1
BITMAP
00
0A
3C
00
00
20
40
3E
ENDCHAR
STARTCHAR 3055
ENCODING 12373
SWIDTH 1000 0
DWIDTH 8 0
BBX 8 8 0 -1
BITMAP
00
08
08
7E
04
24
40
3C
ENDCHAR
STARTCHAR 3056
ENCODING 12374
SWIDTH 1000 0
DWIDTH 8 0
BBX 8 8 0 -1
BITMAP
00
0A
08
7E
04
24
40
3C
ENDCHAR
STARTCHAR 3057
ENCODING 12375
SWIDTH 1000 0
DWIDTH 8 0
BBX 8 8 0 -1
BITMAP
00
20
20
20
20
20
22
1C
ENDCHAR
STARTCHAR 3058
ENCODING 12376
SWIDTH 1000 0
DWIDTH 8 0
BBX 8 8 0 -1
BITMAP
00
2A
20
20
20
20
22
1C
ENDCHAR
STARTCHAR 3059
ENCODING 12377
SWIDTH 1000 0
DWIDTH 8 0
BBX 8 8 0 -1
BITMAP
00
08
FE
18
28
18
08
10
ENDCHAR
STARTCHAR 305A
ENCODING 12378
SWIDTH 1000 0
DWIDTH 8 0
BBX 8 8 0 -1
BITMAP
00
0A
FE
18
28
18
08
10
ENDCHAR
STARTCHAR 305B
ENCODING 12379
SWIDTH 1000 0
DWIDTH 8 0
BBX 8 8 0 -1
BITMAP
00
24
24
FE
24
2C
20
1E
ENDCHAR
STARTCHAR 305C
ENCODING 12380
SWIDTH 1000 0
DWIDTH 8 0
BBX 8 8 0 -1
BITMAP
00
2A
24
FE
24
2C
20
1E
ENDCHAR
STARTCHAR 305D
ENCODING 12381
SWIDTH 1000 0
DWIDTH 8 0
BBX 8 8 0 -1
BITMAP
00
3C
08
10
7E
10
10
0C
ENDCHAR
STARTCHAR 305E
ENCODING 12382
SWIDTH 1000 0
DWIDTH 8 0
BBX 8 8 0 -1
BITMAP
00
3C
0A
10
7E
10
10
0C
ENDCHAR
STARTCHAR 305F
ENCODING 12383
SWIDTH 1000 0
DWIDTH 8 0
BBX 8 8 0 -1
BITMAP
00
20
F0
2E
40
48
50
8E
ENDCHAR
STARTCHAR 3060
ENCODING 12384
SWIDTH 1000 0
DWIDTH 8 0
BBX 8 8 0 -1
BITMAP
00
2A
F0
2E
40
48
50
8E
ENDCHAR
STARTCHAR 3061
ENCODING 12385
SWIDTH 1000 0
DWIDTH 8 0
BBX 8 8 0 -1
BITMAP
00
08
7E
10
1C
22
02
1C
ENDCHAR
STARTCHAR 3062
ENCODING 12386
SWIDTH 1000 0
DWIDTH 8 0
BBX 8 8 0 -1
BITMAP
00
0A
7E
10
1C
22
02
1C
ENDCHAR
STARTCHAR 3063
ENCODING 12387
SWIDTH 1000 0
DWIDTH 8 0
BBX 8 8 0 -1
BITMAP
00
00
00
00
18
64
04
18
ENDCHAR
STARTCHAR 3064
ENCODING 12388
SWIDTH 1000 0
DWIDTH 8 0
BBX 8 8 0 -1
BITMAP
00
00
3C
C2
02
02
1C
00
ENDCHAR
STARTCHAR 3065
ENCODING 12389
SWIDTH 1000 0
DWIDTH 8 0
BBX 8 8 0 -1
BITMAP
00
0A
3C
C2
02
02
1C
00
ENDCHAR
STARTCHAR 3066
ENCODING 12390
SWIDTH 1000 0
DWIDTH 8 0
BBX 8 8 0 -1
BITMAP
00
0E
74
08
10
10
08
06
ENDCHAR
STARTCHAR 3067
ENCODING 12391
SWIDTH 1000 0
DWIDTH 8 0
BBX 8 8 0 -1
BITMAP
00
0E
74
0A
10
10
08
06
ENDCHAR
STARTCHAR 3068
ENCODING 12392
SWIDTH 1000 0
DWIDTH 8 0
BBX 8 8 0 -1
BITMAP
00
20
20
24
18
20
40
3E
ENDCHAR
STARTCHAR 3069
ENCODING 12393
SWIDTH 1000 0
DWIDTH 8 0
BBX 8 8 0 -1
BITMAP
00
2A
20
24
18
20
40
3E
ENDCHAR
STARTCHAR 306A
ENCODING 12394
SWIDTH 1000 0
DWIDTH 8 0
BBX 8 8 0 -1
BITMAP
00
20
F4
22
44
9C
26
18
ENDCHAR
STARTCHAR 306B
ENCODING 12395
SWIDTH 1000 0
DWIDTH 8 0
BBX 8 8 0 -1
BITMAP
00
80
9C
80
80
90
A0
9E
ENDCHAR
STARTCHAR 306C
ENCODING 12396
SWIDTH 1000 0
DWIDTH 8 0
BBX 8 8 0 -1
BITMAP
00
08
48
5C
6A
B2
A6
56
ENDCHAR
STARTCHAR 306D
ENCODING 12397
SWIDTH 1000 0
DWIDTH 8 0
BBX 8 8 0 -1
BITMAP
00
20
2C
F2
22
66
AA
26
ENDCHAR
STARTCHAR 306E
ENCODING 12398
SWIDTH 1000 0
DWIDTH 8 0
BBX 8 8 0 -1
BITMAP
00
00
38
54
92
A2
44
18
ENDCHAR
STARTCHAR 306F
ENCODING 12399
SWIDTH 1000 0
DWIDTH 8 0
BBX 8 8 0 -1
BITMAP
00
84
84
BE
84
9C
A4
9A
ENDCHAR
STARTCHAR 3070
ENCODING 12400
SWIDTH 1000 0
DWIDTH 8 0
BBX 8 8 0 -1
BITMAP
00
8A
84
BE
84
9C
A4
9A
ENDCHAR
STARTCHAR 3071
ENCODING 12401
SWIDTH 1000 0
DWIDTH 8 0
BBX 8 8 0 -1
BITMAP
00
84
8A
BE
84
9C
A4
9A
ENDCHAR
STARTCHAR 3072
ENCODING 12402
SWIDTH 1000 0
DWIDTH 8 0
BBX 8 8 0 -1
BITMAP
00
28
E4
26
44
44
44
38
ENDCHAR
STARTCHAR 3073
ENCODING 12403
SWIDTH 1000 0
DWIDTH 8 0
BBX 8 8 0 -1
BITMAP
00
2A
E4
26
44
44
44
38
ENDCHAR
STARTCHAR 3074
ENCODING 12404
SWIDTH 1000 0
DWIDTH 8 0
BBX 8 8 0 -1
BITMAP
00
2C
EA
26
44
44
44
38
ENDCHAR
STARTCHAR 3075
ENCODING 12405
SWIDTH 1000 0
DWIDTH 8 0
BBX 8 8 0 -1
BITMAP
00
10
08
10
10
4C
4A
B2
ENDCHAR
STARTCHAR 3076
ENCODING 12406
SWIDTH 1000 0
DWIDTH 8 0
BBX 8 8 0 -1
BITMAP
00
10
0A
10
10
4C
4A
B2
ENDCHAR
STARTCHAR 3077
ENCODING 12407
SWIDTH 1000 0
DWIDTH 8 0
BBX 8 8 0 -1
BITMAP
00
14
0A
14
10
4C
4A
B2
ENDCHAR
STARTCHAR 3078
ENCODING 12408
SWIDTH 1000 0
DWIDTH 8 0
BBX 8 8 0 -1
BITMAP
00
00
20
50
88
06
00
00
ENDCHAR
STARTCHAR 3079
ENCODING 12409
SWIDTH 1000 0
DWIDTH 8 0
BBX 8 8 0 -1
BITMAP
00
0A
20
50
88
06
00
00
ENDCHAR
STARTCHAR 307A
ENCODING 12410
SWIDTH 1000 0
DWIDTH 8 0
BBX 8 8 0 -1
BITMAP
00
04
2A
54
88
06
00
00
ENDCHAR
STARTCHAR 307B
ENCODING 12411
SWIDTH 1000 0
DWIDTH 8 0
BBX 8 8 0 -1
BITMAP
00
80
BE
88
BE
88
BC
BA
ENDCHAR
STARTCHAR 307C
ENCODING 12412
SWIDTH 1000 0
DWIDTH 8 0
BBX 8 8 0 -1
BITMAP
00
8A
BE
88
BE
88
BC
BA
ENDCHAR
STARTCHAR 307D
ENCODING 12413
SWIDTH 1000 0
DWIDTH 8 0
BBX 8 8 0 -1
BITMAP
00
84
BA
8C
BE
88
BC
BA
ENDCHAR
STARTCHAR 307E
ENCODING 12414
SWIDTH 1000 0
DWIDTH 8 0
BBX 8 8 0 -1
BITMAP
00
08
7E
08
7E
08
7C
7A
ENDCHAR
STARTCHAR 307F
ENCODING 12415
SWIDTH 1000 0
DWIDTH 8 0
BBX 8 8 0 -1
BITMAP
00
70
10
24
7C
A6
C4
18
ENDCHAR
STARTCHAR 3080
ENCODING 12416
SWIDTH 1000 0
DWIDTH 8 0
BBX 8 8 0 -1
BITMAP
00
20
F4
22
60
A0
62
3C
ENDCHAR
STARTCHAR 3081
ENCODING 12417
SWIDTH 1000 0
DWIDTH 8 0
BBX 8 8 0 -1
BITMAP
00
08
48
5C
6A
B2
A2
54
ENDCHAR
STARTCHAR 3082
ENCODING 12418
SWIDTH 1000 0
DWIDTH 8 0
BBX 8 8 0 -1
BITMAP
00
10
7C
20
7C
22
22
1C
ENDCHAR
STARTCHAR 3083
ENCODING 12419
SWIDTH 1000 0
DWIDTH 8 0
BBX 8 8 0 -1
BITMAP
00
00
28
2C
72
14
10
08
ENDCHAR
STARTCHAR 3084
ENCODING 12420
SWIDTH 1000 0
DWIDTH 8 0
BBX 8 8 0 -1
BITMAP
00
48
5C
E2
24
20
10
10
ENDCHAR
STARTCHAR 3085
ENCODING 12421
SWIDTH 1000 0
DWIDTH 8 0
BBX 8 8 0 -1
BITMAP
00
00
10
58
74
54
18
20
ENDCHAR
STARTCHAR 3086
ENCODING 12422
SWIDTH 1000 0
DWIDTH 8 0
BBX 8 8 0 -1
BITMAP
00
10
BC
D2
92
BC
10
20
ENDCHAR
STARTCHAR 3087
ENCODING 12423
SWIDTH 1000 0
DWIDTH 8 0
BBX 8 8 0 -1
BITMAP
00
00
08
08
0C
38
48
34
ENDCHAR
STARTCHAR 3088
ENCODING 12424
SWIDTH 1000 0
DWIDTH 8 0
BBX 8 8 0 -1
BITMAP
00
08
08
0E
08
38
4C
32
ENDCHAR
STARTCHAR 3089
ENCODING 12425
SWIDTH 1000 0
DWIDTH 8 0
BBX 8 8 0 -1
BITMAP
00
30
08
40
5C
62
02
3C
ENDCHAR
STARTCHAR 308A
ENCODING 12426
SWIDTH 1000 0
DWIDTH 8 0
BBX 8 8 0 -1
BITMAP
00
58
64
44
44
04
08
30
ENDCHAR
STARTCHAR 308B
ENCODING 12427
SWIDTH 1000 0
DWIDTH 8 0
BBX 8 8 0 -1
BITMAP
00
3C
08
10
3C
42
32
3C
ENDCHAR
STARTCHAR 308C
ENCODING 12428
SWIDTH 1000 0
DWIDTH 8 0
BBX 8 8 0 -1
BITMAP
00
20
2C
F4
24
64
A4
22
ENDCHAR
STARTCHAR 308D
ENCODING 12429
SWIDTH 1000 0
DWIDTH 8 0
BBX 8 8 0 -1
BITMAP
00
3C
08
10
3C
42
02
3C
ENDCHAR
STARTCHAR 308E
ENCODING 12430
SWIDTH 1000 0
DWIDTH 8 0
BBX 8 8 0 -1
BITMAP
00
00
10
14
7A
32
52
14
ENDCHAR
STARTCHAR 308F
ENCODING 12431
SWIDTH 1000 0
DWIDTH 8 0
BBX 8 8 0 -1
BITMAP
00
20
2C
F2
22
62
A2
2C
ENDCHAR
STARTCHAR 3090
ENCODING 12432
SWIDTH 1000 0
DWIDTH 8 0
BBX 8 8 0 -1
BITMAP
00
70
10
3C
52
96
AA
46
ENDCHAR
STARTCHAR 3091
ENCODING 12433
SWIDTH 1000 0
DWIDTH 8 0
BBX 8 8 0 -1
BITMAP
00
38
10
38
44
18
6C
92
ENDCHAR
STARTCHAR 3092
ENCODING 12434
SWIDTH 1000 0
DWIDTH 8 0
BBX 8 8 0 -1
BITMAP
00
10
7C
20
76
98
28
1E
ENDCHAR
STARTCHAR 3093
ENCODING 12435
SWIDTH 1000 0
DWIDTH 8 0
BBX 8 8 0 -1
BITMAP
00
10
10
20
20
50
52
8C
ENDCHAR
STARTCHAR 309B
ENCODING 12443
SWIDTH 1000 0
DWIDTH 8 0
BBX 8 8 0 -1
BITMAP
00
A0
50
00
00
00
00
00
ENDCHAR
STARTCHAR 309C
ENCODING 12444
SWIDTH 1000 0
DWIDTH 8 0
BBX 8 8 0 -1
BITMAP
00
40
A0
40
00
00
00
00
ENDCHAR
STARTCHAR 309D
ENCODING 12445
SWIDTH 1000 0
DWIDTH 8 0
BBX 8 8 0 -1
BITMAP
00
00
20
10
08
0C
30
00
ENDCHAR
STARTCHAR 309E
ENCODING 12446
SWIDTH 1000 0
DWIDTH 8 0
BBX 8 8 0 -1
BITMAP
00
0A
20
10
08
0C
30
00
ENDCHAR
STARTCHAR 30A1
ENCODING 12449
SWIDTH 1000 0
DWIDTH 8 0
BBX 8 8 0 -1
BITMAP
00
00
00
7C
14
18
10
20
ENDCHAR
STARTCHAR 30A2
ENCODING 12450
SWIDTH 1000 0
DWIDTH 8 0
BBX 8 8 0 -1
BITMAP
00
7E
02
14
18
10
10
20
ENDCHAR
STARTCHAR 30A3
ENCODING 12451
SWIDTH 1000 0
DWIDTH 8 0
BBX 8 8 0 -1
BITMAP
00
00
00
04
08
18
68
08
ENDCHAR
STARTCHAR 30A4
ENCODING 12452
SWIDTH 1000 0
DWIDTH 8 0
BBX 8 8 0 -1
BITMAP
00
02
04
08
18
68
08
08
ENDCHAR
STARTCHAR 30A5
ENCODING 12453
SWIDTH 1000 0
DWIDTH 8 0
BBX 8 8 0 -1
BITMAP
00
00
00
10
7C
44
08
30
ENDCHAR
STARTCHAR 30A6
ENCODING 12454
SWIDTH 1000 0
DWIDTH 8 0
BBX 8 8 0 -1
BITMAP
00
10
7E
42
02
04
08
30
ENDCHAR
STARTCHAR 30A7
ENCODING 12455
SWIDTH 1000 0
DWIDTH 8 0
BBX 8 8 0 -1
BITMAP
00
00
00
00
38
10
10
7C
ENDCHAR
STARTCHAR 30A8
ENCODING 12456
SWIDTH 1000 0
DWIDTH 8 0
BBX 8 8 0 -1
BITMAP
00
00
7C
10
10
10
FE
00
ENDCHAR
STARTCHAR 30A9
ENCODING 12457
SWIDTH 1000 0
DWIDTH 8 0
BBX 8 8 0 -1
BITMAP
00
00
00
08
7C
18
68
18
ENDCHAR
STARTCHAR 30AA
ENCODING 12458
SWIDTH 1000 0
DWIDTH 8 0
BBX 8 8 0 -1
BITMAP
00
08
FE
08
18
28
C8
18
ENDCHAR
STARTCHAR 30AB
ENCODING 12459
SWIDTH 1000 0
DWIDTH 8 0
BBX 8 8 0 -1
BITMAP
00
10
7E
12
12
12
22
46
ENDCHAR
STARTCHAR 30AC
ENCODING 12460
SWIDTH 1000 0
DWIDTH 8 0
BBX 8 8 0 -1
BITMAP
00
14
7E
12
12
12
22
46
ENDCHAR
STARTCHAR 30AD
ENCODING 12461
SWIDTH 1000 0
DWIDTH 8 0
BBX 8 8 0 -1
BITMAP
00
10
7C
10
10
7E
08
08
ENDCHAR
STARTCHAR 30AE
ENCODING 12462
SWIDTH 1000 0
DWIDTH 8 0
BBX 8 8 0 -1
BITMAP
00
14
7C
10
10
7E
08
08
ENDCHAR
STARTCHAR 30AF
ENCODING 12463
SWIDTH 1000 0
DWIDTH 8 0
BBX 8 8 0 -1
BITMAP
00
10
1E
22
42
04
08
30
ENDCHAR
STARTCHAR 30B0
ENCODING 12464
SWIDTH 1000 0
DWIDTH 8 0
BBX 8 8 0 -1
BITMAP
00
14
1E
22
42
04
08
30
ENDCHAR
STARTCHAR 30B1
ENCODING 12465
SWIDTH 1000 0
DWIDTH 8 0
BBX 8 8 0 -1
BITMAP
00
40
7E
48
88
08
10
20
ENDCHAR
STARTCHAR 30B2
ENCODING 12466
SWIDTH 1000 0
DWIDTH 8 0
BBX 8 8 0 -1
BITMAP
00
4A
7E
48
88
08
10
20
ENDCHAR
STARTCHAR 30B3
ENCODING 12467
SWIDTH 1000 0
DWIDTH 8 0
BBX 8 8 0 -1
BITMAP
00
00
7E
02
02
02
02
7E
ENDCHAR
STARTCHAR 30B4
ENCODING 12468
SWIDTH 1000 0
DWIDTH 8 0
BBX 8 8 0 -1
BITMAP
00
0A
7E
02
02
02
02
7E
ENDCHAR
STARTCHAR 30B5
ENCODING 12469
SWIDTH 1000 0
DWIDTH 8 0
BBX 8 8 0 -1
BITMAP
00
24
FE
24
24
04
08
30
ENDCHAR
STARTCHAR 30B6
ENCODING 12470
SWIDTH 1000 0
DWIDTH 8 0
BBX 8 8 0 -1
BITMAP
00
2A
FE
24
24
04
08
30
ENDCHAR
STARTCHAR 30B7
ENCODING 12471
SWIDTH 1000 0
DWIDTH 8 0
BBX 8 8 0 -1
BITMAP
00
40
20
42
22
04
08
70
ENDCHAR
STARTCHAR 30B8
ENCODING 12472
SWIDTH 1000 0
DWIDTH 8 0
BBX 8 8 0 -1
BITMAP
00
4A
20
42
22
04
08
70
ENDCHAR
STARTCHAR 30B9
ENCODING 12473
SWIDTH 1000 0
DWIDTH 8 0
BBX 8 8 0 -1
BITMAP
00
00
7C
04
08
08
34
C2
ENDCHAR
STARTCHAR 30BA
ENCODING 12474
SWIDTH 1000 0
DWIDTH 8 0
BBX 8 8 0 -1
BITMAP
00
0A
7C
04
08
08
34
C2
ENDCHAR
STARTCHAR 30BB
ENCODING 12475
SWIDTH 1000 0
DWIDTH 8 0
BBX 8 8 0 -1
BITMAP
00
20
20
FE
22
24
20
1E
ENDCHAR
STARTCHAR 30BC
ENCODING 12476
SWIDTH 1000 0
DWIDTH 8 0
BBX 8 8 0 -1
BITMAP
00
2A
20
FE
22
24
20
1E
ENDCHAR
STARTCHAR 30BD
ENCODING 12477
SWIDTH 1000 0
DWIDTH 8 0
BBX 8 8 0 -1
BITMAP
00
42
22
22
02
04
08
30
ENDCHAR
STARTCHAR 30BE
ENCODING 12478
SWIDTH 1000 0
DWIDTH 8 0
BBX 8 8 0 -1
BITMAP
00
4A
20
22
02
04
08
30
ENDCHAR
STARTCHAR 30BF
ENCODING 12479
SWIDTH 1000 0
DWIDTH 8 0
BBX 8 8 0 -1
BITMAP
00
10
1E
22
5A
04
08
30
ENDCHAR
STARTCHAR 30C0
ENCODING 12480
SWIDTH 1000 0
DWIDTH 8 0
BBX 8 8 0 -1
BITMAP
00
14
1E
22
5A
04
08
30
ENDCHAR
STARTCHAR 30C1
ENCODING 12481
SWIDTH 1000 0
DWIDTH 8 0
BBX 8 8 0 -1
BITMAP
00
0C
70
10
FE
10
10
20
ENDCHAR
STARTCHAR 30C2
ENCODING 12482
SWIDTH 1000 0
DWIDTH 8 0
BBX 8 8 0 -1
BITMAP
00
0A
70
10
FE
10
10
20
ENDCHAR
STARTCHAR 30C3
ENCODING 12483
SWIDTH 1000 0
DWIDTH 8 0
BBX 8 8 0 -1
BITMAP
00
00
00
00
54
54
08
30
ENDCHAR
STARTCHAR 30C4
ENCODING 12484
SWIDTH 1000 0
DWIDTH 8 0
BBX 8 8 0 -1
BITMAP
00
00
A2
52
52
04
08
30
ENDCHAR
STARTCHAR 30C5
ENCODING 12485
SWIDTH 1000 0
DWIDTH 8 0
BBX 8 8 0 -1
BITMAP
00
0A
A0
52
52
04
08
30
ENDCHAR
STARTCHAR 30C6
ENCODING 12486
SWIDTH 1000 0
DWIDTH 8 0
BBX 8 8 0 -1
BITMAP
00
7C
00
FE
10
10
10
20
ENDCHAR
STARTCHAR 30C7
ENCODING 12487
SWIDTH 1000 0
DWIDTH 8 0
BBX 8 8 0 -1
BITMAP
00
7A
00
FE
10
10
10
20
ENDCHAR
STARTCHAR 30C8
ENCODING 12488
SWIDTH 1000 0
DWIDTH 8 0
BBX 8 8 0 -1
BITMAP
00
20
20
20
38
24
20
20
ENDCHAR
STARTCHAR 30C9
ENCODING 12489
SWIDTH 1000 0
DWIDTH 8 0
BBX 8 8 0 -1
BITMAP
00
2A
20
20
38
24
20
20
ENDCHAR
STARTCHAR 30CA
ENCODING 12490
SWIDTH 1000 0
DWIDTH 8 0
BBX 8 8 0 -1
BITMAP
00
10
10
FE
10
10
20
40
ENDCHAR
STARTCHAR 30CB
ENCODING 12491
SWIDTH 1000 0
DWIDTH 8 0
BBX 8 8 0 -1
BITMAP
00
00
7C
00
00
00
FE
00
ENDCHAR
STARTCHAR 30CC
ENCODING 12492
SWIDTH 1000 0
DWIDTH 8 0
BBX 8 8 0 -1
BITMAP
00
7C
04
34
08
18
24
C0
ENDCHAR
STARTCHAR 30CD
ENCODING 12493
SWIDTH 1000 0
DWIDTH 8 0
BBX 8 8 0 -1
BITMAP
00
10
7C
08
10
34
D2
10
ENDCHAR
STARTCHAR 30CE
ENCODING 12494
SWIDTH 1000 0
DWIDTH 8 0
BBX 8 8 0 -1
BITMAP
00
04
04
04
08
10
20
C0
ENDCHAR
STARTCHAR 30CF
ENCODING 12495
SWIDTH 1000 0
DWIDTH 8 0
BBX 8 8 0 -1
BITMAP
00
00
28
24
24
42
42
82
ENDCHAR
STARTCHAR 30D0
ENCODING 12496
SWIDTH 1000 0
DWIDTH 8 0
BBX 8 8 0 -1
BITMAP
00
0A
20
24
24
42
42
82
ENDCHAR
STARTCHAR 30D1
ENCODING 12497
SWIDTH 1000 0
DWIDTH 8 0
BBX 8 8 0 -1
BITMAP
00
04
2A
24
24
42
42
82
ENDCHAR
STARTCHAR 30D2
ENCODING 12498
SWIDTH 1000 0
DWIDTH 8 0
BBX 8 8 0 -1
BITMAP
00
40
40
46
78
40
40
3E
ENDCHAR
STARTCHAR 30D3
ENCODING 12499
SWIDTH 1000 0
DWIDTH 8 0
BBX 8 8 0 -1
BITMAP
00
4A
40
46
78
40
40
3E
ENDCHAR
STARTCHAR 30D4
ENCODING 12500
SWIDTH 1000 0
DWIDTH 8 0
BBX 8 8 0 -1
BITMAP
00
44
4A
46
78
40
40
3E
ENDCHAR
STARTCHAR 30D5
ENCODING 12501
SWIDTH 1000 0
DWIDTH 8 0
BBX 8 8 0 -1
BITMAP
00
00
7E
02
02
04
08
30
ENDCHAR
STARTCHAR 30D6
ENCODING 12502
SWIDTH 1000 0
DWIDTH 8 0
BBX 8 8 0 -1
BITMAP
00
0A
7E
02
02
04
08
30
ENDCHAR
STARTCHAR 30D7
ENCODING 12503
SWIDTH 1000 0
DWIDTH 8 0
BBX 8 8 0 -1
BITMAP
00
04
7A
06
02
04
08
30
ENDCHAR
STARTCHAR 30D8
ENCODING 12504
SWIDTH 1000 0
DWIDTH 8 0
BBX 8 8 0 -1
BITMAP
00
00
20
50
88
04
02
00
ENDCHAR
STARTCHAR 30D9
ENCODING 12505
SWIDTH 1000 0
DWIDTH 8 0
BBX 8 8 0 -1
BITMAP
00
0A
20
50
88
04
02
00
ENDCHAR
STARTCHAR 30DA
ENCODING 12506
SWIDTH 1000 0
DWIDTH 8 0
BBX 8 8 0 -1
BITMAP
00
04
2A
54
88
04
02
00
ENDCHAR
STARTCHAR 30DB
ENCODING 12507
SWIDTH 1000 0
DWIDTH 8 0
BBX 8 8 0 -1
BITMAP
00
10
10
FE
10
54
92
30
ENDCHAR
STARTCHAR 30DC
ENCODING 12508
SWIDTH 1000 0
DWIDTH 8 0
BBX 8 8 0 -1
BITMAP
00
1A
10
FE
10
54
92
30
ENDCHAR
STARTCHAR 30DD
ENCODING 12509
SWIDTH 1000 0
DWIDTH 8 0
BBX 8 8 0 -1
BITMAP
00
14
1A
F4
10
54
92
30
ENDCHAR
STARTCHAR 30DE
ENCODING 12510
SWIDTH 1000 0
DWIDTH 8 0
BBX 8 8 0 -1
BITMAP
00
00
FE
02
04
28
10
08
ENDCHAR
STARTCHAR 30DF
ENCODING 12511
SWIDTH 1000 0
DWIDTH 8 0
BBX 8 8 0 -1
BITMAP
00
70
0C
20
18
00
70
0C
ENDCHAR
STARTCHAR 30E0
ENCODING 12512
SWIDTH 1000 0
DWIDTH 8 0
BBX 8 8 0 -1
BITMAP
00
10
10
20
20
48
44
FA
ENDCHAR
STARTCHAR 30E1
ENCODING 12513
SWIDTH 1000 0
DWIDTH 8 0
BBX 8 8 0 -1
BITMAP
00
04
04
74
08
14
24
C0
ENDCHAR
STARTCHAR 30E2
ENCODING 12514
SWIDTH 1000 0
DWIDTH 8 0
BBX 8 8 0 -1
BITMAP
00
3C
10
10
7E
10
10
0E
ENDCHAR
STARTCHAR 30E3
ENCODING 12515
SWIDTH 1000 0
DWIDTH 8 0
BBX 8 8 0 -1
BITMAP
00
00
00
20
3C
64
10
10
ENDCHAR
STARTCHAR 30E4
ENCODING 12516
SWIDTH 1000 0
DWIDTH 8 0
BBX 8 8 0 -1
BITMAP
00
20
2E
F2
24
10
10
10
ENDCHAR
STARTCHAR 30E5
ENCODING 12517
SWIDTH 1000 0
DWIDTH 8 0
BBX 8 8 0 -1
BITMAP
00
00
00
00
38
08
08
7C
ENDCHAR
STARTCHAR 30E6
ENCODING 12518
SWIDTH 1000 0
DWIDTH 8 0
BBX 8 8 0 -1
BITMAP
00
00
78
08
08
08
FE
00
ENDCHAR
STARTCHAR 30E7
ENCODING 12519
SWIDTH 1000 0
DWIDTH 8 0
BBX 8 8 0 -1
BITMAP
00
00
00
3C
04
1C
04
3C
ENDCHAR
STARTCHAR 30E8
ENCODING 12520
SWIDTH 1000 0
DWIDTH 8 0
BBX 8 8 0 -1
BITMAP
00
00
7E
02
3E
02
02
7E
ENDCHAR
STARTCHAR 30E9
ENCODING 12521
SWIDTH 1000 0
DWIDTH 8 0
BBX 8 8 0 -1
BITMAP
00
3C
00
7E
02
04
08
30
ENDCHAR
STARTCHAR 30EA
ENCODING 12522
SWIDTH 1000 0
DWIDTH 8 0
BBX 8 8 0 -1
BITMAP
00
44
44
44
44
04
08
30
ENDCHAR
STARTCHAR 30EB
ENCODING 12523
SWIDTH 1000 0
DWIDTH 8 0
BBX 8 8 0 -1
BITMAP
00
08
28
28
28
2A
4C
88
ENDCHAR
STARTCHAR 30EC
ENCODING 12524
SWIDTH 1000 0
DWIDTH 8 0
BBX 8 8 0 -1
BITMAP
00
20
20
20
22
24
28
30
ENDCHAR
STARTCHAR 30ED
ENCODING 12525
SWIDTH 1000 0
DWIDTH 8 0
BBX 8 8 0 -1
BITMAP
00
00
7E
42
42
42
42
7E
ENDCHAR
STARTCHAR 30EE
ENCODING 12526
SWIDTH 1000 0
DWIDTH 8 0
BBX 8 8 0 -1
BITMAP
00
00
00
7C
44
04
08
30
ENDCHAR
STARTCHAR 30EF
ENCODING 12527
SWIDTH 1000 0
DWIDTH 8 0
BBX 8 8 0 -1
BITMAP
00
00
7E
42
02
04
08
30
ENDCHAR
STARTCHAR 30F0
ENCODING 12528
SWIDTH 1000 0
DWIDTH 8 0
BBX 8 8 0 -1
BITMAP
00
04
7E
24
24
FE
04
04
ENDCHAR
STARTCHAR 30F1
ENCODING 12529
SWIDTH 1000 0
DWIDTH 8 0
BBX 8 8 0 -1
BITMAP
00
00
7C
08
10
10
FE
00
ENDCHAR
STARTCHAR 30F2
ENCODING 12530
SWIDTH 1000 0
DWIDTH 8 0
BBX 8 8 0 -1
BITMAP
00
7E
02
3E
02
04
08
30
ENDCHAR
STARTCHAR 30F3
ENCODING 12531
SWIDTH 1000 0
DWIDTH 8 0
BBX 8 8 0 -1
BITMAP
00
40
20
02
02
04
08
70
ENDCHAR
STARTCHAR 30F4
ENCODING 12532
SWIDTH 1000 0
DWIDTH 8 0
BBX 8 8 0 -1
BITMAP
00
14
7E
42
02
04
08
30
ENDCHAR
STARTCHAR 30F5
ENCODING 12533
SWIDTH 1000 0
DWIDTH 8 0
BBX 8 8 0 -1
BITMAP
00
00
00
10
7C
14
24
4C
ENDCHAR
STARTCHAR 30F6
ENCODING 12534
SWIDTH 1000 0
DWIDTH 8 0
BBX 8 8 0 -1
BITMAP
00
00
00
20
3C
48
08
10
ENDCHAR
STARTCHAR 30FB
ENCODING 12539
SWIDTH 1000 0
DWIDTH 8 0
BBX 8 8 0 -1
BITMAP
00
00
00
00
30
30
00
00
ENDCHAR
STARTCHAR 30FC
ENCODING 12540
SWIDTH 1000 0
DWIDTH 8 0
BBX 8 8 0 -1
BITMAP
00
00
00
80
7E
00
00
00
ENDCHAR
STARTCHAR 30FD
ENCODING 12541
SWIDTH 1000 0
DWIDTH 8 0
BBX 8 8 0 -1
BITMAP
00
00
00
20
10
08
08
00
ENDCHAR
STARTCHAR 30FE
ENCODING 12542
SWIDTH 1000 0
DWIDTH 8 0
BBX 8 8 0 -1
BITMAP
00
0A
00
20
10
08
08
00
ENDCHAR
STARTCHAR 3105
ENCODING 12549
SWIDTH 1000 0
DWIDTH 8 0
BBX 8 8 0 -1
BITMAP
00
10
20
7C
04
04
04
18
ENDCHAR
STARTCHAR 3106
ENCODING 12550
SWIDTH 1000 0
DWIDTH 8 0
BBX 8 8 0 -1
BITMAP
00
20
7C
04
28
10
28
44
ENDCHAR
STARTCHAR 3107
ENCODING 12551
SWIDTH 1000 0
DWIDTH 8 0
BBX 8 8 0 -1
BITMAP
00
7C
44
44
44
44
44
44
ENDCHAR
STARTCHAR 3108
ENCODING 12552
SWIDTH 1000 0
DWIDTH 8 0
BBX 8 8 0 -1
BITMAP
00
7C
40
40
40
40
40
7C
ENDCHAR
STARTCHAR 3109
ENCODING 12553
SWIDTH 1000 0
DWIDTH 8 0
BBX 8 8 0 -1
BITMAP
00
40
7C
24
24
24
24
48
ENDCHAR
STARTCHAR 310A
ENCODING 12554
SWIDTH 1000 0
DWIDTH 8 0
BBX 8 8 0 -1
BITMAP
00
10
7C
20
20
48
48
74
ENDCHAR
STARTCHAR 310B
ENCODING 12555
SWIDTH 1000 0
DWIDTH 8 0
BBX 8 8 0 -1
BITMAP
00
78
08
10
3C
04
04
18
ENDCHAR
STARTCHAR 310C
ENCODING 12556
SWIDTH 1000 0
DWIDTH 8 0
BBX 8 8 0 -1
BITMAP
00
50
7C
14
14
24
24
48
ENDCHAR
STARTCHAR 310D
ENCODING 12557
SWIDTH 1000 0
DWIDTH 8 0
BBX 8 8 0 -1
BITMAP
00
14
28
28
50
28
28
14
ENDCHAR
STARTCHAR 310E
ENCODING 12558
SWIDTH 1000 0
DWIDTH 8 0
BBX 8 8 0 -1
BITMAP
00
7C
10
20
3C
04
04
18
ENDCHAR
STARTCHAR 310F
ENCODING 12559
SWIDTH 1000 0
DWIDTH 8 0
BBX 8 8 0 -1
BITMAP
00
3C
20
20
20
20
20
40
ENDCHAR
STARTCHAR 3110
ENCODING 12560
SWIDTH 1000 0
DWIDTH 8 0
BBX 8 8 0 -1
BITMAP
00
04
44
44
4C
74
04
04
ENDCHAR
STARTCHAR 3111
ENCODING 12561
SWIDTH 1000 0
DWIDTH 8 0
BBX 8 8 0 -1
BITMAP
00
04
18
20
40
20
18
04
ENDCHAR
STARTCHAR 3112
ENCODING 12562
SWIDTH 1000 0
DWIDTH 8 0
BBX 8 8 0 -1
BITMAP
00
7C
10
10
10
10
10
10
ENDCHAR
STARTCHAR 3113
ENCODING 12563
SWIDTH 1000 0
DWIDTH 8 0
BBX 8 8 0 -1
BITMAP
00
10
54
54
7C
10
10
7C
ENDCHAR
STARTCHAR 3114
ENCODING 12564
SWIDTH 1000 0
DWIDTH 8 0
BBX 8 8 0 -1
BITMAP
00
04
08
34
08
38
08
08
ENDCHAR
STARTCHAR 3115
ENCODING 12565
SWIDTH 1000 0
DWIDTH 8 0
BBX 8 8 0 -1
BITMAP
00
7C
04
04
3C
20
20
40
ENDCHAR
STARTCHAR 3116
ENCODING 12566
SWIDTH 1000 0
DWIDTH 8 0
BBX 8 8 0 -1
BITMAP
00
7C
44
64
54
4C
44
7C
ENDCHAR
STARTCHAR 3117
ENCODING 12567
SWIDTH 1000 0
DWIDTH 8 0
BBX 8 8 0 -1
BITMAP
00
7C
24
24
2C
20
20
20
ENDCHAR
STARTCHAR 3118
ENCODING 12568
SWIDTH 1000 0
DWIDTH 8 0
BBX 8 8 0 -1
BITMAP
00
10
7C
20
38
08
08
10
ENDCHAR
STARTCHAR 3119
ENCODING 12569
SWIDTH 1000 0
DWIDTH 8 0
BBX 8 8 0 -1
BITMAP
00
10
10
20
20
48
48
74
ENDCHAR
STARTCHAR 311A
ENCODING 12570
SWIDTH 1000 0
DWIDTH 8 0
BBX 8 8 0 -1
BITMAP
00
44
28
10
10
10
10
10
ENDCHAR
STARTCHAR 311B
ENCODING 12571
SWIDTH 1000 0
DWIDTH 8 0
BBX 8 8 0 -1
BITMAP
00
7C
10
10
30
40
44
38
ENDCHAR
STARTCHAR 311C
ENCODING 12572
SWIDTH 1000 0
DWIDTH 8 0
BBX 8 8 0 -1
BITMAP
00
10
7C
10
30
40
44
38
ENDCHAR
STARTCHAR 311D
ENCODING 12573
SWIDTH 1000 0
DWIDTH 8 0
BBX 8 8 0 -1
BITMAP
00
28
7C
28
28
20
20
1C
ENDCHAR
STARTCHAR 311E
ENCODING 12574
SWIDTH 1000 0
DWIDTH 8 0
BBX 8 8 0 -1
BITMAP
00
7C
50
7C
14
14
24
48
ENDCHAR
STARTCHAR 311F
ENCODING 12575
SWIDTH 1000 0
DWIDTH 8 0
BBX 8 8 0 -1
BITMAP
00
30
50
10
10
10
08
04
ENDCHAR
STARTCHAR 3120
ENCODING 12576
SWIDTH 1000 0
DWIDTH 8 0
BBX 8 8 0 -1
BITMAP
00
20
48
68
10
20
48
74
ENDCHAR
STARTCHAR 3121
ENCODING 12577
SWIDTH 1000 0
DWIDTH 8 0
BBX 8 8 0 -1
BITMAP
00
7C
04
44
28
10
28
44
ENDCHAR
STARTCHAR 3122
ENCODING 12578
SWIDTH 1000 0
DWIDTH 8 0
BBX 8 8 0 -1
BITMAP
00
78
28
28
3C
04
04
08
ENDCHAR
STARTCHAR 3123
ENCODING 12579
SWIDTH 1000 0
DWIDTH 8 0
BBX 8 8 0 -1
BITMAP
00
20
20
40
7C
04
04
08
ENDCHAR
STARTCHAR 3124
ENCODING 12580
SWIDTH 1000 0
DWIDTH 8 0
BBX 8 8 0 -1
BITMAP
00
10
7C
10
10
28
28
4C
ENDCHAR
STARTCHAR 3125
ENCODING 12581
SWIDTH 1000 0
DWIDTH 8 0
BBX 8 8 0 -1
BITMAP
00
10
10
10
20
40
40
7C
ENDCHAR
STARTCHAR 3126
ENCODING 12582
SWIDTH 1000 0
DWIDTH 8 0
BBX 8 8 0 -1
BITMAP
00
28
28
28
28
28
28
4C
ENDCHAR
STARTCHAR 3127
ENCODING 12583
SWIDTH 1000 0
DWIDTH 8 0
BBX 8 8 0 -1
BITMAP
00
00
00
7C
00
00
00
00
ENDCHAR
STARTCHAR 3128
ENCODING 12584
SWIDTH 1000 0
DWIDTH 8 0
BBX 8 8 0 -1
BITMAP
00
04
44
28
10
10
28
44
ENDCHAR
STARTCHAR 3129
ENCODING 12585
SWIDTH 1000 0
DWIDTH 8 0
BBX 8 8 0 -1
BITMAP
00
44
44
44
44
44
44
7C
ENDCHAR
STARTCHAR 312A
ENCODING 12586
SWIDTH 1000 0
DWIDTH 8 0
BBX 8 8 0 -1
BITMAP
00
7C
20
3C
24
24
24
48
ENDCHAR
STARTCHAR 312B
ENCODING 12587
SWIDTH 1000 0
DWIDTH 8 0
BBX 8 8 0 -1
BITMAP
00
7C
28
28
28
28
28
4C
ENDCHAR
STARTCHAR 312C
ENCODING 12588
SWIDTH 1000 0
DWIDTH 8 0
BBX 8 8 0 -1
BITMAP
00
10
3C
20
20
20
20
40
ENDCHAR
STARTCHAR 312D
ENCODING 12589
SWIDTH 1000 0
DWIDTH 8 0
BBX 8 8 0 -1
BITMAP
00
7C
10
7C
54
54
54
10
ENDCHAR
STARTCHAR 312E
ENCODING 12590
SWIDTH 1000 0
DWIDTH 8 0
BBX 8 8 0 -1
BITMAP
00
10
00
7C
10
30
44
38
ENDCHAR
STARTCHAR 312F
ENCODING 12591
SWIDTH 1000 0
DWIDTH 8 0
BBX 8 8 0 -1
BITMAP
00
78
08
10
5C
44
44
58
ENDCHAR
STARTCHAR 3131
ENCODING 12593
SWIDTH 1000 0
DWIDTH 8 0
BBX 8 10 0 -2
BITMAP
00
00
00
7C
04
04
04
04
00
00
ENDCHAR
STARTCHAR 3132
ENCODING 12594
SWIDTH 1000 0
DWIDTH 8 0
BBX 8 10 0 -2
BITMAP
00
00
00
7C
14
14
14
14
00
00
ENDCHAR
STARTCHAR 3133
ENCODING 12595
SWIDTH 1000 0
DWIDTH 8 0
BBX 8 10 0 -2
BITMAP
00
00
00
7C
04
04
04
04
00
00
ENDCHAR
STARTCHAR 3134
ENCODING 12596
SWIDTH 1000 0
DWIDTH 8 0
BBX 8 10 0 -2
BITMAP
00
00
00
40
40
40
40
7C
00
00
ENDCHAR
STARTCHAR 3135
ENCODING 12597
SWIDTH 1000 0
DWIDTH 8 0
BBX 8 10 0 -2
BITMAP
00
00
00
8E
84
84
8A
EA
00
00
ENDCHAR
STARTCHAR 3136
ENCODING 12598
SWIDTH 1000 0
DWIDTH 8 0
BBX 8 10 0 -2
BITMAP
00
00
04
8E
84
8A
8A
E4
00
00
ENDCHAR
STARTCHAR 3137
ENCODING 12599
SWIDTH 1000 0
DWIDTH 8 0
BBX 8 10 0 -2
BITMAP
00
00
00
7C
40
40
40
7C
00
00
ENDCHAR
STARTCHAR 3138
ENCODING 12600
SWIDTH 1000 0
DWIDTH 8 0
BBX 8 10 0 -2
BITMAP
00
00
00
7C
50
50
50
7C
00
00
ENDCHAR
STARTCHAR 3139
ENCODING 12601
SWIDTH 1000 0
DWIDTH 8 0
BBX 8 10 0 -2
BITMAP
00
00
00
7C
04
7C
40
7C
00
00
ENDCHAR
STARTCHAR 313A
ENCODING 12602
SWIDTH 1000 0
DWIDTH 8 0
BBX 8 10 0 -2
BITMAP
00
00
00
EE
22
E2
82
E2
00
00
ENDCHAR
STARTCHAR 313B
ENCODING 12603
SWIDTH 1000 0
DWIDTH 8 0
BBX 8 10 0 -2
BITMAP
00
00
00
EE
2A
EA
8A
EE
00
00
ENDCHAR
STARTCHAR 313C
ENCODING 12604
SWIDTH 1000 0
DWIDTH 8 0
BBX 8 10 0 -2
BITMAP
00
00
00
EA
2A
EE
8A
EE
00
00
ENDCHAR
STARTCHAR 313D
ENCODING 12605
SWIDTH 1000 0
DWIDTH 8 0
BBX 8 10 0 -2
BITMAP
00
00
00
E4
24
EA
8A
EA
00
00
ENDCHAR
STARTCHAR 313E
ENCODING 12606
SWIDTH 1000 0
DWIDTH 8 0
BBX 8 10 0 -2
BITMAP
00
00
00
EE
28
EE
88
EE
00
00
ENDCHAR
STARTCHAR 313F
ENCODING 12607
SWIDTH 1000 0
DWIDTH 8 0
BBX 8 10 0 -2
BITMAP
00
00
00
FE
20
EC
8C
FE
00
00
ENDCHAR
STARTCHAR 3140
ENCODING 12608
SWIDTH 1000 0
DWIDTH 8 0
BBX 8 10 0 -2
BITMAP
00
00
04
EE
24
EA
8A
E4
00
00
ENDCHAR
STARTCHAR 3141
ENCODING 12609
SWIDTH 1000 0
DWIDTH 8 0
BBX 8 10 0 -2
BITMAP
00
00
00
7C
44
44
44
7C
00
00
ENDCHAR
STARTCHAR 3142
ENCODING 12610
SWIDTH 1000 0
DWIDTH 8 0
BBX 8 10 0 -2
BITMAP
00
00
00
44
44
7C
44
7C
00
00
ENDCHAR
STARTCHAR 3143
ENCODING 12611
SWIDTH 1000 0
DWIDTH 8 0
BBX 8 10 0 -2
BITMAP
00
00
00
AA
AA
EE
AA
EE
00
00
ENDCHAR
STARTCHAR 3144
ENCODING 12612
SWIDTH 1000 0
DWIDTH 8 0
BBX 8 10 0 -2
BITMAP
00
00
00
A4
A4
EA
AA
EA
00
00
ENDCHAR
STARTCHAR 3145
ENCODING 12613
SWIDTH 1000 0
DWIDTH 8 0
BBX 8 10 0 -2
BITMAP
00
00
00
10
10
28
28
44
00
00
ENDCHAR
STARTCHAR 3146
ENCODING 12614
SWIDTH 1000 0
DWIDTH 8 0
BBX 8 10 0 -2
BITMAP
00
00
00
28
28
54
54
92
00
00
ENDCHAR
STARTCHAR 3147
ENCODING 12615
SWIDTH 1000 0
DWIDTH 8 0
BBX 8 10 0 -2
BITMAP
00
00
00
38
44
44
44
38
00
00
ENDCHAR
STARTCHAR 3148
ENCODING 12616
SWIDTH 1000 0
DWIDTH 8 0
BBX 8 10 0 -2
BITMAP
00
00
00
7C
10
28
28
44
00
00
ENDCHAR
STARTCHAR 3149
ENCODING 12617
SWIDTH 1000 0
DWIDTH 8 0
BBX 8 10 0 -2
BITMAP
00
00
00
FE
28
54
54
92
00
00
ENDCHAR
STARTCHAR 314A
ENCODING 12618
SWIDTH 1000 0
DWIDTH 8 0
BBX 8 10 0 -2
BITMAP
00
00
10
7C
10
28
28
44
00
00
ENDCHAR
STARTCHAR 314B
ENCODING 12619
SWIDTH 1000 0
DWIDTH 8 0
BBX 8 10 0 -2
BITMAP
00
00
00
7C
04
7C
04
04
00
00
ENDCHAR
STARTCHAR 314C
ENCODING 12620
SWIDTH 1000 0
DWIDTH 8 0
BBX 8 10 0 -2
BITMAP
00
00
00
7C
40
7C
40
7C
00
00
ENDCHAR
STARTCHAR 314D
ENCODING 12621
SWIDTH 1000 0
DWIDTH 8 0
BBX 8 10 0 -2
BITMAP
00
00
00
7C
28
28
28
7C
00
00
ENDCHAR
STARTCHAR 314E
ENCODING 12622
SWIDTH 1000 0
DWIDTH 8 0
BBX 8 10 0 -2
BITMAP
00
00
10
7C
38
44
44
38
00
00
ENDCHAR
STARTCHAR 314F
ENCODING 12623
SWIDTH 1000 0
DWIDTH 8 0
BBX 8 10 0 -2
BITMAP
00
00
20
20
20
38
20
20
20
00
ENDCHAR
STARTCHAR 3150
ENCODING 12624
SWIDTH 1000 0
DWIDTH 8 0
BBX 8 10 0 -2
BITMAP
00
00
28
28
28
38
28
28
28
00
ENDCHAR
STARTCHAR 3151
ENCODING 12625
SWIDTH 1000 0
DWIDTH 8 0
BBX 8 10 0 -2
BITMAP
00
00
20
20
38
20
38
20
20
00
ENDCHAR
STARTCHAR 3152
ENCODING 12626
SWIDTH 1000 0
DWIDTH 8 0
BBX 8 10 0 -2
BITMAP
00
00
28
28
38
28
38
28
28
00
ENDCHAR
STARTCHAR 3153
ENCODING 12627
SWIDTH 1000 0
DWIDTH 8 0
BBX 8 10 0 -2
BITMAP
00
00
08
08
08
38
08
08
08
00
ENDCHAR
STARTCHAR 3154
ENCODING 12628
SWIDTH 1000 0
DWIDTH 8 0
BBX 8 10 0 -2
BITMAP
00
00
14
14
14
74
14
14
14
00
ENDCHAR
STARTCHAR 3155
ENCODING 12629
SWIDTH 1000 0
DWIDTH 8 0
BBX 8 10 0 -2
BITMAP
00
00
08
08
38
08
38
08
08
00
ENDCHAR
STARTCHAR 3156
ENCODING 12630
SWIDTH 1000 0
DWIDTH 8 0
BBX 8 10 0 -2
BITMAP
00
00
14
14
74
14
74
14
14
00
ENDCHAR
STARTCHAR 3157
ENCODING 12631
SWIDTH 1000 0
DWIDTH 8 0
BBX 8 10 0 -2
BITMAP
00
00
00
00
10
10
FE
00
00
00
ENDCHAR
STARTCHAR 3158
ENCODING 12632
SWIDTH 1000 0
DWIDTH 8 0
BBX 8 10 0 -2
BITMAP
00
00
04
04
04
46
44
F4
04
00
ENDCHAR
STARTCHAR 3159
ENCODING 12633
SWIDTH 1000 0
DWIDTH 8 0
BBX 8 10 0 -2
BITMAP
00
00
0A
0A
0A
4E
4A
FA
0A
00
ENDCHAR
STARTCHAR 315A
ENCODING 12634
SWIDTH 1000 0
DWIDTH 8 0
BBX 8 10 0 -2
BITMAP
00
00
04
04
04
44
44
F4
04
00
ENDCHAR
STARTCHAR 315B
ENCODING 12635
SWIDTH 1000 0
DWIDTH 8 0
BBX 8 10 0 -2
BITMAP
00
00
00
00
28
28
FE
00
00
00
ENDCHAR
STARTCHAR 315C
ENCODING 12636
SWIDTH 1000 0
DWIDTH 8 0
BBX 8 10 0 -2
BITMAP
00
00
00
00
FE
10
10
00
00
00
ENDCHAR
STARTCHAR 315D
ENCODING 12637
SWIDTH 1000 0
DWIDTH 8 0
BBX 8 10 0 -2
BITMAP
00
00
04
04
04
F4
4C
44
44
00
ENDCHAR
STARTCHAR 315E
ENCODING 12638
SWIDTH 1000 0
DWIDTH 8 0
BBX 8 10 0 -2
BITMAP
00
00
0A
0A
0A
EA
5A
4A
4A
00
ENDCHAR
STARTCHAR 315F
ENCODING 12639
SWIDTH 1000 0
DWIDTH 8 0
BBX 8 10 0 -2
BITMAP
00
00
04
04
04
F4
44
44
44
00
ENDCHAR
STARTCHAR 3160
ENCODING 12640
SWIDTH 1000 0
DWIDTH 8 0
BBX 8 10 0 -2
BITMAP
00
00
00
00
FE
28
28
00
00
00
ENDCHAR
STARTCHAR 3161
ENCODING 12641
SWIDTH 1000 0
DWIDTH 8 0
BBX 8 10 0 -2
BITMAP
00
00
00
00
00
FE
00
00
00
00
ENDCHAR
STARTCHAR 3162
ENCODING 12642
SWIDTH 1000 0
DWIDTH 8 0
BBX 8 10 0 -2
BITMAP
00
00
04
04
04
04
04
F4
04
00
ENDCHAR
STARTCHAR 3163
ENCODING 12643
SWIDTH 1000 0
DWIDTH 8 0
BBX 8 10 0 -2
BITMAP
00
00
10
10
10
10
10
10
10
00
ENDCHAR
STARTCHAR 3164
ENCODING 12644
SWIDTH 1000 0
DWIDTH 8 0
BBX 8 10 0 -2
BITMAP
00
00
00
00
00
00
00
00
00
00
ENDCHAR
STARTCHAR 3220
ENCODING 12832
SWIDTH 1000 0
DWIDTH 8 0
BBX 8 8 0 -1
BITMAP
00
44
82
82
BA
82
82
44
ENDCHAR
STARTCHAR 3221
ENCODING 12833
SWIDTH 1000 0
DWIDTH 8 0
BBX 8 8 0 -1
BITMAP
00
44
82
BA
82
BA
82
44
ENDCHAR
STARTCHAR 3222
ENCODING 12834
SWIDTH 1000 0
DWIDTH 8 0
BBX 8 8 0 -1
BITMAP
00
44
BA
82
BA
82
BA
44
ENDCHAR
STARTCHAR 3223
ENCODING 12835
SWIDTH 1000 0
DWIDTH 8 0
BBX 8 8 0 -1
BITMAP
00
44
BA
BA
BA
AA
BA
44
ENDCHAR
STARTCHAR 3224
ENCODING 12836
SWIDTH 1000 0
DWIDTH 8 0
BBX 8 8 0 -1
BITMAP
00
44
BA
92
BA
9A
BA
44
ENDCHAR
STARTCHAR 3225
ENCODING 12837
SWIDTH 1000 0
DWIDTH 8 0
BBX 8 8 0 -1
BITMAP
00
44
92
BA
82
AA
AA
44
ENDCHAR
STARTCHAR 3226
ENCODING 12838
SWIDTH 1000 0
DWIDTH 8 0
BBX 8 8 0 -1
BITMAP
00
44
92
9A
B2
92
9A
44
ENDCHAR
STARTCHAR 3227
ENCODING 12839
SWIDTH 1000 0
DWIDTH 8 0
BBX 8 8 0 -1
BITMAP
00
44
9A
8A
AA
AA
AA
44
ENDCHAR
STARTCHAR 3228
ENCODING 12840
SWIDTH 1000 0
DWIDTH 8 0
BBX 8 8 0 -1
BITMAP
00
44
92
B2
92
92
AA
44
ENDCHAR
STARTCHAR 3229
ENCODING 12841
SWIDTH 1000 0
DWIDTH 8 0
BBX 8 8 0 -1
BITMAP
00
44
92
92
BA
92
92
44
ENDCHAR
STARTCHAR 3231
ENCODING 12849
SWIDTH 1000 0
DWIDTH 8 0
BBX 8 8 0 -1
BITMAP
00
44
F2
BE
EA
FE
AA
6C
ENDCHAR
STARTCHAR 3232
ENCODING 12850
SWIDTH 1000 0
DWIDTH 8 0
BBX 8 8 0 -1
BITMAP
00
54
BA
92
BE
D6
9E
54
ENDCHAR
STARTCHAR 3239
ENCODING 12857
SWIDTH 1000 0
DWIDTH 8 0
BBX 8 8 0 -1
BITMAP
00
44
AA
BE
EA
AA
A6
44
ENDCHAR
STARTCHAR 3268
ENCODING 12904
SWIDTH 1000 0
DWIDTH 8 0
BBX 8 8 0 -1
BITMAP
00
38
44
BA
92
AA
44
38
ENDCHAR
STARTCHAR 3280
ENCODING 12928
SWIDTH 1000 0
DWIDTH 8 0
BBX 8 8 0 -1
BITMAP
00
7C
82
82
BA
82
82
7C
ENDCHAR
STARTCHAR 3281
ENCODING 12929
SWIDTH 1000 0
DWIDTH 8 0
BBX 8 8 0 -1
BITMAP
00
7C
82
BA
82
BA
82
7C
ENDCHAR
STARTCHAR 3282
ENCODING 12930
SWIDTH 1000 0
DWIDTH 8 0
BBX 8 8 0 -1
BITMAP
00
7C
BA
82
BA
82
BA
7C
ENDCHAR
STARTCHAR 3283
ENCODING 12931
SWIDTH 1000 0
DWIDTH 8 0
BBX 8 8 0 -1
BITMAP
00
7C
BA
BA
BA
AA
BA
7C
ENDCHAR
STARTCHAR 3284
ENCODING 12932
SWIDTH 1000 0
DWIDTH 8 0
BBX 8 8 0 -1
BITMAP
00
7C
BA
92
BA
9A
BA
7C
ENDCHAR
STARTCHAR 3285
ENCODING 12933
SWIDTH 1000 0
DWIDTH 8 0
BBX 8 8 0 -1
BITMAP
00
7C
92
BA
82
AA
AA
7C
ENDCHAR
STARTCHAR 3286
ENCODING 12934
SWIDTH 1000 0
DWIDTH 8 0
BBX 8 8 0 -1
BITMAP
00
7C
92
9A
B2
92
9A
7C
ENDCHAR
STARTCHAR 3287
ENCODING 12935
SWIDTH 1000 0
DWIDTH 8 0
BBX 8 8 0 -1
BITMAP
00
7C
9A
8A
AA
AA
AA
7C
ENDCHAR
STARTCHAR 3288
ENCODING 12936
SWIDTH 1000 0
DWIDTH 8 0
BBX 8 8 0 -1
BITMAP
00
7C
92
B2
92
92
AA
7C
ENDCHAR
STARTCHAR 3289
ENCODING 12937
SWIDTH 1000 0
DWIDTH 8 0
BBX 8 8 0 -1
BITMAP
00
7C
92
92
BA
92
92
7C
ENDCHAR
STARTCHAR 32A3
ENCODING 12963
SWIDTH 1000 0
DWIDTH 8 0
BBX 8 8 0 -1
BITMAP
00
7C
82
EE
A2
AE
82
7C
ENDCHAR
STARTCHAR 32A4
ENCODING 12964
SWIDTH 1000 0
DWIDTH 8 0
BBX 8 8 0 -1
BITMAP
00
7C
92
9A
92
92
BA
7C
ENDCHAR
STARTCHAR 32A5
ENCODING 12965
SWIDTH 1000 0
DWIDTH 8 0
BBX 8 8 0 -1
BITMAP
00
7C
92
FE
D6
FE
92
7C
ENDCHAR
STARTCHAR 32A6
ENCODING 12966
SWIDTH 1000 0
DWIDTH 8 0
BBX 8 8 0 -1
BITMAP
00
7C
BA
92
9A
92
92
7C
ENDCHAR
STARTCHAR 32A7
ENCODING 12967
SWIDTH 1000 0
DWIDTH 8 0
BBX 8 8 0 -1
BITMAP
00
7C
FA
A2
BA
D2
BA
7C
ENDCHAR
STARTCHAR 32A8
ENCODING 12968
SWIDTH 1000 0
DWIDTH 8 0
BBX 8 8 0 -1
BITMAP
00
7C
A2
FA
A2
DA
9A
7C
ENDCHAR
STARTCHAR 32FF
ENCODING 13055
SWIDTH 1000 0
DWIDTH 8 0
BBX 8 8 0 -1
BITMAP
00
4C
A6
EE
06
EE
6C
44
ENDCHAR
STARTCHAR 4E00
ENCODING 19968
SWIDTH 1000 0
DWIDTH 8 0
BBX 8 8 0 -1
BITMAP
00
00
00
00
FE
00
00
00
ENDCHAR
STARTCHAR 4E01-1
ENCODING 19969
SWIDTH 1000 0
DWIDTH 8 0
BBX 8 8 0 -1
BITMAP
00
FE
10
10
10
10
10
30
ENDCHAR
STARTCHAR 4E02-1
ENCODING 19970
SWIDTH 1000 0
DWIDTH 8 0
BBX 8 8 0 -1
BITMAP
00
FE
20
20
3C
04
04
0C
ENDCHAR
STARTCHAR 4E03-1
ENCODING 19971
SWIDTH 1000 0
DWIDTH 8 0
BBX 8 8 0 -1
BITMAP
00
20
20
2E
F0
20
22
1E
ENDCHAR
STARTCHAR 4E04-1
ENCODING 19972
SWIDTH 1000 0
DWIDTH 8 0
BBX 8 8 0 -1
BITMAP
00
10
10
10
10
10
10
FE
ENDCHAR
STARTCHAR 4E05-1
ENCODING 19973
SWIDTH 1000 0
DWIDTH 8 0
BBX 8 8 0 -1
BITMAP
00
FE
10
10
10
10
10
10
ENDCHAR
STARTCHAR 4E06-1
ENCODING 19974
SWIDTH 1000 0
DWIDTH 8 0
BBX 8 8 0 -1
BITMAP
00
FE
10
10
20
C0
00
00
ENDCHAR
STARTCHAR 4E07-1
ENCODING 19975
SWIDTH 1000 0
DWIDTH 8 0
BBX 8 8 0 -1
BITMAP
00
FE
20
3C
24
24
44
8C
ENDCHAR
STARTCHAR 4E08-1
ENCODING 19976
SWIDTH 1000 0
DWIDTH 8 0
BBX 8 8 0 -1
BITMAP
00
10
FE
10
70
10
28
C6
ENDCHAR
STARTCHAR 4E09
ENCODING 19977
SWIDTH 1000 0
DWIDTH 8 0
BBX 8 8 0 -1
BITMAP
00
7C
00
00
38
00
00
FE
ENDCHAR
STARTCHAR 4E0A-1
ENCODING 19978
SWIDTH 1000 0
DWIDTH 8 0
BBX 8 8 0 -1
BITMAP
00
10
10
1C
10
10
10
FE
ENDCHAR
STARTCHAR 4E0B-1
ENCODING 19979
SWIDTH 1000 0
DWIDTH 8 0
BBX 8 8 0 -1
BITMAP
00
FE
10
10
14
12
10
10
ENDCHAR
STARTCHAR 4E0C-1
ENCODING 19980
SWIDTH 1000 0
DWIDTH 8 0
BBX 8 8 0 -1
BITMAP
00
FE
28
28
28
28
48
88
ENDCHAR
STARTCHAR 4E0D-1
ENCODING 19981
SWIDTH 1000 0
DWIDTH 8 0
BBX 8 8 0 -1
BITMAP
00
FE
08
10
34
D2
10
10
ENDCHAR
STARTCHAR 4E0E-1
ENCODING 19982
SWIDTH 1000 0
DWIDTH 8 0
BBX 8 8 0 -1
BITMAP
00
40
7C
40
7E
02
F2
0C
ENDCHAR
STARTCHAR 4E0F-1
ENCODING 19983
SWIDTH 1000 0
DWIDTH 8 0
BBX 8 8 0 -1
BITMAP
00
FE
10
5C
54
7C
04
0C
ENDCHAR
STARTCHAR 4E10-1
ENCODING 19984
SWIDTH 1000 0
DWIDTH 8 0
BBX 8 8 0 -1
BITMAP
00
FE
10
5C
50
7E
02
1C
ENDCHAR
STARTCHAR 4E11-1
ENCODING 19985
SWIDTH 1000 0
DWIDTH 8 0
BBX 8 8 0 -1
BITMAP
00
7C
24
24
7C
24
24
FE
ENDCHAR
STARTCHAR 4E12-1
ENCODING 19986
SWIDTH 1000 0
DWIDTH 8 0
BBX 8 8 0 -1
BITMAP
00
FE
12
52
22
56
00
FE
ENDCHAR
STARTCHAR 4E13-1
ENCODING 19987
SWIDTH 1000 0
DWIDTH 8 0
BBX 8 8 0 -1
BITMAP
00
10
7C
10
FE
20
3C
04
ENDCHAR
STARTCHAR 4E14-1
ENCODING 19988
SWIDTH 1000 0
DWIDTH 8 0
BBX 8 8 0 -1
BITMAP
00
7C
44
7C
44
7C
44
FE
ENDCHAR
STARTCHAR 4E15-1
ENCODING 19989
SWIDTH 1000 0
DWIDTH 8 0
BBX 8 8 0 -1
BITMAP
00
FE
10
34
D2
10
10
FE
ENDCHAR
STARTCHAR 4E16-1
ENCODING 19990
SWIDTH 1000 0
DWIDTH 8 0
BBX 8 8 0 -1
BITMAP
00
54
54
FE
54
5C
40
7E
ENDCHAR
STARTCHAR 4E17-1
ENCODING 19991
SWIDTH 1000 0
DWIDTH 8 0
BBX 8 8 0 -1
BITMAP
00
54
54
FE
54
54
54
7C
ENDCHAR
STARTCHAR 4E18-1
ENCODING 19992
SWIDTH 1000 0
DWIDTH 8 0
BBX 8 8 0 -1
BITMAP
00
0C
70
40
7C
48
48
FE
ENDCHAR
STARTCHAR 4E19-1
ENCODING 19993
SWIDTH 1000 0
DWIDTH 8 0
BBX 8 8 0 -1
BITMAP
00
FE
10
FE
92
AA
C2
86
ENDCHAR
STARTCHAR 4E1A-1
ENCODING 19994
SWIDTH 1000 0
DWIDTH 8 0
BBX 8 8 0 -1
BITMAP
00
28
28
AA
6C
28
28
FE
ENDCHAR
STARTCHAR 4E1B-1
ENCODING 19995
SWIDTH 1000 0
DWIDTH 8 0
BBX 8 8 0 -1
BITMAP
00
48
48
68
94
A2
00
FE
ENDCHAR
STARTCHAR 4E1C-1
ENCODING 19996
SWIDTH 1000 0
DWIDTH 8 0
BBX 8 8 0 -1
BITMAP
00
20
FE
50
7C
10
54
B2
ENDCHAR
STARTCHAR 4E1D-1
ENCODING 19997
SWIDTH 1000 0
DWIDTH 8 0
BBX 8 8 0 -1
BITMAP
00
22
44
AA
44
EE
00
FE
ENDCHAR
STARTCHAR 4E1E-1
ENCODING 19998
SWIDTH 1000 0
DWIDTH 8 0
BBX 8 8 0 -1
BITMAP
00
7C
08
D2
54
92
30
FE
ENDCHAR
STARTCHAR 4E1F-1
ENCODING 19999
SWIDTH 1000 0
DWIDTH 8 0
BBX 8 8 0 -1
BITMAP
00
FE
10
7C
10
FE
24
7C
ENDCHAR
STARTCHAR 4E20-1
ENCODING 20000
SWIDTH 1000 0
DWIDTH 8 0
BBX 8 8 0 -1
BITMAP
00
28
EE
28
6A
AE
00
FE
ENDCHAR
STARTCHAR 4E21-1
ENCODING 20001
SWIDTH 1000 0
DWIDTH 8 0
BBX 8 8 0 -1
BITMAP
00
FE
10
FE
92
D6
FE
82
ENDCHAR
STARTCHAR 4E22-1
ENCODING 20002
SWIDTH 1000 0
DWIDTH 8 0
BBX 8 8 0 -1
BITMAP
00
7C
10
7C
10
FE
28
74
ENDCHAR
STARTCHAR 4E23-1
ENCODING 20003
SWIDTH 1000 0
DWIDTH 8 0
BBX 8 8 0 -1
BITMAP
00
FE
28
EE
AA
EE
28
48
ENDCHAR
STARTCHAR 4E24-1
ENCODING 20004
SWIDTH 1000 0
DWIDTH 8 0
BBX 8 8 0 -1
BITMAP
00
FE
28
FE
AA
D6
82
86
ENDCHAR
STARTCHAR 4E25-1
ENCODING 20005
SWIDTH 1000 0
DWIDTH 8 0
BBX 8 8 0 -1
BITMAP
00
FE
28
AA
7C
40
40
80
ENDCHAR
STARTCHAR 4E26-1
ENCODING 20006
SWIDTH 1000 0
DWIDTH 8 0
BBX 8 8 0 -1
BITMAP
00
44
FE
28
AA
AC
28
FE
ENDCHAR
STARTCHAR 4E27-1
ENCODING 20007
SWIDTH 1000 0
DWIDTH 8 0
BBX 8 8 0 -1
BITMAP
00
10
FE
54
FE
54
48
76
ENDCHAR
STARTCHAR 4E28-1
ENCODING 20008
SWIDTH 1000 0
DWIDTH 8 0
BBX 8 8 0 -1
BITMAP
00
10
10
10
10
10
10
10
ENDCHAR
STARTCHAR 4E29-1
ENCODING 20009
SWIDTH 1000 0
DWIDTH 8 0
BBX 8 8 0 -1
BITMAP
00
04
24
24
24
3C
04
04
ENDCHAR
STARTCHAR 4E2A-1
ENCODING 20010
SWIDTH 1000 0
DWIDTH 8 0
BBX 8 8 0 -1
BITMAP
00
10
28
44
92
10
10
10
ENDCHAR
STARTCHAR 4E2B-1
ENCODING 20011
SWIDTH 1000 0
DWIDTH 8 0
BBX 8 8 0 -1
BITMAP
00
82
44
28
10
10
10
10
ENDCHAR
STARTCHAR 4E2C-1
ENCODING 20012
SWIDTH 1000 0
DWIDTH 8 0
BBX 8 8 0 -1
BITMAP
00
20
A0
60
20
60
A0
20
ENDCHAR
STARTCHAR 4E2D-1
ENCODING 20013
SWIDTH 1000 0
DWIDTH 8 0
BBX 8 8 0 -1
BITMAP
00
10
FE
92
92
FE
10
10
ENDCHAR
STARTCHAR 4E2E-1
ENCODING 20014
SWIDTH 1000 0
DWIDTH 8 0
BBX 8 8 0 -1
BITMAP
00
FC
24
FC
24
FC
24
22
ENDCHAR
STARTCHAR 4E2F-1
ENCODING 20015
SWIDTH 1000 0
DWIDTH 8 0
BBX 8 8 0 -1
BITMAP
00
16
38
D6
38
D6
38
D0
ENDCHAR
STARTCHAR 4E30-1
ENCODING 20016
SWIDTH 1000 0
DWIDTH 8 0
BBX 8 8 0 -1
BITMAP
00
10
FE
10
7C
10
FE
10
ENDCHAR
STARTCHAR 4E31-1
ENCODING 20017
SWIDTH 1000 0
DWIDTH 8 0
BBX 8 8 0 -1
BITMAP
00
28
AA
AA
AA
EE
28
48
ENDCHAR
STARTCHAR 4E32-1
ENCODING 20018
SWIDTH 1000 0
DWIDTH 8 0
BBX 8 8 0 -1
BITMAP
00
10
7C
54
FE
92
FE
10
ENDCHAR
STARTCHAR 4E33-1
ENCODING 20019
SWIDTH 1000 0
DWIDTH 8 0
BBX 8 8 0 -1
BITMAP
00
28
FE
AA
FE
AA
FE
28
ENDCHAR
STARTCHAR 4E34-1
ENCODING 20020
SWIDTH 1000 0
DWIDTH 8 0
BBX 8 8 0 -1
BITMAP
00
28
2E
B4
A0
BE
2A
3E
ENDCHAR
STARTCHAR 4E35-1
ENCODING 20021
SWIDTH 1000 0
DWIDTH 8 0
BBX 8 8 0 -1
BITMAP
00
AA
FE
28
7C
10
FE
10
ENDCHAR
STARTCHAR 4E36-1
ENCODING 20022
SWIDTH 1000 0
DWIDTH 8 0
BBX 8 8 0 -1
BITMAP
00
00
20
10
08
08
00
00
ENDCHAR
STARTCHAR 4E37-1
ENCODING 20023
SWIDTH 1000 0
DWIDTH 8 0
BBX 8 8 0 -1
BITMAP
00
00
82
44
28
00
00
00
ENDCHAR
STARTCHAR 4E38-1
ENCODING 20024
SWIDTH 1000 0
DWIDTH 8 0
BBX 8 8 0 -1
BITMAP
00
20
F8
28
A8
48
4A
A6
ENDCHAR
STARTCHAR 4E39-1
ENCODING 20025
SWIDTH 1000 0
DWIDTH 8 0
BBX 8 8 0 -1
BITMAP
00
7C
44
54
FE
44
44
8C
ENDCHAR
STARTCHAR 4E3A-1
ENCODING 20026
SWIDTH 1000 0
DWIDTH 8 0
BBX 8 8 0 -1
BITMAP
00
48
28
7E
12
16
22
CC
ENDCHAR
STARTCHAR 4E3B-1
ENCODING 20027
SWIDTH 1000 0
DWIDTH 8 0
BBX 8 8 0 -1
BITMAP
00
20
10
7C
10
7C
10
FE
ENDCHAR
STARTCHAR 4E3C-1
ENCODING 20028
SWIDTH 1000 0
DWIDTH 8 0
BBX 8 8 0 -1
BITMAP
00
24
FE
34
24
FE
24
44
ENDCHAR
STARTCHAR 4E3D-1
ENCODING 20029
SWIDTH 1000 0
DWIDTH 8 0
BBX 8 8 0 -1
BITMAP
00
FE
00
EE
AA
EE
AA
AA
ENDCHAR
STARTCHAR 4E3E-1
ENCODING 20030
SWIDTH 1000 0
DWIDTH 8 0
BBX 8 8 0 -1
BITMAP
00
54
FE
54
BA
10
7C
10
ENDCHAR
STARTCHAR 4E3F-1
ENCODING 20031
SWIDTH 1000 0
DWIDTH 8 0
BBX 8 8 0 -1
BITMAP
00
08
08
08
08
08
10
60
ENDCHAR
STARTCHAR 4E40-1
ENCODING 20032
SWIDTH 1000 0
DWIDTH 8 0
BBX 8 8 0 -1
BITMAP
00
00
00
40
A0
10
08
06
ENDCHAR
STARTCHAR 4E41-1
ENCODING 20033
SWIDTH 1000 0
DWIDTH 8 0
BBX 8 8 0 -1
BITMAP
00
00
E0
20
20
10
08
06
ENDCHAR
STARTCHAR 4E42-1
ENCODING 20034
SWIDTH 1000 0
DWIDTH 8 0
BBX 8 8 0 -1
BITMAP
00
44
44
28
28
10
28
C6
ENDCHAR
STARTCHAR 4E43-1
ENCODING 20035
SWIDTH 1000 0
DWIDTH 8 0
BBX 8 8 0 -1
BITMAP
00
FC
24
2E
22
42
42
8C
ENDCHAR
STARTCHAR 4E44-1
ENCODING 20036
SWIDTH 1000 0
DWIDTH 8 0
BBX 8 8 0 -1
BITMAP
00
02
02
14
08
54
60
40
ENDCHAR
STARTCHAR 4E45-1
ENCODING 20037
SWIDTH 1000 0
DWIDTH 8 0
BBX 8 8 0 -1
BITMAP
00
20
3C
44
88
08
34
C2
ENDCHAR
STARTCHAR 4E46-1
ENCODING 20038
SWIDTH 1000 0
DWIDTH 8 0
BBX 8 8 0 -1
BITMAP
00
90
90
90
F0
10
28
C6
ENDCHAR
STARTCHAR 4E47-1
ENCODING 20039
SWIDTH 1000 0
DWIDTH 8 0
BBX 8 8 0 -1
BITMAP
00
0C
70
10
FE
10
12
1E
ENDCHAR
STARTCHAR 4E48-1
ENCODING 20040
SWIDTH 1000 0
DWIDTH 8 0
BBX 8 8 0 -1
BITMAP
00
20
28
48
90
24
44
FA
ENDCHAR
STARTCHAR 4E49-1
ENCODING 20041
SWIDTH 1000 0
DWIDTH 8 0
BBX 8 8 0 -1
BITMAP
00
20
14
44
28
10
28
C6
ENDCHAR
STARTCHAR 4E4A-1
ENCODING 20042
SWIDTH 1000 0
DWIDTH 8 0
BBX 8 8 0 -1
BITMAP
00
0E
F0
02
44
28
00
00
ENDCHAR
STARTCHAR 4E4B-1
ENCODING 20043
SWIDTH 1000 0
DWIDTH 8 0
BBX 8 8 0 -1
BITMAP
00
20
10
FC
08
10
60
9E
ENDCHAR
STARTCHAR 4E4C-1
ENCODING 20044
SWIDTH 1000 0
DWIDTH 8 0
BBX 8 8 0 -1
BITMAP
00
20
7C
44
7E
02
FA
06
ENDCHAR
STARTCHAR 4E4D-1
ENCODING 20045
SWIDTH 1000 0
DWIDTH 8 0
BBX 8 8 0 -1
BITMAP
00
20
3E
50
9E
10
1E
10
ENDCHAR
STARTCHAR 4E4E-1
ENCODING 20046
SWIDTH 1000 0
DWIDTH 8 0
BBX 8 8 0 -1
BITMAP
00
0E
F0
54
10
FE
10
30
ENDCHAR
STARTCHAR 4E4F-1
ENCODING 20047
SWIDTH 1000 0
DWIDTH 8 0
BBX 8 8 0 -1
BITMAP
00
06
F8
10
7C
08
30
DE
ENDCHAR
STARTCHAR 4E50-1
ENCODING 20048
SWIDTH 1000 0
DWIDTH 8 0
BBX 8 8 0 -1
BITMAP
00
3C
40
50
FE
10
54
B2
ENDCHAR
STARTCHAR 4E51-1
ENCODING 20049
SWIDTH 1000 0
DWIDTH 8 0
BBX 8 8 0 -1
BITMAP
00
FE
10
32
54
B8
54
92
ENDCHAR
STARTCHAR 4E52-1
ENCODING 20050
SWIDTH 1000 0
DWIDTH 8 0
BBX 8 8 0 -1
BITMAP
00
7C
40
7C
48
FE
20
40
ENDCHAR
STARTCHAR 4E53-1
ENCODING 20051
SWIDTH 1000 0
DWIDTH 8 0
BBX 8 8 0 -1
BITMAP
00
7C
40
7C
48
FE
08
04
ENDCHAR
STARTCHAR 4E54-1
ENCODING 20052
SWIDTH 1000 0
DWIDTH 8 0
BBX 8 8 0 -1
BITMAP
00
7C
10
FE
44
AA
28
48
ENDCHAR
STARTCHAR 4E55-1
ENCODING 20053
SWIDTH 1000 0
DWIDTH 8 0
BBX 8 8 0 -1
BITMAP
00
06
78
7E
7E
48
7E
AA
ENDCHAR
STARTCHAR 4E56-1
ENCODING 20054
SWIDTH 1000 0
DWIDTH 8 0
BBX 8 8 0 -1
BITMAP
00
0C
70
FE
D6
54
D6
10
ENDCHAR
STARTCHAR 4E57-1
ENCODING 20055
SWIDTH 1000 0
DWIDTH 8 0
BBX 8 8 0 -1
BITMAP
00
7C
10
FE
54
FE
38
D6
ENDCHAR
STARTCHAR 4E58-1
ENCODING 20056
SWIDTH 1000 0
DWIDTH 8 0
BBX 8 8 0 -1
BITMAP
00
7C
10
FE
54
D6
38
D6
ENDCHAR
STARTCHAR 4E59-1
ENCODING 20057
SWIDTH 1000 0
DWIDTH 8 0
BBX 8 8 0 -1
BITMAP
00
78
08
10
20
40
82
7E
ENDCHAR
STARTCHAR 4E5A-1
ENCODING 20058
SWIDTH 1000 0
DWIDTH 8 0
BBX 8 8 0 -1
BITMAP
00
40
40
40
40
40
42
3C
ENDCHAR
STARTCHAR 4E5B-1
ENCODING 20059
SWIDTH 1000 0
DWIDTH 8 0
BBX 8 8 0 -1
BITMAP
00
7E
02
04
00
00
00
00
ENDCHAR
STARTCHAR 4E5C-1
ENCODING 20060
SWIDTH 1000 0
DWIDTH 8 0
BBX 8 8 0 -1
BITMAP
00
40
5C
64
C4
40
42
3E
ENDCHAR
STARTCHAR 4E5D-1
ENCODING 20061
SWIDTH 1000 0
DWIDTH 8 0
BBX 8 8 0 -1
BITMAP
00
20
F8
28
28
48
4A
8E
ENDCHAR
STARTCHAR 4E5E-1
ENCODING 20062
SWIDTH 1000 0
DWIDTH 8 0
BBX 8 8 0 -1
BITMAP
00
40
7E
B8
08
30
42
3E
ENDCHAR
STARTCHAR 4E5F-1
ENCODING 20063
SWIDTH 1000 0
DWIDTH 8 0
BBX 8 8 0 -1
BITMAP
00
10
5C
74
D4
50
42
3E
ENDCHAR
STARTCHAR 4E60-1
ENCODING 20064
SWIDTH 1000 0
DWIDTH 8 0
BBX 8 8 0 -1
BITMAP
00
7E
22
12
02
1A
62
06
ENDCHAR
STARTCHAR 4E61-1
ENCODING 20065
SWIDTH 1000 0
DWIDTH 8 0
BBX 8 8 0 -1
BITMAP
00
10
24
78
12
3C
08
F0
ENDCHAR
STARTCHAR 4E62-1
ENCODING 20066
SWIDTH 1000 0
DWIDTH 8 0
BBX 8 8 0 -1
BITMAP
00
28
28
28
A8
A8
FA
0E
ENDCHAR
STARTCHAR 4E63-1
ENCODING 20067
SWIDTH 1000 0
DWIDTH 8 0
BBX 8 8 0 -1
BITMAP
00
48
88
E8
48
88
AA
EE
ENDCHAR
STARTCHAR 4E64-1
ENCODING 20068
SWIDTH 1000 0
DWIDTH 8 0
BBX 8 8 0 -1
BITMAP
00
FE
10
14
00
78
12
3E
ENDCHAR
STARTCHAR 4E65-1
ENCODING 20069
SWIDTH 1000 0
DWIDTH 8 0
BBX 8 8 0 -1
BITMAP
00
FE
28
00
70
10
24
3C
ENDCHAR
STARTCHAR 4E66-1
ENCODING 20070
SWIDTH 1000 0
DWIDTH 8 0
BBX 8 8 0 -1
BITMAP
00
24
FA
28
FC
24
2C
20
ENDCHAR
STARTCHAR 4E67-1
ENCODING 20071
SWIDTH 1000 0
DWIDTH 8 0
BBX 8 8 0 -1
BITMAP
00
28
48
FE
08
78
12
1E
ENDCHAR
STARTCHAR 4E68-1
ENCODING 20072
SWIDTH 1000 0
DWIDTH 8 0
BBX 8 8 0 -1
BITMAP
00
48
A8
E8
08
E8
AA
EE
ENDCHAR
STARTCHAR 4E69-1
ENCODING 20073
SWIDTH 1000 0
DWIDTH 8 0
BBX 8 8 0 -1
BITMAP
00
48
68
48
E8
A8
AA
EE
ENDCHAR
STARTCHAR 4E6A-1
ENCODING 20074
SWIDTH 1000 0
DWIDTH 8 0
BBX 8 8 0 -1
BITMAP
00
FE
2A
7E
6A
BE
80
7E
ENDCHAR
STARTCHAR 4E6B-1
ENCODING 20075
SWIDTH 1000 0
DWIDTH 8 0
BBX 8 8 0 -1
BITMAP
00
4E
EA
6A
AE
78
12
3E
ENDCHAR
STARTCHAR 4E6C-1
ENCODING 20076
SWIDTH 1000 0
DWIDTH 8 0
BBX 8 8 0 -1
BITMAP
00
FC
90
F0
80
F8
12
1E
ENDCHAR
STARTCHAR 4E6D-1
ENCODING 20077
SWIDTH 1000 0
DWIDTH 8 0
BBX 8 8 0 -1
BITMAP
00
FE
44
BC
00
F0
12
1E
ENDCHAR
STARTCHAR 4E6E-1
ENCODING 20078
SWIDTH 1000 0
DWIDTH 8 0
BBX 8 8 0 -1
BITMAP
00
EE
8A
EA
2C
F8
12
3E
ENDCHAR
STARTCHAR 4E6F-1
ENCODING 20079
SWIDTH 1000 0
DWIDTH 8 0
BBX 8 8 0 -1
BITMAP
00
FE
54
FE
10
78
0A
0E
ENDCHAR
STARTCHAR 4E70-1
ENCODING 20080
SWIDTH 1000 0
DWIDTH 8 0
BBX 8 8 0 -1
BITMAP
00
FE
2A
88
48
FE
14
E2
ENDCHAR
STARTCHAR 4E71-1
ENCODING 20081
SWIDTH 1000 0
DWIDTH 8 0
BBX 8 8 0 -1
BITMAP
00
E8
48
E8
48
E8
AA
EE
ENDCHAR
STARTCHAR 4E72-1
ENCODING 20082
SWIDTH 1000 0
DWIDTH 8 0
BBX 8 8 0 -1
BITMAP
00
90
1E
AA
14
78
12
1E
ENDCHAR
STARTCHAR 4E73-1
ENCODING 20083
SWIDTH 1000 0
DWIDTH 8 0
BBX 8 8 0 -1
BITMAP
00
3C
D4
04
74
14
FC
26
ENDCHAR
STARTCHAR 4E74-1
ENCODING 20084
SWIDTH 1000 0
DWIDTH 8 0
BBX 8 8 0 -1
BITMAP
00
4E
E8
4E
CA
30
14
3C
ENDCHAR
STARTCHAR 4E75-1
ENCODING 20085
SWIDTH 1000 0
DWIDTH 8 0
BBX 8 8 0 -1
BITMAP
00
24
FC
54
FC
24
FC
26
ENDCHAR
STARTCHAR 4E76-1
ENCODING 20086
SWIDTH 1000 0
DWIDTH 8 0
BBX 8 8 0 -1
BITMAP
00
14
FE
54
7C
54
3A
0E
ENDCHAR
STARTCHAR 4E77-1
ENCODING 20087
SWIDTH 1000 0
DWIDTH 8 0
BBX 8 8 0 -1
BITMAP
00
FE
28
FE
AA
CE
82
FE
ENDCHAR
STARTCHAR 4E78-1
ENCODING 20088
SWIDTH 1000 0
DWIDTH 8 0
BBX 8 8 0 -1
BITMAP
00
4C
6C
FE
54
7C
46
3E
ENDCHAR
STARTCHAR 4E79-1
ENCODING 20089
SWIDTH 1000 0
DWIDTH 8 0
BBX 8 8 0 -1
BITMAP
00
48
E8
48
A8
48
EA
4E
ENDCHAR
STARTCHAR 4E7A-1
ENCODING 20090
SWIDTH 1000 0
DWIDTH 8 0
BBX 8 8 0 -1
BITMAP
00
EE
88
EE
AA
F0
92
3E
ENDCHAR
STARTCHAR 4E7B-1
ENCODING 20091
SWIDTH 1000 0
DWIDTH 8 0
BBX 8 8 0 -1
BITMAP
00
44
EA
44
62
B0
14
1C
ENDCHAR
STARTCHAR 4E7C-1
ENCODING 20092
SWIDTH 1000 0
DWIDTH 8 0
BBX 8 8 0 -1
BITMAP
00
88
3E
88
3E
80
1A
0E
ENDCHAR
STARTCHAR 4E7D-1
ENCODING 20093
SWIDTH 1000 0
DWIDTH 8 0
BBX 8 8 0 -1
BITMAP
00
14
FE
64
BC
08
12
3E
ENDCHAR
STARTCHAR 4E7E-1
ENCODING 20094
SWIDTH 1000 0
DWIDTH 8 0
BBX 8 8 0 -1
BITMAP
00
F0
5E
EC
A4
48
F2
4E
ENDCHAR
STARTCHAR 4E7F-1
ENCODING 20095
SWIDTH 1000 0
DWIDTH 8 0
BBX 8 8 0 -1
BITMAP
00
E8
48
A8
48
E8
4A
CE
ENDCHAR
STARTCHAR 4E80-1
ENCODING 20096
SWIDTH 1000 0
DWIDTH 8 0
BBX 8 8 0 -1
BITMAP
00
38
C8
7C
7C
94
FC
0E
ENDCHAR
STARTCHAR 4E81-1
ENCODING 20097
SWIDTH 1000 0
DWIDTH 8 0
BBX 8 8 0 -1
BITMAP
00
48
EE
40
EE
44
E8
4E
ENDCHAR
STARTCHAR 4E82-1
ENCODING 20098
SWIDTH 1000 0
DWIDTH 8 0
BBX 8 8 0 -1
BITMAP
00
74
AC
74
14
F4
B4
D6
ENDCHAR
STARTCHAR 4E83-1
ENCODING 20099
SWIDTH 1000 0
DWIDTH 8 0
BBX 8 8 0 -1
BITMAP
00
AC
74
AC
54
BC
54
96
ENDCHAR
STARTCHAR 4E84-1
ENCODING 20100
SWIDTH 1000 0
DWIDTH 8 0
BBX 8 8 0 -1
BITMAP
00
24
FC
AC
54
74
54
FE
ENDCHAR
STARTCHAR 4E85-1
ENCODING 20101
SWIDTH 1000 0
DWIDTH 8 0
BBX 8 8 0 -1
BITMAP
00
10
10
10
10
10
10
30
ENDCHAR
STARTCHAR 4E86-1
ENCODING 20102
SWIDTH 1000 0
DWIDTH 8 0
BBX 8 8 0 -1
BITMAP
00
FE
04
18
10
10
10
30
ENDCHAR
STARTCHAR 4E87-1
ENCODING 20103
SWIDTH 1000 0
DWIDTH 8 0
BBX 8 8 0 -1
BITMAP
00
40
7E
92
10
10
10
30
ENDCHAR
STARTCHAR 4E88-1
ENCODING 20104
SWIDTH 1000 0
DWIDTH 8 0
BBX 8 8 0 -1
BITMAP
00
7C
04
28
FE
12
10
30
ENDCHAR
STARTCHAR 4E89-1
ENCODING 20105
SWIDTH 1000 0
DWIDTH 8 0
BBX 8 8 0 -1
BITMAP
00
38
C8
7C
16
7C
10
30
ENDCHAR
STARTCHAR 4E8A-1
ENCODING 20106
SWIDTH 1000 0
DWIDTH 8 0
BBX 8 8 0 -1
BITMAP
00
10
FE
54
3C
FE
1C
30
ENDCHAR
STARTCHAR 4E8B-1
ENCODING 20107
SWIDTH 1000 0
DWIDTH 8 0
BBX 8 8 0 -1
BITMAP
00
10
FE
54
FC
16
FC
30
ENDCHAR
STARTCHAR 4E8C
ENCODING 20108
SWIDTH 1000 0
DWIDTH 8 0
BBX 8 8 0 -1
BITMAP
00
00
7C
00
00
00
FE
00
ENDCHAR
STARTCHAR 4E8D-1
ENCODING 20109
SWIDTH 1000 0
DWIDTH 8 0
BBX 8 8 0 -1
BITMAP
00
7C
00
FE
10
10
10
30
ENDCHAR
STARTCHAR 4E8E-1
ENCODING 20110
SWIDTH 1000 0
DWIDTH 8 0
BBX 8 8 0 -1
BITMAP
00
7C
10
10
FE
10
10
60
ENDCHAR
STARTCHAR 4E8F-1
ENCODING 20111
SWIDTH 1000 0
DWIDTH 8 0
BBX 8 8 0 -1
BITMAP
00
7C
00
FE
20
7C
04
18
ENDCHAR
STARTCHAR 4E90-1
ENCODING 20112
SWIDTH 1000 0
DWIDTH 8 0
BBX 8 8 0 -1
BITMAP
00
7C
20
FE
20
3C
04
0C
ENDCHAR
STARTCHAR 4E91-1
ENCODING 20113
SWIDTH 1000 0
DWIDTH 8 0
BBX 8 8 0 -1
BITMAP
00
7C
00
00
FE
20
44
7A
ENDCHAR
STARTCHAR 4E92-1
ENCODING 20114
SWIDTH 1000 0
DWIDTH 8 0
BBX 8 8 0 -1
BITMAP
00
FE
20
3C
44
78
08
FE
ENDCHAR
STARTCHAR 4E93-1
ENCODING 20115
SWIDTH 1000 0
DWIDTH 8 0
BBX 8 8 0 -1
BITMAP
00
7C
00
FE
24
24
44
84
ENDCHAR
STARTCHAR 4E94-1
ENCODING 20116
SWIDTH 1000 0
DWIDTH 8 0
BBX 8 8 0 -1
BITMAP
00
7C
10
10
7C
24
24
FE
ENDCHAR
STARTCHAR 4E95-1
ENCODING 20117
SWIDTH 1000 0
DWIDTH 8 0
BBX 8 8 0 -1
BITMAP
00
24
FE
24
24
FE
24
44
ENDCHAR
STARTCHAR 4E96-1
ENCODING 20118
SWIDTH 1000 0
DWIDTH 8 0
BBX 8 8 0 -1
BITMAP
00
7C
00
FE
00
7C
00
FE
ENDCHAR
STARTCHAR 4E97-1
ENCODING 20119
SWIDTH 1000 0
DWIDTH 8 0
BBX 8 8 0 -1
BITMAP
00
92
92
FE
00
7C
00
FE
ENDCHAR
STARTCHAR 4E98-1
ENCODING 20120
SWIDTH 1000 0
DWIDTH 8 0
BBX 8 8 0 -1
BITMAP
00
FE
00
7C
44
7C
44
FE
ENDCHAR
STARTCHAR 4E99-1
ENCODING 20121
SWIDTH 1000 0
DWIDTH 8 0
BBX 8 8 0 -1
BITMAP
00
FE
20
3C
2C
54
08
FE
ENDCHAR
STARTCHAR 4E9A-1
ENCODING 20122
SWIDTH 1000 0
DWIDTH 8 0
BBX 8 8 0 -1
BITMAP
00
FE
28
AA
AA
6C
28
FE
ENDCHAR
STARTCHAR 4E9B-1
ENCODING 20123
SWIDTH 1000 0
DWIDTH 8 0
BBX 8 8 0 -1
BITMAP
00
24
B6
A4
F6
7C
00
FE
ENDCHAR
STARTCHAR 4E9C-1
ENCODING 20124
SWIDTH 1000 0
DWIDTH 8 0
BBX 8 8 0 -1
BITMAP
00
FE
28
FE
AA
FE
28
FE
ENDCHAR
STARTCHAR 4E9D-1
ENCODING 20125
SWIDTH 1000 0
DWIDTH 8 0
BBX 8 8 0 -1
BITMAP
00
28
7C
44
AA
FE
00
FE
ENDCHAR
STARTCHAR 4E9E-1
ENCODING 20126
SWIDTH 1000 0
DWIDTH 8 0
BBX 8 8 0 -1
BITMAP
00
FE
28
EE
82
EE
28
FE
ENDCHAR
STARTCHAR 4E9F-1
ENCODING 20127
SWIDTH 1000 0
DWIDTH 8 0
BBX 8 8 0 -1
BITMAP
00
FE
20
3E
DA
D4
3A
FE
ENDCHAR
STARTCHAR 4EA0-1
ENCODING 20128
SWIDTH 1000 0
DWIDTH 8 0
BBX 8 8 0 -1
BITMAP
00
10
10
FE
00
00
00
00
ENDCHAR
STARTCHAR 4EA1-1
ENCODING 20129
SWIDTH 1000 0
DWIDTH 8 0
BBX 8 8 0 -1
BITMAP
00
20
10
FE
40
40
40
3C
ENDCHAR
STARTCHAR 4EA2-1
ENCODING 20130
SWIDTH 1000 0
DWIDTH 8 0
BBX 8 8 0 -1
BITMAP
00
10
FE
00
38
28
2A
CE
ENDCHAR
STARTCHAR 4EA3-1
ENCODING 20131
SWIDTH 1000 0
DWIDTH 8 0
BBX 8 8 0 -1
BITMAP
00
10
00
FE
24
24
24
44
ENDCHAR
STARTCHAR 4EA4-1
ENCODING 20132
SWIDTH 1000 0
DWIDTH 8 0
BBX 8 8 0 -1
BITMAP
00
10
FE
28
C6
28
10
EE
ENDCHAR
STARTCHAR 4EA5-1
ENCODING 20133
SWIDTH 1000 0
DWIDTH 8 0
BBX 8 8 0 -1
BITMAP
00
10
FE
20
54
28
14
E2
ENDCHAR
STARTCHAR 4EA6-1
ENCODING 20134
SWIDTH 1000 0
DWIDTH 8 0
BBX 8 8 0 -1
BITMAP
00
10
FE
28
6C
AA
28
58
ENDCHAR
STARTCHAR 4EA7-1
ENCODING 20135
SWIDTH 1000 0
DWIDTH 8 0
BBX 8 8 0 -1
BITMAP
00
10
7E
24
7E
40
40
80
ENDCHAR
STARTCHAR 4EA8-1
ENCODING 20136
SWIDTH 1000 0
DWIDTH 8 0
BBX 8 8 0 -1
BITMAP
00
10
FE
44
7C
08
10
30
ENDCHAR
STARTCHAR 4EA9-1
ENCODING 20137
SWIDTH 1000 0
DWIDTH 8 0
BBX 8 8 0 -1
BITMAP
00
10
00
FE
54
7C
54
7C
ENDCHAR
STARTCHAR 4EAA-1
ENCODING 20138
SWIDTH 1000 0
DWIDTH 8 0
BBX 8 8 0 -1
BITMAP
00
10
FE
28
AA
00
7C
06
ENDCHAR
STARTCHAR 4EAB-1
ENCODING 20139
SWIDTH 1000 0
DWIDTH 8 0
BBX 8 8 0 -1
BITMAP
00
10
FE
44
7C
08
FE
10
ENDCHAR
STARTCHAR 4EAC-1
ENCODING 20140
SWIDTH 1000 0
DWIDTH 8 0
BBX 8 8 0 -1
BITMAP
00
10
FE
44
7C
10
54
B2
ENDCHAR
STARTCHAR 4EAD-1
ENCODING 20141
SWIDTH 1000 0
DWIDTH 8 0
BBX 8 8 0 -1
BITMAP
00
10
FE
44
FE
BA
10
30
ENDCHAR
STARTCHAR 4EAE-1
ENCODING 20142
SWIDTH 1000 0
DWIDTH 8 0
BBX 8 8 0 -1
BITMAP
00
10
FE
44
FE
82
38
CE
ENDCHAR
STARTCHAR 4EAF-1
ENCODING 20143
SWIDTH 1000 0
DWIDTH 8 0
BBX 8 8 0 -1
BITMAP
00
10
FE
44
7C
FE
82
FE
ENDCHAR
STARTCHAR 4EB0-1
ENCODING 20144
SWIDTH 1000 0
DWIDTH 8 0
BBX 8 8 0 -1
BITMAP
00
10
FE
44
7C
44
7C
92
ENDCHAR
STARTCHAR 4EB1-1
ENCODING 20145
SWIDTH 1000 0
DWIDTH 8 0
BBX 8 8 0 -1
BITMAP
00
10
FE
5C
D4
5C
54
7E
ENDCHAR
STARTCHAR 4EB2-1
ENCODING 20146
SWIDTH 1000 0
DWIDTH 8 0
BBX 8 8 0 -1
BITMAP
00
10
FE
44
FE
10
FE
54
ENDCHAR
STARTCHAR 4EB3-1
ENCODING 20147
SWIDTH 1000 0
DWIDTH 8 0
BBX 8 8 0 -1
BITMAP
00
10
FE
44
FE
9A
70
1E
ENDCHAR
STARTCHAR 4EB4-1
ENCODING 20148
SWIDTH 1000 0
DWIDTH 8 0
BBX 8 8 0 -1
BITMAP
00
10
FE
28
FE
92
7C
26
ENDCHAR
STARTCHAR 4EB5-1
ENCODING 20149
SWIDTH 1000 0
DWIDTH 8 0
BBX 8 8 0 -1
BITMAP
00
10
FE
48
7C
D6
68
B6
ENDCHAR
STARTCHAR 4EB6-1
ENCODING 20150
SWIDTH 1000 0
DWIDTH 8 0
BBX 8 8 0 -1
BITMAP
00
10
FE
6C
7C
38
28
FE
ENDCHAR
STARTCHAR 4EB7-1
ENCODING 20151
SWIDTH 1000 0
DWIDTH 8 0
BBX 8 8 0 -1
BITMAP
00
10
FE
28
7E
6A
7C
AA
ENDCHAR
STARTCHAR 4EB8-1
ENCODING 20152
SWIDTH 1000 0
DWIDTH 8 0
BBX 8 8 0 -1
BITMAP
00
4A
E0
AE
EA
44
EE
44
ENDCHAR
STARTCHAR 4EB9-1
ENCODING 20153
SWIDTH 1000 0
DWIDTH 8 0
BBX 8 8 0 -1
BITMAP
00
10
FE
AA
FE
BA
28
FE
ENDCHAR
STARTCHAR 4EBA-1
ENCODING 20154
SWIDTH 1000 0
DWIDTH 8 0
BBX 8 8 0 -1
BITMAP
00
10
10
10
28
28
44
82
ENDCHAR
STARTCHAR 4EBB-1
ENCODING 20155
SWIDTH 1000 0
DWIDTH 8 0
BBX 8 8 0 -1
BITMAP
00
10
20
60
20
20
20
20
ENDCHAR
STARTCHAR 4EBC-1
ENCODING 20156
SWIDTH 1000 0
DWIDTH 8 0
BBX 8 8 0 -1
BITMAP
00
10
10
10
28
C6
00
FE
ENDCHAR
STARTCHAR 4EBD-1
ENCODING 20157
SWIDTH 1000 0
DWIDTH 8 0
BBX 8 8 0 -1
BITMAP
00
10
10
28
C6
00
30
08
ENDCHAR
STARTCHAR 4EBE-1
ENCODING 20158
SWIDTH 1000 0
DWIDTH 8 0
BBX 8 8 0 -1
BITMAP
00
88
88
88
94
A2
80
FE
ENDCHAR
STARTCHAR 4EBF-1
ENCODING 20159
SWIDTH 1000 0
DWIDTH 8 0
BBX 8 8 0 -1
BITMAP
00
2E
42
C4
48
50
50
4E
ENDCHAR
STARTCHAR 4EC0-1
ENCODING 20160
SWIDTH 1000 0
DWIDTH 8 0
BBX 8 8 0 -1
BITMAP
00
28
48
DE
48
48
48
48
ENDCHAR
STARTCHAR 4EC1-1
ENCODING 20161
SWIDTH 1000 0
DWIDTH 8 0
BBX 8 8 0 -1
BITMAP
00
20
5E
C0
40
40
40
5E
ENDCHAR
STARTCHAR 4EC2-1
ENCODING 20162
SWIDTH 1000 0
DWIDTH 8 0
BBX 8 8 0 -1
BITMAP
00
28
5E
CA
4A
4A
4A
56
ENDCHAR
STARTCHAR 4EC3-1
ENCODING 20163
SWIDTH 1000 0
DWIDTH 8 0
BBX 8 8 0 -1
BITMAP
00
2E
44
C4
44
44
44
4C
ENDCHAR
STARTCHAR 4EC4-1
ENCODING 20164
SWIDTH 1000 0
DWIDTH 8 0
BBX 8 8 0 -1
BITMAP
00
7E
48
48
48
48
54
A2
ENDCHAR
STARTCHAR 4EC5-1
ENCODING 20165
SWIDTH 1000 0
DWIDTH 8 0
BBX 8 8 0 -1
BITMAP
00
2E
42
CA
44
44
4A
52
ENDCHAR
STARTCHAR 4EC6-1
ENCODING 20166
SWIDTH 1000 0
DWIDTH 8 0
BBX 8 8 0 -1
BITMAP
00
28
48
C8
4C
4A
48
48
ENDCHAR
STARTCHAR 4EC7-1
ENCODING 20167
SWIDTH 1000 0
DWIDTH 8 0
BBX 8 8 0 -1
BITMAP
00
28
7C
D4
54
54
54
66
ENDCHAR
STARTCHAR 4EC8-1
ENCODING 20168
SWIDTH 1000 0
DWIDTH 8 0
BBX 8 8 0 -1
BITMAP
00
54
54
D4
54
54
62
62
ENDCHAR
STARTCHAR 4EC9-1
ENCODING 20169
SWIDTH 1000 0
DWIDTH 8 0
BBX 8 8 0 -1
BITMAP
00
5C
54
D4
54
54
54
66
ENDCHAR
STARTCHAR 4ECA-1
ENCODING 20170
SWIDTH 1000 0
DWIDTH 8 0
BBX 8 8 0 -1
BITMAP
00
38
44
92
08
7C
04
38
ENDCHAR
STARTCHAR 4ECB-1
ENCODING 20171
SWIDTH 1000 0
DWIDTH 8 0
BBX 8 8 0 -1
BITMAP
00
10
28
44
AA
28
28
48
ENDCHAR
STARTCHAR 4ECC-1
ENCODING 20172
SWIDTH 1000 0
DWIDTH 8 0
BBX 8 8 0 -1
BITMAP
00
10
10
28
C6
10
28
C6
ENDCHAR
STARTCHAR 4ECD-1
ENCODING 20173
SWIDTH 1000 0
DWIDTH 8 0
BBX 8 8 0 -1
BITMAP
00
3C
54
D6
52
52
52
66
ENDCHAR
STARTCHAR 4ECE-1
ENCODING 20174
SWIDTH 1000 0
DWIDTH 8 0
BBX 8 8 0 -1
BITMAP
00
24
24
24
24
54
4A
92
ENDCHAR
STARTCHAR 4ECF-1
ENCODING 20175
SWIDTH 1000 0
DWIDTH 8 0
BBX 8 8 0 -1
BITMAP
00
28
48
C8
48
50
54
7A
ENDCHAR
STARTCHAR 4ED0-1
ENCODING 20176
SWIDTH 1000 0
DWIDTH 8 0
BBX 8 8 0 -1
BITMAP
00
10
28
D6
10
FE
10
10
ENDCHAR
STARTCHAR 4ED1-1
ENCODING 20177
SWIDTH 1000 0
DWIDTH 8 0
BBX 8 8 0 -1
BITMAP
00
10
28
C6
48
70
44
7C
ENDCHAR
STARTCHAR 4ED2-1
ENCODING 20178
SWIDTH 1000 0
DWIDTH 8 0
BBX 8 8 0 -1
BITMAP
00
10
28
44
92
08
20
18
ENDCHAR
STARTCHAR 4ED3-1
ENCODING 20179
SWIDTH 1000 0
DWIDTH 8 0
BBX 8 8 0 -1
BITMAP
00
38
44
BA
48
58
44
3C
ENDCHAR
STARTCHAR 4ED4-1
ENCODING 20180
SWIDTH 1000 0
DWIDTH 8 0
BBX 8 8 0 -1
BITMAP
00
2E
42
C4
5E
44
44
4C
ENDCHAR
STARTCHAR 4ED5-1
ENCODING 20181
SWIDTH 1000 0
DWIDTH 8 0
BBX 8 8 0 -1
BITMAP
00
28
48
FE
48
48
48
5C
ENDCHAR
STARTCHAR 4ED6-1
ENCODING 20182
SWIDTH 1000 0
DWIDTH 8 0
BBX 8 8 0 -1
BITMAP
00
24
54
DE
76
54
52
4E
ENDCHAR
STARTCHAR 4ED7-1
ENCODING 20183
SWIDTH 1000 0
DWIDTH 8 0
BBX 8 8 0 -1
BITMAP
00
28
7E
C8
58
48
54
62
ENDCHAR
STARTCHAR 4ED8-1
ENCODING 20184
SWIDTH 1000 0
DWIDTH 8 0
BBX 8 8 0 -1
BITMAP
00
24
5E
C4
54
4C
44
4C
ENDCHAR
STARTCHAR 4ED9-1
ENCODING 20185
SWIDTH 1000 0
DWIDTH 8 0
BBX 8 8 0 -1
BITMAP
00
28
48
EA
6A
6A
6A
7E
ENDCHAR
STARTCHAR 4EDA-1
ENCODING 20186
SWIDTH 1000 0
DWIDTH 8 0
BBX 8 8 0 -1
BITMAP
00
10
28
C6
10
54
54
7C
ENDCHAR
STARTCHAR 4EDB-1
ENCODING 20187
SWIDTH 1000 0
DWIDTH 8 0
BBX 8 8 0 -1
BITMAP
00
26
5C
C4
5E
44
44
44
ENDCHAR
STARTCHAR 4EDC-1
ENCODING 20188
SWIDTH 1000 0
DWIDTH 8 0
BBX 8 8 0 -1
BITMAP
00
5E
48
C8
48
48
48
5E
ENDCHAR
STARTCHAR 4EDD-1
ENCODING 20189
SWIDTH 1000 0
DWIDTH 8 0
BBX 8 8 0 -1
BITMAP
00
10
28
C6
7C
10
10
FE
ENDCHAR
STARTCHAR 4EDE-1
ENCODING 20190
SWIDTH 1000 0
DWIDTH 8 0
BBX 8 8 0 -1
BITMAP
00
3E
4A
DA
5A
6A
4A
56
ENDCHAR
STARTCHAR 4EDF-1
ENCODING 20191
SWIDTH 1000 0
DWIDTH 8 0
BBX 8 8 0 -1
BITMAP
00
24
58
C8
7E
48
48
48
ENDCHAR
STARTCHAR 4EE0-1
ENCODING 20192
SWIDTH 1000 0
DWIDTH 8 0
BBX 8 8 0 -1
BITMAP
00
26
5C
C4
5E
44
44
44
ENDCHAR
STARTCHAR 4EE1-1
ENCODING 20193
SWIDTH 1000 0
DWIDTH 8 0
BBX 8 8 0 -1
BITMAP
00
48
CE
50
4E
44
48
4E
ENDCHAR
STARTCHAR 4EE2-1
ENCODING 20194
SWIDTH 1000 0
DWIDTH 8 0
BBX 8 8 0 -1
BITMAP
00
48
CE
52
42
4A
42
46
ENDCHAR
STARTCHAR 4EE3-1
ENCODING 20195
SWIDTH 1000 0
DWIDTH 8 0
BBX 8 8 0 -1
BITMAP
00
2A
48
DE
48
44
44
42
ENDCHAR
STARTCHAR 4EE4-1
ENCODING 20196
SWIDTH 1000 0
DWIDTH 8 0
BBX 8 8 0 -1
BITMAP
00
38
44
92
7C
04
28
10
ENDCHAR
STARTCHAR 4EE5-1
ENCODING 20197
SWIDTH 1000 0
DWIDTH 8 0
BBX 8 8 0 -1
BITMAP
00
04
54
54
44
64
8A
32
ENDCHAR
STARTCHAR 4EE6-1
ENCODING 20198
SWIDTH 1000 0
DWIDTH 8 0
BBX 8 8 0 -1
BITMAP
00
48
48
DC
5A
6A
48
58
ENDCHAR
STARTCHAR 4EE7-1
ENCODING 20199
SWIDTH 1000 0
DWIDTH 8 0
BBX 8 8 0 -1
BITMAP
00
10
1E
10
FE
10
28
C6
ENDCHAR
STARTCHAR 4EE8-1
ENCODING 20200
SWIDTH 1000 0
DWIDTH 8 0
BBX 8 8 0 -1
BITMAP
00
5E
C0
40
5E
40
40
5E
ENDCHAR
STARTCHAR 4EE9-1
ENCODING 20201
SWIDTH 1000 0
DWIDTH 8 0
BBX 8 8 0 -1
BITMAP
00
48
48
CE
48
48
48
5E
ENDCHAR
STARTCHAR 4EEA-1
ENCODING 20202
SWIDTH 1000 0
DWIDTH 8 0
BBX 8 8 0 -1
BITMAP
00
28
4A
C2
52
4A
44
5A
ENDCHAR
STARTCHAR 4EEB-1
ENCODING 20203
SWIDTH 1000 0
DWIDTH 8 0
BBX 8 8 0 -1
BITMAP
00
48
50
C4
48
50
64
7A
ENDCHAR
STARTCHAR 4EEC-1
ENCODING 20204
SWIDTH 1000 0
DWIDTH 8 0
BBX 8 8 0 -1
BITMAP
00
56
C2
52
52
52
52
56
ENDCHAR
STARTCHAR 4EED-1
ENCODING 20205
SWIDTH 1000 0
DWIDTH 8 0
BBX 8 8 0 -1
BITMAP
00
3E
4A
DA
4A
4E
4A
56
ENDCHAR
STARTCHAR 4EEE-1
ENCODING 20206
SWIDTH 1000 0
DWIDTH 8 0
BBX 8 8 0 -1
BITMAP
00
3E
50
DE
5A
5A
64
5A
ENDCHAR
STARTCHAR 4EEF-1
ENCODING 20207
SWIDTH 1000 0
DWIDTH 8 0
BBX 8 8 0 -1
BITMAP
00
48
DC
5A
68
4A
44
58
ENDCHAR
STARTCHAR 4EF0-1
ENCODING 20208
SWIDTH 1000 0
DWIDTH 8 0
BBX 8 8 0 -1
BITMAP
00
58
A6
AA
AA
BA
AE
88
ENDCHAR
STARTCHAR 4EF1-1
ENCODING 20209
SWIDTH 1000 0
DWIDTH 8 0
BBX 8 8 0 -1
BITMAP
00
48
D4
6A
40
5C
44
48
ENDCHAR
STARTCHAR 4EF2-1
ENCODING 20210
SWIDTH 1000 0
DWIDTH 8 0
BBX 8 8 0 -1
BITMAP
00
28
5E
DA
5A
5E
48
48
ENDCHAR
STARTCHAR 4EF3-1
ENCODING 20211
SWIDTH 1000 0
DWIDTH 8 0
BBX 8 8 0 -1
BITMAP
00
24
54
D4
5E
54
54
5A
ENDCHAR
STARTCHAR 4EF4-1
ENCODING 20212
SWIDTH 1000 0
DWIDTH 8 0
BBX 8 8 0 -1
BITMAP
00
5E
52
DE
52
5E
52
66
ENDCHAR
STARTCHAR 4EF5-1
ENCODING 20213
SWIDTH 1000 0
DWIDTH 8 0
BBX 8 8 0 -1
BITMAP
00
28
4E
D4
44
5E
44
44
ENDCHAR
STARTCHAR 4EF6-1
ENCODING 20214
SWIDTH 1000 0
DWIDTH 8 0
BBX 8 8 0 -1
BITMAP
00
24
54
DE
44
5E
44
44
ENDCHAR
STARTCHAR 4EF7-1
ENCODING 20215
SWIDTH 1000 0
DWIDTH 8 0
BBX 8 8 0 -1
BITMAP
00
28
54
E2
54
54
54
64
ENDCHAR
STARTCHAR 4EF8-1
ENCODING 20216
SWIDTH 1000 0
DWIDTH 8 0
BBX 8 8 0 -1
BITMAP
00
4C
58
C8
7E
48
54
62
ENDCHAR
STARTCHAR 4EF9-1
ENCODING 20217
SWIDTH 1000 0
DWIDTH 8 0
BBX 8 8 0 -1
BITMAP
00
48
7E
C8
5C
48
7E
48
ENDCHAR
STARTCHAR 4EFA-1
ENCODING 20218
SWIDTH 1000 0
DWIDTH 8 0
BBX 8 8 0 -1
BITMAP
00
10
28
7C
C2
78
40
7C
ENDCHAR
STARTCHAR 4EFB-1
ENCODING 20219
SWIDTH 1000 0
DWIDTH 8 0
BBX 8 8 0 -1
BITMAP
00
24
58
C8
7E
48
48
5C
ENDCHAR
STARTCHAR 4EFC-1
ENCODING 20220
SWIDTH 1000 0
DWIDTH 8 0
BBX 8 8 0 -1
BITMAP
00
3E
48
C8
5E
48
48
5E
ENDCHAR
STARTCHAR 4EFD-1
ENCODING 20221
SWIDTH 1000 0
DWIDTH 8 0
BBX 8 8 0 -1
BITMAP
00
2A
52
C0
5E
4A
4A
56
ENDCHAR
STARTCHAR 4EFE-1
ENCODING 20222
SWIDTH 1000 0
DWIDTH 8 0
BBX 8 8 0 -1
BITMAP
00
7E
50
DC
54
5C
44
7E
ENDCHAR
STARTCHAR 4EFF-1
ENCODING 20223
SWIDTH 1000 0
DWIDTH 8 0
BBX 8 8 0 -1
BITMAP
00
24
5E
C8
4E
4A
4A
56
ENDCHAR
STARTCHAR 4F00-1
ENCODING 20224
SWIDTH 1000 0
DWIDTH 8 0
BBX 8 8 0 -1
BITMAP
00
54
54
E2
48
48
54
5A
ENDCHAR
STARTCHAR 4F01-1
ENCODING 20225
SWIDTH 1000 0
DWIDTH 8 0
BBX 8 8 0 -1
BITMAP
00
38
44
92
50
5C
50
FE
ENDCHAR
STARTCHAR 4F02-1
ENCODING 20226
SWIDTH 1000 0
DWIDTH 8 0
BBX 8 8 0 -1
BITMAP
00
48
7E
C8
7E
6A
6E
48
ENDCHAR
STARTCHAR 4F03-1
ENCODING 20227
SWIDTH 1000 0
DWIDTH 8 0
BBX 8 8 0 -1
BITMAP
00
5E
C2
54
48
5E
4A
58
ENDCHAR
STARTCHAR 4F04-1
ENCODING 20228
SWIDTH 1000 0
DWIDTH 8 0
BBX 8 8 0 -1
BITMAP
00
5E
4A
FE
68
7E
4A
48
ENDCHAR
STARTCHAR 4F05-1
ENCODING 20229
SWIDTH 1000 0
DWIDTH 8 0
BBX 8 8 0 -1
BITMAP
00
48
FE
48
6A
7E
48
4E
ENDCHAR
STARTCHAR 4F06-1
ENCODING 20230
SWIDTH 1000 0
DWIDTH 8 0
BBX 8 8 0 -1
BITMAP
00
50
7E
CA
56
6A
52
46
ENDCHAR
STARTCHAR 4F07-1
ENCODING 20231
SWIDTH 1000 0
DWIDTH 8 0
BBX 8 8 0 -1
BITMAP
00
5C
54
E2
5C
54
48
54
ENDCHAR
STARTCHAR 4F08-1
ENCODING 20232
SWIDTH 1000 0
DWIDTH 8 0
BBX 8 8 0 -1
BITMAP
00
28
44
D0
64
52
54
5C
ENDCHAR
STARTCHAR 4F09-1
ENCODING 20233
SWIDTH 1000 0
DWIDTH 8 0
BBX 8 8 0 -1
BITMAP
00
28
7E
C0
5C
54
54
66
ENDCHAR
STARTCHAR 4F0A-1
ENCODING 20234
SWIDTH 1000 0
DWIDTH 8 0
BBX 8 8 0 -1
BITMAP
00
5E
4A
DE
4A
5E
48
50
ENDCHAR
STARTCHAR 4F0B-1
ENCODING 20235
SWIDTH 1000 0
DWIDTH 8 0
BBX 8 8 0 -1
BITMAP
00
3C
54
DE
52
5A
54
6A
ENDCHAR
STARTCHAR 4F0C-1
ENCODING 20236
SWIDTH 1000 0
DWIDTH 8 0
BBX 8 8 0 -1
BITMAP
00
5E
50
DE
5A
5E
68
6E
ENDCHAR
STARTCHAR 4F0D-1
ENCODING 20237
SWIDTH 1000 0
DWIDTH 8 0
BBX 8 8 0 -1
BITMAP
00
20
5E
C8
5E
4A
4A
5E
ENDCHAR
STARTCHAR 4F0E-1
ENCODING 20238
SWIDTH 1000 0
DWIDTH 8 0
BBX 8 8 0 -1
BITMAP
00
28
7E
C8
7C
54
48
76
ENDCHAR
STARTCHAR 4F0F-1
ENCODING 20239
SWIDTH 1000 0
DWIDTH 8 0
BBX 8 8 0 -1
BITMAP
00
2A
48
FE
48
48
54
62
ENDCHAR
STARTCHAR 4F10-1
ENCODING 20240
SWIDTH 1000 0
DWIDTH 8 0
BBX 8 8 0 -1
BITMAP
00
2A
48
DE
48
4A
44
5A
ENDCHAR
STARTCHAR 4F11-1
ENCODING 20241
SWIDTH 1000 0
DWIDTH 8 0
BBX 8 8 0 -1
BITMAP
00
28
7E
C8
58
6C
4A
48
ENDCHAR
STARTCHAR 4F12-1
ENCODING 20242
SWIDTH 1000 0
DWIDTH 8 0
BBX 8 8 0 -1
BITMAP
00
22
5C
D0
5E
54
54
64
ENDCHAR
STARTCHAR 4F13-1
ENCODING 20243
SWIDTH 1000 0
DWIDTH 8 0
BBX 8 8 0 -1
BITMAP
00
2E
44
CC
56
44
44
44
ENDCHAR
STARTCHAR 4F14-1
ENCODING 20244
SWIDTH 1000 0
DWIDTH 8 0
BBX 8 8 0 -1
BITMAP
00
5E
52
C0
54
54
54
56
ENDCHAR
STARTCHAR 4F15-1
ENCODING 20245
SWIDTH 1000 0
DWIDTH 8 0
BBX 8 8 0 -1
BITMAP
00
28
5E
C8
5E
48
48
56
ENDCHAR
STARTCHAR 4F16-1
ENCODING 20246
SWIDTH 1000 0
DWIDTH 8 0
BBX 8 8 0 -1
BITMAP
00
48
5E
C8
4E
4A
54
4A
ENDCHAR
STARTCHAR 4F17-1
ENCODING 20247
SWIDTH 1000 0
DWIDTH 8 0
BBX 8 8 0 -1
BITMAP
00
10
28
C6
00
44
44
AA
ENDCHAR
STARTCHAR 4F18-1
ENCODING 20248
SWIDTH 1000 0
DWIDTH 8 0
BBX 8 8 0 -1
BITMAP
00
2A
48
DE
48
54
54
66
ENDCHAR
STARTCHAR 4F19-1
ENCODING 20249
SWIDTH 1000 0
DWIDTH 8 0
BBX 8 8 0 -1
BITMAP
00
28
48
DA
4C
48
54
62
ENDCHAR
STARTCHAR 4F1A-1
ENCODING 20250
SWIDTH 1000 0
DWIDTH 8 0
BBX 8 8 0 -1
BITMAP
00
38
44
BA
00
FE
24
7A
ENDCHAR
STARTCHAR 4F1B-1
ENCODING 20251
SWIDTH 1000 0
DWIDTH 8 0
BBX 8 8 0 -1
BITMAP
00
5E
50
DA
54
5A
50
5E
ENDCHAR
STARTCHAR 4F1C-1
ENCODING 20252
SWIDTH 1000 0
DWIDTH 8 0
BBX 8 8 0 -1
BITMAP
00
28
7C
D4
66
48
7E
48
ENDCHAR
STARTCHAR 4F1D-1
ENCODING 20253
SWIDTH 1000 0
DWIDTH 8 0
BBX 8 8 0 -1
BITMAP
00
3C
40
FE
48
48
54
7A
ENDCHAR
STARTCHAR 4F1E-1
ENCODING 20254
SWIDTH 1000 0
DWIDTH 8 0
BBX 8 8 0 -1
BITMAP
00
38
44
92
54
FE
10
10
ENDCHAR
STARTCHAR 4F1F-1
ENCODING 20255
SWIDTH 1000 0
DWIDTH 8 0
BBX 8 8 0 -1
BITMAP
00
28
5E
DC
48
5E
4A
4A
ENDCHAR
STARTCHAR 4F20-1
ENCODING 20256
SWIDTH 1000 0
DWIDTH 8 0
BBX 8 8 0 -1
BITMAP
00
24
5E
C4
5E
44
42
4C
ENDCHAR
STARTCHAR 4F21-1
ENCODING 20257
SWIDTH 1000 0
DWIDTH 8 0
BBX 8 8 0 -1
BITMAP
00
48
7E
D4
5E
44
5E
44
ENDCHAR
STARTCHAR 4F22-1
ENCODING 20258
SWIDTH 1000 0
DWIDTH 8 0
BBX 8 8 0 -1
BITMAP
00
5C
C4
54
5E
4C
54
4C
ENDCHAR
STARTCHAR 4F23-1
ENCODING 20259
SWIDTH 1000 0
DWIDTH 8 0
BBX 8 8 0 -1
BITMAP
00
5E
52
DA
5A
48
4A
56
ENDCHAR
STARTCHAR 4F24-1
ENCODING 20260
SWIDTH 1000 0
DWIDTH 8 0
BBX 8 8 0 -1
BITMAP
00
28
4E
D4
5E
4A
4A
56
ENDCHAR
STARTCHAR 4F25-1
ENCODING 20261
SWIDTH 1000 0
DWIDTH 8 0
BBX 8 8 0 -1
BITMAP
00
52
D4
7E
50
58
54
5A
ENDCHAR
STARTCHAR 4F26-1
ENCODING 20262
SWIDTH 1000 0
DWIDTH 8 0
BBX 8 8 0 -1
BITMAP
00
2C
52
C0
54
58
52
4E
ENDCHAR
STARTCHAR 4F27-1
ENCODING 20263
SWIDTH 1000 0
DWIDTH 8 0
BBX 8 8 0 -1
BITMAP
00
28
54
FE
54
5C
52
5E
ENDCHAR
STARTCHAR 4F28-1
ENCODING 20264
SWIDTH 1000 0
DWIDTH 8 0
BBX 8 8 0 -1
BITMAP
00
28
4E
D2
4A
46
5A
46
ENDCHAR
STARTCHAR 4F29-1
ENCODING 20265
SWIDTH 1000 0
DWIDTH 8 0
BBX 8 8 0 -1
BITMAP
00
48
7E
D4
54
48
54
62
ENDCHAR
STARTCHAR 4F2A-1
ENCODING 20266
SWIDTH 1000 0
DWIDTH 8 0
BBX 8 8 0 -1
BITMAP
00
54
C4
5E
4A
4E
4A
56
ENDCHAR
STARTCHAR 4F2B-1
ENCODING 20267
SWIDTH 1000 0
DWIDTH 8 0
BBX 8 8 0 -1
BITMAP
00
48
40
DE
52
40
40
5E
ENDCHAR
STARTCHAR 4F2C-1
ENCODING 20268
SWIDTH 1000 0
DWIDTH 8 0
BBX 8 8 0 -1
BITMAP
00
5E
52
D2
5E
54
54
52
ENDCHAR
STARTCHAR 4F2D-1
ENCODING 20269
SWIDTH 1000 0
DWIDTH 8 0
BBX 8 8 0 -1
BITMAP
00
48
7E
C8
54
48
52
5E
ENDCHAR
STARTCHAR 4F2E-1
ENCODING 20270
SWIDTH 1000 0
DWIDTH 8 0
BBX 8 8 0 -1
BITMAP
00
AE
FA
AA
AA
AC
94
AA
ENDCHAR
STARTCHAR 4F2F-1
ENCODING 20271
SWIDTH 1000 0
DWIDTH 8 0
BBX 8 8 0 -1
BITMAP
00
28
5E
D2
5E
52
52
5E
ENDCHAR
STARTCHAR 4F30-1
ENCODING 20272
SWIDTH 1000 0
DWIDTH 8 0
BBX 8 8 0 -1
BITMAP
00
24
5E
C4
5E
52
52
5E
ENDCHAR
STARTCHAR 4F31-1
ENCODING 20273
SWIDTH 1000 0
DWIDTH 8 0
BBX 8 8 0 -1
BITMAP
00
28
54
E2
48
6A
48
58
ENDCHAR
STARTCHAR 4F32-1
ENCODING 20274
SWIDTH 1000 0
DWIDTH 8 0
BBX 8 8 0 -1
BITMAP
00
5E
52
DE
50
5E
68
6E
ENDCHAR
STARTCHAR 4F33-1
ENCODING 20275
SWIDTH 1000 0
DWIDTH 8 0
BBX 8 8 0 -1
BITMAP
00
54
54
FE
54
5C
50
5E
ENDCHAR
STARTCHAR 4F34-1
ENCODING 20276
SWIDTH 1000 0
DWIDTH 8 0
BBX 8 8 0 -1
BITMAP
00
24
56
C4
5E
44
5E
44
ENDCHAR
STARTCHAR 4F35-1
ENCODING 20277
SWIDTH 1000 0
DWIDTH 8 0
BBX 8 8 0 -1
BITMAP
00
BE
AA
AA
B6
A2
A2
BE
ENDCHAR
STARTCHAR 4F36-1
ENCODING 20278
SWIDTH 1000 0
DWIDTH 8 0
BBX 8 8 0 -1
BITMAP
00
28
54
EE
40
7E
4A
48
ENDCHAR
STARTCHAR 4F37-1
ENCODING 20279
SWIDTH 1000 0
DWIDTH 8 0
BBX 8 8 0 -1
BITMAP
00
48
88
BE
AA
BE
AA
BE
ENDCHAR
STARTCHAR 4F38-1
ENCODING 20280
SWIDTH 1000 0
DWIDTH 8 0
BBX 8 8 0 -1
BITMAP
00
28
7E
EA
7E
6A
7E
48
ENDCHAR
STARTCHAR 4F39-1
ENCODING 20281
SWIDTH 1000 0
DWIDTH 8 0
BBX 8 8 0 -1
BITMAP
00
5C
54
DC
54
5C
54
7E
ENDCHAR
STARTCHAR 4F3A-1
ENCODING 20282
SWIDTH 1000 0
DWIDTH 8 0
BBX 8 8 0 -1
BITMAP
00
3E
42
DA
42
5A
5A
46
ENDCHAR
STARTCHAR 4F3B-1
ENCODING 20283
SWIDTH 1000 0
DWIDTH 8 0
BBX 8 8 0 -1
BITMAP
00
7E
48
EA
48
7E
48
48
ENDCHAR
STARTCHAR 4F3C-1
ENCODING 20284
SWIDTH 1000 0
DWIDTH 8 0
BBX 8 8 0 -1
BITMAP
00
22
56
D2
5A
52
44
5A
ENDCHAR
STARTCHAR 4F3D-1
ENCODING 20285
SWIDTH 1000 0
DWIDTH 8 0
BBX 8 8 0 -1
BITMAP
00
50
7E
DA
DA
6A
4E
58
ENDCHAR
STARTCHAR 4F3E-1
ENCODING 20286
SWIDTH 1000 0
DWIDTH 8 0
BBX 8 8 0 -1
BITMAP
00
3E
48
DA
6A
48
48
5E
ENDCHAR
STARTCHAR 4F3F-1
ENCODING 20287
SWIDTH 1000 0
DWIDTH 8 0
BBX 8 8 0 -1
BITMAP
00
5E
52
D2
5E
40
52
52
ENDCHAR
STARTCHAR 4F40-1
ENCODING 20288
SWIDTH 1000 0
DWIDTH 8 0
BBX 8 8 0 -1
BITMAP
00
5E
52
DE
50
5E
52
5E
ENDCHAR
STARTCHAR 4F41-1
ENCODING 20289
SWIDTH 1000 0
DWIDTH 8 0
BBX 8 8 0 -1
BITMAP
00
48
52
DE
40
5E
52
5E
ENDCHAR
STARTCHAR 4F42-1
ENCODING 20290
SWIDTH 1000 0
DWIDTH 8 0
BBX 8 8 0 -1
BITMAP
00
5E
44
C4
46
54
54
5E
ENDCHAR
STARTCHAR 4F43-1
ENCODING 20291
SWIDTH 1000 0
DWIDTH 8 0
BBX 8 8 0 -1
BITMAP
00
3E
6A
EA
7E
6A
6A
7E
ENDCHAR
STARTCHAR 4F44-1
ENCODING 20292
SWIDTH 1000 0
DWIDTH 8 0
BBX 8 8 0 -1
BITMAP
00
54
D4
7E
54
5C
54
5C
ENDCHAR
STARTCHAR 4F45-1
ENCODING 20293
SWIDTH 1000 0
DWIDTH 8 0
BBX 8 8 0 -1
BITMAP
00
48
5C
C8
7E
5C
6A
48
ENDCHAR
STARTCHAR 4F46-1
ENCODING 20294
SWIDTH 1000 0
DWIDTH 8 0
BBX 8 8 0 -1
BITMAP
00
3E
52
DE
52
5E
40
5E
ENDCHAR
STARTCHAR 4F47-1
ENCODING 20295
SWIDTH 1000 0
DWIDTH 8 0
BBX 8 8 0 -1
BITMAP
00
24
5E
D2
4E
44
44
4C
ENDCHAR
STARTCHAR 4F48-1
ENCODING 20296
SWIDTH 1000 0
DWIDTH 8 0
BBX 8 8 0 -1
BITMAP
00
24
5E
C8
5E
76
56
44
ENDCHAR
STARTCHAR 4F49-1
ENCODING 20297
SWIDTH 1000 0
DWIDTH 8 0
BBX 8 8 0 -1
BITMAP
00
48
5C
C8
7E
50
54
7A
ENDCHAR
STARTCHAR 4F4A-1
ENCODING 20298
SWIDTH 1000 0
DWIDTH 8 0
BBX 8 8 0 -1
BITMAP
00
48
BE
AA
BC
B4
A8
B6
ENDCHAR
ENDFONT
